<?xml version="1.0" encoding="UTF-8" standalone="no"?>
<svg
   version="1.0"
   width="128"
   height="128"
   id="svg3486"
   sodipodi:docname="drive-harddisk.svg"
   inkscape:export-filename="\\wsl.localhost\Debian\build\minios-live\submodules\elementary-xfce-minios\minios-icons\elementary-xfce\apps\128\bleachbit.svg"
   inkscape:export-xdpi="96"
   inkscape:export-ydpi="96"
   xmlns:inkscape="http://www.inkscape.org/namespaces/inkscape"
   xmlns:sodipodi="http://sodipodi.sourceforge.net/DTD/sodipodi-0.dtd"
   xmlns:xlink="http://www.w3.org/1999/xlink"
   xmlns="http://www.w3.org/2000/svg"
   xmlns:svg="http://www.w3.org/2000/svg"
   xmlns:rdf="http://www.w3.org/1999/02/22-rdf-syntax-ns#"
   xmlns:cc="http://creativecommons.org/ns#"
   xmlns:dc="http://purl.org/dc/elements/1.1/">
  <sodipodi:namedview
     id="namedview1"
     pagecolor="#ffffff"
     bordercolor="#000000"
     borderopacity="0.25"
     inkscape:showpageshadow="2"
     inkscape:pageopacity="0.0"
     inkscape:pagecheckerboard="0"
     inkscape:deskcolor="#d1d1d1">
    <inkscape:page
       x="0"
       y="0"
       width="128"
       height="128"
       id="page2"
       margin="0"
       bleed="0" />
  </sodipodi:namedview>
  <metadata
     id="metadata83">
    <rdf:RDF>
      <cc:Work
         rdf:about="">
        <dc:format>image/svg+xml</dc:format>
        <dc:type
           rdf:resource="http://purl.org/dc/dcmitype/StillImage" />
      </cc:Work>
    </rdf:RDF>
  </metadata>
  <defs
     id="defs3488">
    <linearGradient
       id="linearGradient5048">
      <stop
         id="stop5050"
         style="stop-color:#000000;stop-opacity:0"
         offset="0" />
      <stop
         id="stop5056"
         style="stop-color:#000000;stop-opacity:1"
         offset="0.5" />
      <stop
         id="stop5052"
         style="stop-color:#000000;stop-opacity:0"
         offset="1" />
    </linearGradient>
    <linearGradient
       x1="302.85715"
       y1="366.64789"
       x2="302.85715"
       y2="609.50507"
       id="linearGradient2624"
       xlink:href="#linearGradient5048"
       gradientUnits="userSpaceOnUse"
       gradientTransform="matrix(0.2086243,0,0,0.05625201,-11.402788,87.091152)" />
    <radialGradient
       cx="605.71429"
       cy="486.64789"
       r="117.14286"
       fx="605.71429"
       fy="486.64789"
       id="radialGradient2621"
       xlink:href="#linearGradient5060"
       gradientUnits="userSpaceOnUse"
       gradientTransform="matrix(0.122534,0,0,0.05625201,40.472356,87.091152)" />
    <radialGradient
       cx="605.71429"
       cy="486.64789"
       r="117.14286"
       fx="605.71429"
       fy="486.64789"
       id="radialGradient2618"
       xlink:href="#linearGradient5060"
       gradientUnits="userSpaceOnUse"
       gradientTransform="matrix(-0.122534,0,0,0.05625201,87.527672,87.091152)" />
    <linearGradient
       id="linearGradient2215">
      <stop
         id="stop2223"
         style="stop-color:#7a7a7a;stop-opacity:1"
         offset="0" />
      <stop
         id="stop2219"
         style="stop-color:#474747;stop-opacity:1"
         offset="1" />
    </linearGradient>
    <linearGradient
       x1="29.9375"
       y1="41"
       x2="30"
       y2="49.999996"
       id="linearGradient2714"
       xlink:href="#linearGradient2215"
       gradientUnits="userSpaceOnUse"
       gradientTransform="matrix(2.7797939,0,0,2.0106954,-16.614014,15.013338)" />
    <linearGradient
       id="linearGradient3484">
      <stop
         id="stop3486"
         style="stop-color:#969696;stop-opacity:1"
         offset="0" />
      <stop
         id="stop3488"
         style="stop-color:#b4b4b4;stop-opacity:1"
         offset="1" />
    </linearGradient>
    <linearGradient
       x1="17.813944"
       y1="29.796696"
       x2="18.072828"
       y2="10.000001"
       id="linearGradient2710"
       xlink:href="#linearGradient3484"
       gradientUnits="userSpaceOnUse"
       gradientTransform="matrix(2.7717117,0,0,2.8041475,-2.5210903,-6.9397837)" />
    <linearGradient
       id="linearGradient7056">
      <stop
         id="stop7064"
         style="stop-color:#e6e6e6;stop-opacity:1"
         offset="0" />
      <stop
         id="stop7060"
         style="stop-color:#c8c8c8;stop-opacity:1"
         offset="1" />
    </linearGradient>
    <radialGradient
       cx="11.734284"
       cy="8.4900017"
       r="23.047892"
       fx="11.734284"
       fy="8.4900017"
       id="radialGradient2708"
       xlink:href="#linearGradient7056"
       gradientUnits="userSpaceOnUse"
       gradientTransform="matrix(3.8158369,1.9550356,-1.297462,2.5920017,-2.657338,-12.37557)" />
    <radialGradient
       cx="141.74666"
       cy="206.42612"
       r="78.728165"
       fx="141.74666"
       fy="206.42612"
       id="radialGradient2704"
       xlink:href="#linearGradient4035"
       gradientUnits="userSpaceOnUse"
       gradientTransform="matrix(0.9720948,-0.0142358,0.00719451,0.8190959,-77.067288,-77.616391)" />
    <linearGradient
       id="linearGradient7609">
      <stop
         id="stop7611"
         style="stop-color:#ffffff;stop-opacity:1"
         offset="0" />
      <stop
         id="stop7677"
         style="stop-color:#e7e7e7;stop-opacity:1"
         offset="0.47025558" />
      <stop
         id="stop7613"
         style="stop-color:#8c8c8c;stop-opacity:1"
         offset="0.67183787" />
      <stop
         id="stop7617"
         style="stop-color:#dddddd;stop-opacity:1"
         offset="0.83542866" />
      <stop
         id="stop7615"
         style="stop-color:#a8a8a8;stop-opacity:1"
         offset="1" />
    </linearGradient>
    <radialGradient
       cx="142.62215"
       cy="191.85428"
       r="78.728165"
       fx="142.62215"
       fy="191.85428"
       id="radialGradient2701"
       xlink:href="#linearGradient7609"
       gradientUnits="userSpaceOnUse"
       gradientTransform="matrix(0.4932064,0,0,-0.3486482,-8.2964585,119.46245)" />
    <radialGradient
       cx="113.0654"
       cy="97.587898"
       r="2.5631001"
       fx="113.667"
       fy="98"
       id="radialGradient2697"
       xlink:href="#radialGradient4241"
       gradientUnits="userSpaceOnUse"
       gradientTransform="matrix(-1.0068548,0,0,0.9756095,124.84131,-3.2068583)" />
    <radialGradient
       cx="113.0654"
       cy="97.587898"
       r="2.5631001"
       fx="113.667"
       fy="98"
       id="radialGradient2693"
       xlink:href="#radialGradient4241"
       gradientUnits="userSpaceOnUse"
       gradientTransform="matrix(0.7477745,-0.1585924,0.084228,0.6299819,-68.769481,-18.546726)" />
    <radialGradient
       cx="113.0654"
       cy="97.587898"
       r="2.5631001"
       fx="113.667"
       fy="98"
       id="radialGradient2689"
       xlink:href="#radialGradient4241"
       gradientUnits="userSpaceOnUse"
       gradientTransform="matrix(0.7564903,0.1411284,-0.07792703,0.6130007,24.07117,-50.778011)" />
    <linearGradient
       id="linearGradient5060">
      <stop
         id="stop5062"
         style="stop-color:#000000;stop-opacity:1"
         offset="0" />
      <stop
         id="stop5064"
         style="stop-color:#000000;stop-opacity:0"
         offset="1" />
    </linearGradient>
    <linearGradient
       x1="7.0625"
       y1="35.28125"
       x2="24.6875"
       y2="35.28125"
       id="linearGradient2686"
       xlink:href="#linearGradient5060"
       gradientUnits="userSpaceOnUse"
       gradientTransform="matrix(2.8154099,0,0,2.6966282,0.4945617,11.359533)" />
    <linearGradient
       id="linearGradient4236">
      <stop
         id="stop4238"
         style="stop-color:#eeeeee;stop-opacity:1"
         offset="0" />
      <stop
         id="stop4240"
         style="stop-color:#eeeeee;stop-opacity:0"
         offset="1" />
    </linearGradient>
    <linearGradient
       x1="12.277412"
       y1="37.205811"
       x2="12.221823"
       y2="33.758667"
       id="linearGradient2683"
       xlink:href="#linearGradient4236"
       gradientUnits="userSpaceOnUse"
       gradientTransform="matrix(2.7758664,0,0,2.9914128,-1.725507,4.105388)" />
    <linearGradient
       id="linearGradient4035">
      <stop
         id="stop4037"
         style="stop-color:#f5f5f5;stop-opacity:1"
         offset="0" />
      <stop
         id="stop4039"
         style="stop-color:#e7e7e7;stop-opacity:1"
         offset="0.47025558" />
      <stop
         id="stop4041"
         style="stop-color:#8c8c8c;stop-opacity:1"
         offset="0.69348532" />
      <stop
         id="stop4043"
         style="stop-color:#dddddd;stop-opacity:1"
         offset="0.83542866" />
      <stop
         id="stop4045"
         style="stop-color:#a8a8a8;stop-opacity:1"
         offset="1" />
    </linearGradient>
    <radialGradient
       cx="127.31733"
       cy="143.82751"
       r="78.728165"
       fx="127.31733"
       fy="143.82751"
       id="radialGradient2680"
       xlink:href="#linearGradient4035"
       gradientUnits="userSpaceOnUse"
       gradientTransform="matrix(0.5208152,-0.07516752,0.01692892,0.3022039,-21.928264,5.2860233)" />
    <radialGradient
       cx="113.0654"
       cy="97.587898"
       r="2.5631001"
       fx="113.667"
       fy="98"
       id="radialGradient4241"
       gradientUnits="userSpaceOnUse">
      <stop
         id="stop4243"
         style="stop-color:#eeeeee;stop-opacity:1"
         offset="0" />
      <stop
         id="stop4245"
         style="stop-color:#cecece;stop-opacity:1"
         offset="0.16" />
      <stop
         id="stop4247"
         style="stop-color:#888888;stop-opacity:1"
         offset="0.4675" />
      <stop
         id="stop4249"
         style="stop-color:#555555;stop-opacity:1"
         offset="1" />
    </radialGradient>
    <radialGradient
       cx="113.0654"
       cy="97.587898"
       r="2.5631001"
       fx="113.667"
       fy="98"
       id="radialGradient2676"
       xlink:href="#radialGradient4241"
       gradientUnits="userSpaceOnUse"
       gradientTransform="matrix(1.0068545,0,0,0.9756095,3.158733,-3.2068583)" />
    <linearGradient
       id="linearGradient6310-8">
      <stop
         id="stop6312-6"
         style="stop-color:#ffffff;stop-opacity:1"
         offset="0" />
      <stop
         id="stop6314-6"
         style="stop-color:#ffffff;stop-opacity:0"
         offset="1" />
    </linearGradient>
    <radialGradient
       cx="24"
       cy="42"
       r="21"
       fx="24"
       fy="42"
       id="radialGradient2673"
       xlink:href="#linearGradient6310-8"
       gradientUnits="userSpaceOnUse"
       gradientTransform="matrix(2.8095237,-3.195635e-8,7.8140219e-8,1.0714284,-3.428568,61.499973)" />
    <radialGradient
       cx="38"
       cy="69"
       r="20"
       fx="28.603323"
       fy="69"
       id="radialGradient6025"
       xlink:href="#linearGradient5060"
       gradientUnits="userSpaceOnUse"
       gradientTransform="matrix(1,0,0,0.30000006,15,34.332296)" />
    <linearGradient
       x1="28"
       y1="16"
       x2="26"
       y2="8"
       id="linearGradient5964"
       xlink:href="#linearGradient5958"
       gradientUnits="userSpaceOnUse"
       gradientTransform="translate(26.999999,14.0323)" />
    <linearGradient
       id="linearGradient5958">
      <stop
         id="stop5960"
         style="stop-color:#c17d11;stop-opacity:1"
         offset="0" />
      <stop
         id="stop5962"
         style="stop-color:#e9b96e;stop-opacity:1"
         offset="1" />
    </linearGradient>
    <linearGradient
       x1="30.324829"
       y1="9.2407961"
       x2="34"
       y2="18"
       id="linearGradient6002"
       xlink:href="#linearGradient5996"
       gradientUnits="userSpaceOnUse"
       gradientTransform="translate(26.999999,14.0323)" />
    <linearGradient
       id="linearGradient5996">
      <stop
         id="stop5998"
         style="stop-color:#8f5902;stop-opacity:1"
         offset="0" />
      <stop
         id="stop6000"
         style="stop-color:#73521e;stop-opacity:1"
         offset="1" />
    </linearGradient>
    <linearGradient
       x1="28"
       y1="8"
       x2="33.447109"
       y2="16.685888"
       id="linearGradient5994"
       xlink:href="#linearGradient5984"
       gradientUnits="userSpaceOnUse"
       gradientTransform="translate(26.999999,14.0323)" />
    <linearGradient
       id="linearGradient5984">
      <stop
         id="stop5986"
         style="stop-color:#ffffff;stop-opacity:1"
         offset="0" />
      <stop
         id="stop5988"
         style="stop-color:#ffffff;stop-opacity:0.13438736"
         offset="1" />
    </linearGradient>
    <linearGradient
       x1="20.933708"
       y1="25.060659"
       x2="30.208115"
       y2="30.742676"
       id="linearGradient5972"
       xlink:href="#linearGradient5966"
       gradientUnits="userSpaceOnUse"
       gradientTransform="translate(26.999999,14.0323)" />
    <linearGradient
       id="linearGradient5966">
      <stop
         id="stop5968"
         style="stop-color:#fdef72;stop-opacity:1"
         offset="0" />
      <stop
         id="stop5970"
         style="stop-color:#e2cb0b;stop-opacity:1"
         offset="1" />
    </linearGradient>
    <linearGradient
       x1="22.319767"
       y1="41.955986"
       x2="18.985712"
       y2="37.029255"
       id="linearGradient5973"
       xlink:href="#linearGradient5981"
       gradientUnits="userSpaceOnUse"
       gradientTransform="translate(26.999999,14.0323)" />
    <linearGradient
       id="linearGradient5981">
      <stop
         id="stop5983"
         style="stop-color:#ffffff;stop-opacity:1"
         offset="0" />
      <stop
         id="stop5985"
         style="stop-color:#ffffff;stop-opacity:0.69411767"
         offset="1" />
    </linearGradient>
    <linearGradient
       x1="27.354809"
       y1="36.218422"
       x2="23.489431"
       y2="34.728424"
       id="linearGradient6005"
       xlink:href="#linearGradient5999"
       gradientUnits="userSpaceOnUse"
       gradientTransform="translate(26.999999,14.0323)" />
    <linearGradient
       id="linearGradient5999">
      <stop
         id="stop6001"
         style="stop-color:#c4a000;stop-opacity:1"
         offset="0" />
      <stop
         id="stop6003"
         style="stop-color:#c4a000;stop-opacity:0"
         offset="1" />
    </linearGradient>
    <linearGradient
       x1="27.651777"
       y1="23.145937"
       x2="21.59099"
       y2="20.618719"
       id="linearGradient5980-761"
       xlink:href="#linearGradient5974-892"
       gradientUnits="userSpaceOnUse"
       gradientTransform="matrix(0.9768193,0,0,1,27.625336,14.0323)" />
    <linearGradient
       id="linearGradient5974-892">
      <stop
         id="stop2473"
         style="stop-color:#919191;stop-opacity:1"
         offset="0" />
      <stop
         id="stop2475"
         style="stop-color:#cecece;stop-opacity:1"
         offset="1" />
    </linearGradient>
  </defs>
  <g
     id="layer1">
    <rect
       width="100.73576"
       height="13.661199"
       x="13.632071"
       y="107.71581"
       id="rect2723"
       style="display:inline;overflow:visible;visibility:visible;opacity:0.3;fill:url(#linearGradient2624);fill-opacity:1;fill-rule:nonzero;stroke:none;stroke-width:0.5;marker:none" />
    <path
       d="m 114.31876,107.71629 c 0,0 0,13.66044 0,13.66044 6.31019,0.0257 15.25499,-3.06061 15.25499,-6.8311 0,-3.77048 -7.04169,-6.82934 -15.25499,-6.82934 z"
       id="path2725"
       style="display:inline;overflow:visible;visibility:visible;opacity:0.3;fill:url(#radialGradient2621);fill-opacity:1;fill-rule:nonzero;stroke:none;stroke-width:0.5;marker:none" />
    <path
       d="m 13.681244,107.71629 c 0,0 0,13.66044 0,13.66044 -6.310217,0.0257 -15.2549956,-3.06061 -15.2549956,-6.8311 0,-3.77048 7.0417191,-6.82934 15.2549956,-6.82934 z"
       id="path2727"
       style="display:inline;overflow:visible;visibility:visible;opacity:0.3;fill:url(#radialGradient2618);fill-opacity:1;fill-rule:nonzero;stroke:none;stroke-width:1;marker:none" />
    <path
       d="M 1.4640118,98.46396 H 126.53599 l -2.50078,16.072 H 4.2427776 Z"
       id="rect6431"
       style="display:inline;fill:url(#linearGradient2714);fill-opacity:1;fill-rule:evenodd;stroke:#353537;stroke-width:0.927999;stroke-linecap:round;stroke-linejoin:round;stroke-miterlimit:4;stroke-dasharray:none;stroke-dashoffset:0;stroke-opacity:1;enable-background:new" />
    <rect
       width="124.65551"
       height="2.7934818"
       x="1.6722411"
       y="96.278435"
       id="rect6381"
       style="display:inline;fill:#d2d2d3;fill-opacity:1;fill-rule:evenodd;stroke:none;enable-background:new" />
    <path
       d="m 126.5021,98.502072 -18.87434,-72.27504 c -0.5337,-2.058171 -3.32939,-3.729178 -5.6797,-3.729178 H 25.401087 c -3.61082,0 -5.67995,0.55683 -6.441344,3.729178 L 1.4978917,98.431698"
       id="path6345"
       style="display:inline;overflow:visible;visibility:visible;fill:url(#radialGradient2708);fill-opacity:1;fill-rule:nonzero;stroke:url(#linearGradient2710);stroke-width:0.995784;stroke-linecap:round;stroke-linejoin:round;stroke-miterlimit:4;stroke-dasharray:none;stroke-dashoffset:0;stroke-opacity:1;marker:none;enable-background:accumulate" />
    <path
       d="M 125.49993,98.499962 H 2.5000713"
       id="path7046"
       style="display:inline;overflow:visible;visibility:visible;opacity:0.4;fill:none;stroke:#ffffff;stroke-width:1;stroke-linecap:round;stroke-linejoin:miter;stroke-miterlimit:4;stroke-dasharray:none;stroke-dashoffset:0;stroke-opacity:1;marker:none;enable-background:accumulate" />
    <path
       d="M 110.92092,65.725768 C 110.3191,60.064839 106.28586,54.666923 99.584514,50.40743 99.449711,48.770155 97.73201,27.825229 97.73201,27.825229 97.600357,26.215146 95.598354,24.999962 93.073439,24.999962 H 77.228168 c -2.543071,0 -4.508907,1.231154 -4.573025,2.863663 -0.290762,7.37575 -9.156775,11.22673 -22.382018,14.729937 -4.633979,0.82263 -16.715425,4.689609 -19.488309,6.386853 -8.162626,4.458548 -13.030685,10.402498 -13.705211,16.745353 -0.613598,5.768862 2.335694,11.541726 8.304804,16.255309 8.736631,6.899294 23.171958,11.018885 38.615302,11.018885 15.443367,0 29.878661,-4.119591 38.616399,-11.018885 C 108.06784,77.67682 111,72.487554 111,67.225569 c 0,-0.499686 -0.0285,-1.000144 -0.0792,-1.499801 h 1.6e-4 v 0 z m -46.921209,24.41295 c -25.721437,0 -45.417159,-11.560919 -43.992218,-24.96217 0.614674,-5.777657 5.126765,-11.945436 12.598825,-16.00986 1.399278,-1.080869 14.036612,-5.285207 18.570081,-6.023912 12.564635,-3.32092 24.054959,-7.630779 24.415188,-16.713381 0.01576,-0.434917 0.739716,-0.779469 1.636581,-0.779469 H 93.07132 c 0.917164,0 1.691165,0.36134 1.727498,0.807455 l 1.924071,23.465593 c 6.659671,3.954888 10.695021,9.858042 11.267991,15.253574 1.42599,13.401251 -18.269705,24.96217 -43.991169,24.96217 z"
       id="path9001"
       style="fill:url(#radialGradient2704);fill-opacity:1" />
    <path
       d="m 63.999384,73.999962 c -8.973236,0 -15.852137,-3.378974 -15.997128,-7.860868 C 48.001115,66.090628 48,66.042992 48,65.995356 c 0,-1.6218 0.901596,-3.164222 2.614836,-4.470192 2.898144,-2.207529 7.90189,-3.525202 13.385658,-3.525202 5.482657,0 10.486376,1.317673 13.38452,3.525202 1.763842,1.342724 2.66772,2.938634 2.612608,4.613086 -0.147308,4.481894 -7.026144,7.861697 -15.998238,7.861697 v 9e-6 z m 0,-13.492478 c -8.431405,0 -12.726909,3.348882 -12.625724,6.406166 0.09779,3.009662 5.75022,5.414384 12.625724,5.414384 6.875504,0 12.52788,-2.405568 12.625699,-5.414384 0.09997,-3.058126 -4.194323,-6.406166 -12.625699,-6.406166 z"
       id="path9003"
       style="display:inline;overflow:visible;visibility:visible;fill:url(#radialGradient2701);fill-opacity:1;fill-rule:nonzero;stroke-width:1;stroke-linecap:butt;stroke-linejoin:miter;stroke-miterlimit:4;stroke-dasharray:none;stroke-dashoffset:0;stroke-opacity:1;marker:none;enable-background:accumulate" />
    <path
       d="m 14.993455,91.98533 c -0.126866,1.660488 -2.026799,3.014632 -4.241883,3.014632 -2.2140731,0 -3.8904862,-1.354144 -3.7424788,-3.014632 0.1470028,-1.65171 2.0459308,-2.985368 4.2388598,-2.985368 2.19394,7.83e-4 3.870352,1.333658 3.745502,2.985368 z"
       id="path9007"
       style="fill:#e1e1e1;fill-opacity:1" />
    <path
       d="m 13.560699,90.817522 c 0.202379,0.210719 0.433956,0.548297 0.433956,0.997072 0,0.03222 -0.002,0.06438 -0.004,0.09855 -0.0876,1.144388 -1.570694,2.111218 -3.238047,2.111218 -0.9494637,0 -1.8173717,-0.317072 -2.3208007,-0.849754 -0.2164704,-0.227316 -0.4631534,-0.603904 -0.418851,-1.105366 0.1016909,-1.134636 1.5827736,-2.093658 3.2360327,-2.093658 0.942416,7.8e-4 1.807303,0.315122 2.311736,0.841948 h 9e-6 l -10e-7,-1.4e-5 z"
       id="path9009"
       style="fill:url(#radialGradient2697);fill-opacity:1" />
    <path
       d="m 21.030997,25.61943 c 0.237579,1.052246 1.765539,1.627395 3.410643,1.278494 1.644356,-0.348742 2.77249,-1.487218 2.519216,-2.536133 -0.251792,-1.043405 -1.777218,-1.605485 -3.40587,-1.260071 -1.629338,0.346076 -2.759308,1.470812 -2.523989,2.51771 z"
       id="path9019"
       style="fill:#f0f0f0;fill-opacity:1" />
    <path
       d="m 21.994264,24.639666 c -0.132112,0.167962 -0.274955,0.422405 -0.236214,0.712195 0.0028,0.02071 0.007,0.04142 0.01151,0.06298 0.163859,0.725166 1.348799,1.11587 2.587114,0.853242 0.705149,-0.149536 1.322356,-0.491002 1.650254,-0.914267 0.141147,-0.180901 0.291825,-0.462913 0.215648,-0.779745 -0.173495,-0.716654 -1.356251,-1.102634 -2.5841,-0.842225 -0.699848,0.148949 -1.315048,0.488159 -1.644201,0.907803 l -4e-6,5e-6 -10e-6,1.7e-5 z"
       id="path9021"
       style="fill:url(#radialGradient2693);fill-opacity:1" />
    <path
       d="m 99.000772,24.430821 c -0.0373,1.06111 1.282028,2.178262 2.946298,2.488746 1.66353,0.31034 3.03124,-0.305538 3.05267,-1.369597 0.0213,-1.058417 -1.29873,-2.162557 -2.94637,-2.469933 -1.64846,-0.307015 -3.014472,0.295486 -3.052598,1.350784 z"
       id="path9025"
       style="fill:#e1e1e1;fill-opacity:1" />
    <path
       d="m 100.17053,23.897881 c -0.16888,0.104022 -0.369832,0.28367 -0.405681,0.565664 -0.0026,0.02011 -0.0037,0.04062 -0.0047,0.06249 -0.02574,0.731329 1.011481,1.546696 2.264241,1.780402 0.71337,0.133075 1.39078,0.05552 1.81158,-0.208618 0.18082,-0.112475 0.39622,-0.314526 0.40299,-0.635822 0.0142,-0.727174 -1.02197,-1.537352 -2.26413,-1.769086 -0.70814,-0.131596 -1.38308,-0.05531 -1.80415,0.20501 l -1e-5,-8e-6 -1e-4,-3.6e-5 z"
       id="path9027"
       style="fill:url(#radialGradient2689);fill-opacity:1" />
    <path
       d="m 19,98.99996 h 51 v 15 H 20.378402 Z"
       id="rect8993"
       style="display:inline;overflow:visible;visibility:visible;fill:url(#linearGradient2686);fill-opacity:1;fill-rule:evenodd;stroke:none;stroke-width:2.409;marker:none" />
    <path
       d="m 20.087235,113.99996 c 0,0 -1.087235,-12 -1.087235,-12 5.09518,9.51037 24.117184,12 37,12 z"
       id="path8995"
       style="opacity:0.811429;fill:url(#linearGradient2683);fill-opacity:1;fill-rule:evenodd;stroke:none" />
    <path
       d="M 28.211312,24.999962 27.929032,26.142989 23.714916,43.155655 23,45.999962 l 2.088259,-0.611384 35.519038,-10.632915 0.112803,-0.05313 0.09408,-0.05313 c 1.880902,-1.063063 2.885935,-3.211348 3.122964,-5.183545 0.118628,-0.986107 0.08307,-1.951725 -0.225609,-2.844296 -0.291489,-0.842632 -1.050354,-1.592331 -1.843677,-1.568363 v -0.05313 H 61.736085 29.057833 28.211237 l 9.1e-5,2e-6 -1.9e-5,-1.07e-4 z m 1.202222,1.05113 h 32.735878 c 0.01531,0.143607 0.05209,0.223288 0.01831,0.494998 -0.10269,0.855062 -0.544465,3.914096 -1.654327,4.581421 L 26.084178,41.439966 29.412262,26.051098 h 0.0011 l 2.02e-4,-6e-6 z"
       id="path9039"
       style="display:inline;overflow:visible;visibility:visible;fill:url(#radialGradient2680);fill-opacity:1;fill-rule:nonzero;stroke:none;stroke-width:1;marker:none;enable-background:accumulate" />
    <path
       d="m 113.00654,91.98533 c 0.12687,1.660488 2.0268,3.014632 4.24188,3.014632 2.21407,0 3.8905,-1.354144 3.74249,-3.014632 -0.14702,-1.65171 -2.04594,-2.985368 -4.23886,-2.985368 -2.19394,7.83e-4 -3.87035,1.333658 -3.74551,2.985368 z"
       id="path9091"
       style="fill:#e1e1e1;fill-opacity:1" />
    <path
       d="m 114.4393,90.817522 c -0.20238,0.210719 -0.43396,0.548297 -0.43396,0.997072 0,0.03222 0.002,0.06438 0.004,0.09855 0.0876,1.144388 1.57069,2.111218 3.23803,2.111218 0.94947,0 1.81738,-0.317072 2.32081,-0.849754 0.21646,-0.227316 0.46315,-0.603904 0.41885,-1.105366 -0.1017,-1.134636 -1.58277,-2.093658 -3.23603,-2.093658 -0.94243,7.8e-4 -1.8073,0.315122 -2.31174,0.841948 v 0 l 6e-5,-1.4e-5 z"
       id="path9093"
       style="fill:url(#radialGradient2676);fill-opacity:1" />
    <rect
       width="118"
       height="15"
       x="5"
       y="98.999954"
       id="rect6300-3"
       style="opacity:0.3;fill:url(#radialGradient2673);fill-opacity:1;stroke:none" />
  </g>
  <g
     id="g2"
     transform="matrix(-2.6521756,0,0,2.6521742,179.14304,-35.463673)">
    <path
       inkscape:connector-curvature="0"
       style="display:none;opacity:0.25;fill:url(#radialGradient6025);fill-opacity:1;stroke:none;stroke-width:0.816497"
       id="path6017"
       d="m 73,55.0323 a 20,6.0000012 0 1 1 -40,0 20,6.0000012 0 1 1 40,0 z" />
    <path
       inkscape:connector-curvature="0"
       style="fill:url(#linearGradient5964);fill-opacity:1;fill-rule:evenodd;stroke:url(#linearGradient6002);stroke-width:0.377049;stroke-linecap:butt;stroke-linejoin:miter;stroke-dasharray:none;stroke-opacity:1"
       id="path5371"
       d="m 63.593749,16.50105 c -8.203217,0.10565 -9.3968,16.247526 -11.75,19.15625 l 4,1.4375 c 2.631873,-4.372547 15.755996,-18.907997 8.5625,-20.5625 -0.27949,-0.03097 -0.54788,-0.03466 -0.8125,-0.03125 z m -1.03125,2.0625 c 0.193563,-0.01874 0.367986,0.0057 0.53125,0.09375 0.653056,0.352123 0.723655,1.494877 0.15625,2.53125 -0.567405,1.036373 -1.565696,1.602122 -2.21875,1.25 -0.653053,-0.352123 -0.723655,-1.494877 -0.15625,-2.53125 0.425554,-0.77728 1.106812,-1.287534 1.6875,-1.34375 z" />
    <path
       inkscape:connector-curvature="0"
       style="opacity:0.266667;fill:none;stroke:url(#linearGradient5994);stroke-width:0.512018;stroke-linecap:butt;stroke-linejoin:miter;stroke-dasharray:none;stroke-opacity:1"
       id="path5992"
       d="m 63.593749,17.50105 c -1.721618,0.02217 -3.007925,0.855874 -4.1875,2.28125 -1.179575,1.425376 -2.148334,3.441635 -2.9375,5.59375 -0.789166,2.152115 -1.42404,4.43427 -2,6.375 -0.399891,1.347456 -0.769857,2.406448 -1.21875,3.34375 l 2.1875,0.78125 c 1.618594,-2.495624 5.038798,-6.591178 7.53125,-10.625 1.325839,-2.145757 2.2837,-4.178041 2.5,-5.5625 0.10815,-0.692229 0.04507,-1.172929 -0.125,-1.46875 -0.164691,-0.286469 -0.463476,-0.524586 -1.125,-0.6875 -0.199495,-0.01878 -0.400833,-0.03414 -0.625,-0.03125 z" />
    <path
       inkscape:connector-curvature="0"
       style="fill:url(#linearGradient5972);fill-opacity:1;fill-rule:evenodd;stroke:none;stroke-width:0.377049;stroke-linecap:butt;stroke-linejoin:miter;stroke-miterlimit:20;stroke-dasharray:none;stroke-opacity:1"
       id="path5367"
       d="m 49.499999,30.5323 c 0.709506,2.003007 -0.541388,3.737831 -1,5 -5.191567,1.545674 -8.786801,9.703726 -14.132583,13.953585 0.667788,0.697398 1.452227,1.444178 2.132583,2.046415 l 4.0625,-3.53125 -3.067556,4.524649 c 2.209237,1.790983 4.505056,3.006601 6.005056,3.506601 l 2.75,-3.65625 -1.75,4.15625 c 1.451994,0.588882 4.985286,1.482025 7,1.5 l 2.00389,-3.402497 -0.513169,3.464997 c 0.829563,0.158359 2.438165,0.374216 3.509279,0.40625 3.362186,-5.5 4,-14.46875 2,-18.46875 -0.5,-2 1.5,-4.5 3,-5.5 -2.5,-2 -8.205589,-4.303726 -12,-4 z" />
    <path
       inkscape:connector-curvature="0"
       style="opacity:0.5;fill:none;fill-opacity:1;fill-rule:evenodd;stroke:#ad5f00;stroke-width:0.377049;stroke-linecap:butt;stroke-linejoin:miter;stroke-miterlimit:20;stroke-dasharray:none;stroke-opacity:1"
       id="path5367-6"
       d="m 49.499999,30.5323 c 0.709506,2.003007 -0.541388,3.737831 -1,5 -5.191567,1.545674 -8.786801,9.703726 -14.132583,13.953585 0.667788,0.697398 1.452227,1.444178 2.132583,2.046415 l 4.0625,-3.53125 -3.067556,4.524649 c 2.209237,1.790983 4.505056,3.006601 6.005056,3.506601 l 2.75,-3.65625 -1.75,4.15625 c 1.451994,0.588882 4.985286,1.482025 7,1.5 l 2.00389,-3.402497 -0.513169,3.464997 c 0.829563,0.158359 2.438165,0.374216 3.509279,0.40625 3.362186,-5.5 4,-14.46875 2,-18.46875 -0.5,-2 1.5,-4.5 3,-5.5 -2.5,-2 -8.205589,-4.303726 -12,-4 z" />
    <path
       inkscape:connector-curvature="0"
       style="opacity:0.266667;fill:#c4a000;fill-rule:evenodd;stroke:none"
       id="path5975"
       d="M 37.999999,52.5323 C 42.816494,47.521405 42.465022,45.328374 48.116116,41.004572 45.133674,45.833003 44.650277,48.34463 40.999999,54.5323 Z" />
    <path
       inkscape:connector-curvature="0"
       style="opacity:0.415686;fill:#c4a000;fill-rule:evenodd;stroke:none"
       id="path5979"
       d="m 45.149807,56.234752 4.346027,-9.840147 c 1.664513,-2.983727 2.859672,-5.970052 4.528973,-8.347353 -1.601954,5.418037 -4.89069,12.121793 -7.53125,18.625 z" />
    <path
       inkscape:connector-curvature="0"
       style="opacity:0.478431;fill:none;stroke:url(#linearGradient5973);stroke-width:0.512018;stroke-linecap:butt;stroke-linejoin:miter;stroke-dasharray:none;stroke-opacity:1"
       id="path6014"
       d="m 50.624999,31.5323 c 0.09674,1.915146 -0.922943,3.529645 -1.21875,4.34375 -0.104103,0.284709 -0.33533,0.504374 -0.625,0.59375 -5.453398,2.234644 -7.629803,8.574038 -12.994638,13.086167 0.201642,0.199854 0.49203,0.417304 0.694529,0.608231 l 9.018859,-7.631898 -6.576615,9.810313 c 1.270033,1.027613 2.722201,1.884544 4.226656,2.489165 L 50.144393,45.5323 45.8695,55.943912 c 1.595569,0.525657 3.098303,0.827296 4.945009,1.088388 l 4.61873,-7.6875 -1.37074,7.906817 1.875,0.225995 c 1.433213,-2.535494 2.132382,-5.66653 2.53125,-8.789062 0.423945,-3.318846 -0.005,-6.541178 -0.84375,-8.21875 -0.02716,-0.06021 -0.0481,-0.123035 -0.0625,-0.1875 -0.346858,-1.387431 0.169142,-2.745627 0.875,-3.875 0.426893,-0.683029 0.930372,-1.290779 1.464959,-1.801777 -1.171482,-0.782691 -2.586697,-1.460066 -4.371209,-2.104473 -1.762077,-0.636306 -3.497998,-0.950025 -4.90625,-0.96875 z" />
    <path
       inkscape:connector-curvature="0"
       style="opacity:0.247059;fill:url(#linearGradient6005);fill-opacity:1;fill-rule:evenodd;stroke:none"
       id="path5977"
       d="m 47.968749,57.0323 c 2.177566,-5.751871 6.395916,-10.068943 8.016913,-15.935412 0.05154,3.662073 0.24972,10.203726 -1.891913,16.716662 -0.319766,0.0018 -0.173927,-0.110809 -0.46988,-0.118553 l 0.800792,-5.724517 -3.281486,5.554384 c -2.190808,-0.156324 -1.294611,0.0326 -3.174426,-0.492564 z" />
    <path
       inkscape:connector-curvature="0"
       style="opacity:0.482353;fill:#c4a000;fill-rule:evenodd;stroke:none"
       id="path5995"
       d="m 50.003066,36.642747 c -1.251995,0.616379 -2.062209,1.527278 -2.983106,2.364388 1.226487,-0.708643 2.378986,-1.448994 3.999573,-1.988738 z" />
    <path
       inkscape:connector-curvature="0"
       style="opacity:0.482353;fill:#c4a000;fill-rule:evenodd;stroke:none"
       id="path5997"
       d="m 52.008697,37.093349 -1.016465,1.988738 2.980713,-1.58825 z" />
    <path
       inkscape:connector-curvature="0"
       style="opacity:0.482353;fill:#c4a000;fill-rule:evenodd;stroke:none"
       id="path6007"
       d="m 51.939804,31.993699 -0.895193,1.707022 1.565727,0.502084 z" />
    <path
       inkscape:connector-curvature="0"
       style="opacity:0.482353;fill:#c4a000;fill-rule:evenodd;stroke:none"
       id="path6009"
       d="m 58.923253,33.91767 -2.460248,1.835447 1.565727,0.502084 z" />
    <path
       inkscape:connector-curvature="0"
       style="opacity:0.482353;fill:#c4a000;fill-rule:evenodd;stroke:none"
       id="path6011"
       d="m 55.012924,31.970866 -1.513911,2.524614 1.565727,0.502084 -0.05182,-3.026698 z" />
    <path
       inkscape:connector-curvature="0"
       style="opacity:0.2;fill:#000000;fill-opacity:1;fill-rule:evenodd;stroke:none"
       id="path6013"
       d="m 47.967725,36.056999 c -0.56678,-2.965484 9.332835,2.152903 11.036822,2.994369 -0.0065,1.079068 0,2 -0.976819,2 -2.567538,-1.39298 -6.535255,-3.605143 -10.060003,-4.994369 z" />
    <path
       inkscape:connector-curvature="0"
       style="fill:url(#linearGradient5980-761);fill-opacity:1;fill-rule:evenodd;stroke:#464646;stroke-width:0.377049;stroke-linecap:butt;stroke-linejoin:round;stroke-dasharray:none;stroke-opacity:1"
       id="path5373"
       d="m 47.650132,35.5323 c -0.48841,-1 0,-2 0.97682,-2 3.99144,0.975417 7.324875,2.206232 10.745012,4 0.48841,1 0,2 -0.976819,2 -3.533943,-1.86442 -6.866711,-3.074813 -10.745013,-4 z" />
  </g>
</svg>
