<?xml version="1.0" encoding="UTF-8" standalone="no"?>
<svg
   version="1.0"
   width="48"
   height="48"
   id="svg3786"
   xmlns:xlink="http://www.w3.org/1999/xlink"
   xmlns="http://www.w3.org/2000/svg"
   xmlns:svg="http://www.w3.org/2000/svg"
   xmlns:rdf="http://www.w3.org/1999/02/22-rdf-syntax-ns#"
   xmlns:cc="http://creativecommons.org/ns#"
   xmlns:dc="http://purl.org/dc/elements/1.1/">
  <metadata
     id="metadata82">
    <rdf:RDF>
      <cc:Work
         rdf:about="">
        <dc:format>image/svg+xml</dc:format>
        <dc:type
           rdf:resource="http://purl.org/dc/dcmitype/StillImage" />
        <dc:title />
      </cc:Work>
    </rdf:RDF>
  </metadata>
  <defs
     id="defs3788">
    <linearGradient
       id="linearGradient4231">
      <stop
         id="stop4233"
         style="stop-color:#ffffff;stop-opacity:1"
         offset="0" />
      <stop
         id="stop4235"
         style="stop-color:#ffffff;stop-opacity:0.23529412"
         offset="0.00818416" />
      <stop
         id="stop4237"
         style="stop-color:#ffffff;stop-opacity:0.15686275"
         offset="0.99223143" />
      <stop
         id="stop4239"
         style="stop-color:#ffffff;stop-opacity:0.39215687"
         offset="1" />
    </linearGradient>
    <linearGradient
       id="linearGradient4170">
      <stop
         id="stop4172"
         style="stop-color:#ffffff;stop-opacity:1"
         offset="0" />
      <stop
         id="stop4174"
         style="stop-color:#ffffff;stop-opacity:0.23529412"
         offset="0.02783963" />
      <stop
         id="stop4176"
         style="stop-color:#ffffff;stop-opacity:0.15686275"
         offset="0.99811679" />
      <stop
         id="stop4178"
         style="stop-color:#ffffff;stop-opacity:0.39215687"
         offset="1" />
    </linearGradient>
    <linearGradient
       id="linearGradient5060">
      <stop
         id="stop5062"
         style="stop-color:#000000;stop-opacity:1"
         offset="0" />
      <stop
         id="stop5064"
         style="stop-color:#000000;stop-opacity:0"
         offset="1" />
    </linearGradient>
    <linearGradient
       id="linearGradient5048">
      <stop
         id="stop5050"
         style="stop-color:#000000;stop-opacity:0"
         offset="0" />
      <stop
         id="stop5056"
         style="stop-color:#000000;stop-opacity:1"
         offset="0.5" />
      <stop
         id="stop5052"
         style="stop-color:#000000;stop-opacity:0"
         offset="1" />
    </linearGradient>
    <linearGradient
       id="linearGradient2215">
      <stop
         id="stop2223"
         style="stop-color:#7a7a7a;stop-opacity:1"
         offset="0" />
      <stop
         id="stop2219"
         style="stop-color:#474747;stop-opacity:1"
         offset="1" />
    </linearGradient>
    <linearGradient
       id="linearGradient7056">
      <stop
         id="stop7064"
         style="stop-color:#e6e6e6;stop-opacity:1"
         offset="0" />
      <stop
         id="stop7060"
         style="stop-color:#c8c8c8;stop-opacity:1"
         offset="1" />
    </linearGradient>
    <radialGradient
       cx="11.734284"
       cy="8.4900017"
       r="23.047892"
       fx="11.734284"
       fy="8.4900017"
       id="radialGradient2927"
       xlink:href="#linearGradient7056"
       gradientUnits="userSpaceOnUse"
       gradientTransform="matrix(1.3767077,0.69719425,-0.46810846,0.92434578,-0.04915651,-2.9386274)" />
    <linearGradient
       x1="29.9375"
       y1="41"
       x2="30"
       y2="49.999996"
       id="linearGradient2933"
       xlink:href="#linearGradient2215"
       gradientUnits="userSpaceOnUse"
       gradientTransform="matrix(1.0017502,0,0,0.7596403,-5.0508975,4.9363745)" />
    <radialGradient
       cx="605.71429"
       cy="486.64789"
       r="117.14286"
       fx="605.71429"
       fy="486.64789"
       id="radialGradient2936"
       xlink:href="#linearGradient5060"
       gradientUnits="userSpaceOnUse"
       gradientTransform="matrix(-0.04484747,0,0,0.02058824,32.61113,32.451372)" />
    <radialGradient
       cx="605.71429"
       cy="486.64789"
       r="117.14286"
       fx="605.71429"
       fy="486.64789"
       id="radialGradient2939"
       xlink:href="#linearGradient5060"
       gradientUnits="userSpaceOnUse"
       gradientTransform="matrix(0.04484747,0,0,0.02058824,15.38888,32.451372)" />
    <linearGradient
       x1="302.85715"
       y1="366.64789"
       x2="302.85715"
       y2="609.50507"
       id="linearGradient2942"
       xlink:href="#linearGradient5048"
       gradientUnits="userSpaceOnUse"
       gradientTransform="matrix(0.07635654,0,0,0.02058824,-3.5974283,32.451372)" />
    <linearGradient
       x1="34.947395"
       y1="50.909214"
       x2="34.947395"
       y2="53.83601"
       id="linearGradient3308"
       xlink:href="#linearGradient4231"
       gradientUnits="userSpaceOnUse"
       gradientTransform="matrix(0.84051728,0,0,1.0278991,14.415778,-14.334416)" />
    <linearGradient
       x1="23.99999"
       y1="6.2531767"
       x2="23.99999"
       y2="42.941334"
       id="linearGradient3311-4"
       xlink:href="#linearGradient4170"
       gradientUnits="userSpaceOnUse"
       gradientTransform="matrix(0.26232885,0,0,0.65751536,6.9297476,6.8105801)" />
    <radialGradient
       cx="141.74666"
       cy="206.42612"
       r="78.728165"
       fx="141.74666"
       fy="206.42612"
       id="radialGradient2923"
       xlink:href="#linearGradient4035"
       gradientUnits="userSpaceOnUse"
       gradientTransform="matrix(0.35160878,-0.0050244,0.00260227,0.28909275,-27.02434,-25.217538)" />
    <linearGradient
       id="linearGradient4035">
      <stop
         id="stop4037"
         style="stop-color:#f5f5f5;stop-opacity:1"
         offset="0" />
      <stop
         id="stop4039"
         style="stop-color:#e7e7e7;stop-opacity:1"
         offset="0.47025558" />
      <stop
         id="stop4041"
         style="stop-color:#8c8c8c;stop-opacity:1"
         offset="0.69348532" />
      <stop
         id="stop4043"
         style="stop-color:#dddddd;stop-opacity:1"
         offset="0.83542866" />
      <stop
         id="stop4045"
         style="stop-color:#a8a8a8;stop-opacity:1"
         offset="1" />
    </linearGradient>
    <radialGradient
       cx="142.62215"
       cy="191.85428"
       r="78.728165"
       fx="142.62215"
       fy="191.85428"
       id="radialGradient2920"
       xlink:href="#linearGradient7609"
       gradientUnits="userSpaceOnUse"
       gradientTransform="matrix(0.18495239,0,0,-0.13074306,-3.1111723,45.048436)" />
    <linearGradient
       id="linearGradient7609">
      <stop
         id="stop7611"
         style="stop-color:#ffffff;stop-opacity:1"
         offset="0" />
      <stop
         id="stop7677"
         style="stop-color:#e7e7e7;stop-opacity:1"
         offset="0.47025558" />
      <stop
         id="stop7613"
         style="stop-color:#8c8c8c;stop-opacity:1"
         offset="0.67183787" />
      <stop
         id="stop7617"
         style="stop-color:#dddddd;stop-opacity:1"
         offset="0.83542866" />
      <stop
         id="stop7615"
         style="stop-color:#a8a8a8;stop-opacity:1"
         offset="1" />
    </linearGradient>
    <radialGradient
       cx="113.0654"
       cy="97.587898"
       r="2.5631001"
       fx="113.667"
       fy="98"
       id="radialGradient2965"
       xlink:href="#radialGradient4241"
       gradientUnits="userSpaceOnUse"
       gradientTransform="matrix(-0.32948872,0,0,0.34974643,41.963041,0.4938254)" />
    <radialGradient
       cx="113.0654"
       cy="97.587898"
       r="2.5631001"
       fx="113.667"
       fy="98"
       id="radialGradient4241"
       gradientUnits="userSpaceOnUse">
      <stop
         id="stop4243"
         style="stop-color:#eeeeee;stop-opacity:1"
         offset="0" />
      <stop
         id="stop4245"
         style="stop-color:#cecece;stop-opacity:1"
         offset="0.16" />
      <stop
         id="stop4247"
         style="stop-color:#888888;stop-opacity:1"
         offset="0.4675" />
      <stop
         id="stop4249"
         style="stop-color:#555555;stop-opacity:1"
         offset="1" />
    </radialGradient>
    <radialGradient
       cx="113.0654"
       cy="97.587898"
       r="2.5631001"
       fx="113.667"
       fy="98"
       id="radialGradient2959"
       xlink:href="#radialGradient4241"
       gradientUnits="userSpaceOnUse"
       gradientTransform="matrix(0.22282769,-0.03752228,0.02509892,0.149051,-18.145918,0.5322802)" />
    <radialGradient
       cx="113.0654"
       cy="97.587898"
       r="2.5631001"
       fx="113.667"
       fy="98"
       id="radialGradient2953"
       xlink:href="#radialGradient4241"
       gradientUnits="userSpaceOnUse"
       gradientTransform="matrix(0.22333209,0.03439303,-0.02300572,0.14938839,14.791441,-7.631841)" />
    <linearGradient
       x1="7.0625"
       y1="35.28125"
       x2="24.6875"
       y2="35.28125"
       id="linearGradient2908"
       xlink:href="#linearGradient5060"
       gradientUnits="userSpaceOnUse"
       gradientTransform="matrix(1.0212766,0,0,0.89887639,0.78723995,7.7865135)" />
    <linearGradient
       x1="12.277412"
       y1="37.205811"
       x2="12.221823"
       y2="33.758667"
       id="linearGradient2905"
       xlink:href="#linearGradient4236"
       gradientUnits="userSpaceOnUse"
       gradientTransform="matrix(1.0212766,0,0,0.89887639,-0.02517836,8.9782627)" />
    <linearGradient
       id="linearGradient4236">
      <stop
         id="stop4238"
         style="stop-color:#eeeeee;stop-opacity:1"
         offset="0" />
      <stop
         id="stop4240"
         style="stop-color:#eeeeee;stop-opacity:0"
         offset="1" />
    </linearGradient>
    <radialGradient
       cx="127.31733"
       cy="143.82751"
       r="78.728165"
       fx="127.31733"
       fy="143.82751"
       id="radialGradient2902"
       xlink:href="#linearGradient4035"
       gradientUnits="userSpaceOnUse"
       gradientTransform="matrix(0.19054222,-0.02505584,0.00619351,0.10073457,-7.4371744,4.4286863)" />
    <radialGradient
       cx="113.0654"
       cy="97.587898"
       r="2.5631001"
       fx="113.667"
       fy="98"
       id="radialGradient2947"
       xlink:href="#radialGradient4241"
       gradientUnits="userSpaceOnUse"
       gradientTransform="matrix(0.32948872,0,0,0.34974643,6.0549235,0.4938254)" />
    <radialGradient
       cx="38"
       cy="69"
       r="20"
       fx="28.603323"
       fy="69"
       id="radialGradient6025"
       xlink:href="#linearGradient5060"
       gradientUnits="userSpaceOnUse"
       gradientTransform="matrix(1,0,0,0.30000006,15,34.332296)" />
    <linearGradient
       x1="28"
       y1="16"
       x2="26"
       y2="8"
       id="linearGradient5964"
       xlink:href="#linearGradient5958"
       gradientUnits="userSpaceOnUse"
       gradientTransform="translate(26.999999,14.0323)" />
    <linearGradient
       id="linearGradient5958">
      <stop
         id="stop5960"
         style="stop-color:#c17d11;stop-opacity:1"
         offset="0" />
      <stop
         id="stop5962"
         style="stop-color:#e9b96e;stop-opacity:1"
         offset="1" />
    </linearGradient>
    <linearGradient
       x1="30.324829"
       y1="9.2407961"
       x2="34"
       y2="18"
       id="linearGradient6002"
       xlink:href="#linearGradient5996"
       gradientUnits="userSpaceOnUse"
       gradientTransform="translate(26.999999,14.0323)" />
    <linearGradient
       id="linearGradient5996">
      <stop
         id="stop5998"
         style="stop-color:#8f5902;stop-opacity:1"
         offset="0" />
      <stop
         id="stop6000"
         style="stop-color:#73521e;stop-opacity:1"
         offset="1" />
    </linearGradient>
    <linearGradient
       x1="28"
       y1="8"
       x2="33.447109"
       y2="16.685888"
       id="linearGradient5994"
       xlink:href="#linearGradient5984"
       gradientUnits="userSpaceOnUse"
       gradientTransform="translate(26.999999,14.0323)" />
    <linearGradient
       id="linearGradient5984">
      <stop
         id="stop5986"
         style="stop-color:#ffffff;stop-opacity:1"
         offset="0" />
      <stop
         id="stop5988"
         style="stop-color:#ffffff;stop-opacity:0.13438736"
         offset="1" />
    </linearGradient>
    <linearGradient
       x1="20.933708"
       y1="25.060659"
       x2="30.208115"
       y2="30.742676"
       id="linearGradient5972"
       xlink:href="#linearGradient5966"
       gradientUnits="userSpaceOnUse"
       gradientTransform="translate(26.999999,14.0323)" />
    <linearGradient
       id="linearGradient5966">
      <stop
         id="stop5968"
         style="stop-color:#fdef72;stop-opacity:1"
         offset="0" />
      <stop
         id="stop5970"
         style="stop-color:#e2cb0b;stop-opacity:1"
         offset="1" />
    </linearGradient>
    <linearGradient
       x1="22.319767"
       y1="41.955986"
       x2="18.985712"
       y2="37.029255"
       id="linearGradient5973"
       xlink:href="#linearGradient5981"
       gradientUnits="userSpaceOnUse"
       gradientTransform="translate(26.999999,14.0323)" />
    <linearGradient
       id="linearGradient5981">
      <stop
         id="stop5983"
         style="stop-color:#ffffff;stop-opacity:1"
         offset="0" />
      <stop
         id="stop5985"
         style="stop-color:#ffffff;stop-opacity:0.69411767"
         offset="1" />
    </linearGradient>
    <linearGradient
       x1="27.354809"
       y1="36.218422"
       x2="23.489431"
       y2="34.728424"
       id="linearGradient6005"
       xlink:href="#linearGradient5999"
       gradientUnits="userSpaceOnUse"
       gradientTransform="translate(26.999999,14.0323)" />
    <linearGradient
       id="linearGradient5999">
      <stop
         id="stop6001"
         style="stop-color:#c4a000;stop-opacity:1"
         offset="0" />
      <stop
         id="stop6003"
         style="stop-color:#c4a000;stop-opacity:0"
         offset="1" />
    </linearGradient>
    <linearGradient
       x1="27.651777"
       y1="23.145937"
       x2="21.59099"
       y2="20.618719"
       id="linearGradient5980-761"
       xlink:href="#linearGradient5974-892"
       gradientUnits="userSpaceOnUse"
       gradientTransform="matrix(0.9768193,0,0,1,27.625336,14.0323)" />
    <linearGradient
       id="linearGradient5974-892">
      <stop
         id="stop2473"
         style="stop-color:#919191;stop-opacity:1"
         offset="0" />
      <stop
         id="stop2475"
         style="stop-color:#cecece;stop-opacity:1"
         offset="1" />
    </linearGradient>
  </defs>
  <g
     id="g1">
    <path
       d="M 46.55,36.601962 39.740367,10.827625 C 39.547814,10.093652 38.539167,9.497746 37.691201,9.497746 H 10.073983 c -1.30274,0 -2.049257,0.198573 -2.323959,1.329879 L 1.45,36.576866 Z"
       id="path6345"
       style="display:inline;overflow:visible;visibility:visible;fill:url(#radialGradient2927);fill-opacity:1;fill-rule:nonzero;stroke:none;stroke-width:0.995783;marker:none;enable-background:accumulate" />
    <rect
       width="36.869301"
       height="5"
       x="5.5653324"
       y="40"
       id="rect2723"
       style="display:inline;overflow:visible;visibility:visible;opacity:0.3;fill:url(#linearGradient2942);fill-opacity:1;fill-rule:nonzero;stroke:none;stroke-width:0.5;marker:none" />
    <path
       d="m 42.41667,40.000174 c 0,0 0,4.999723 0,4.999723 C 44.7262,45.009311 48,43.879712 48,42.499715 48,41.119718 45.42274,40.000174 42.41667,40.000174 Z"
       id="path2725"
       style="display:inline;overflow:visible;visibility:visible;opacity:0.3;fill:url(#radialGradient2939);fill-opacity:1;fill-rule:nonzero;stroke:none;stroke-width:0.5;marker:none" />
    <path
       d="m 5.58333,40.000174 c 0,0 0,4.999723 0,4.999723 C 3.2737899,45.009311 0,43.879712 0,42.499715 0,41.119718 2.5772699,40.000174 5.58333,40.000174 Z"
       id="path2727"
       style="display:inline;overflow:visible;visibility:visible;opacity:0.3;fill:url(#radialGradient2936);fill-opacity:1;fill-rule:nonzero;stroke:none;stroke-width:1;marker:none" />
    <path
       d="M 46.55,36.5 39.740367,10.824766 C 39.547814,10.093615 38.539167,9.4999999 37.691201,9.4999999 H 10.073983 c -1.30274,0 -2.049257,0.1978095 -2.323959,1.3247661 L 1.45,36.475001 Z"
       id="path6345-1"
       style="color:#000000;display:inline;overflow:visible;visibility:visible;opacity:0.35;fill:none;stroke:#000000;stroke-width:1;stroke-linecap:round;stroke-linejoin:round;stroke-miterlimit:4;stroke-dasharray:none;stroke-dashoffset:0;stroke-opacity:1;marker:none;enable-background:accumulate" />
    <path
       d="m 10.0625,10.46875 c -0.6058109,0 -0.9673014,0.09427 -1.09375,0.15625 -0.1264486,0.06198 -0.1572339,0.02421 -0.25,0.40625 l -6.03125,24.5625 42.625,0.03125 -6.5,-24.5625 c -0.0041,-0.01553 -0.138916,-0.199012 -0.375,-0.34375 -0.236084,-0.144738 -0.549495,-0.25 -0.75,-0.25 z"
       id="path4129"
       style="color:#000000;display:inline;overflow:visible;visibility:visible;opacity:0.8;fill:none;stroke:url(#linearGradient3311-4);stroke-width:1.00312;stroke-linecap:round;stroke-linejoin:round;stroke-miterlimit:4;stroke-dasharray:none;stroke-dashoffset:0;stroke-opacity:1;marker:none;enable-background:accumulate"
       transform="matrix(1,0,0,0.99378882,0,0.09627324)" />
    <path
       d="M 1.4638537,36.464001 H 46.535854 l -0.901202,6.072 H 2.4652334 Z"
       id="rect6431"
       style="display:inline;fill:url(#linearGradient2933);fill-opacity:1;fill-rule:evenodd;stroke:none;enable-background:new" />
    <path
       d="M 1.4638537,36.5 H 46.535854 l -0.901202,6 H 2.4652335 Z"
       id="rect6431-3"
       style="color:#000000;display:inline;overflow:visible;visibility:visible;opacity:0.5;fill:none;stroke:#000000;stroke-width:1;stroke-linecap:butt;stroke-linejoin:round;stroke-miterlimit:4;stroke-dasharray:none;stroke-dashoffset:0;stroke-opacity:1;marker:none;enable-background:accumulate" />
    <path
       d="m 3.3117397,41.499995 41.4657843,3e-6 c 0.108461,-0.399966 0.576759,-4 0.576759,-4 H 2.654475 c 0,0 0.4981314,2.982569 0.6572647,3.999997 z"
       id="path4497"
       style="color:#000000;display:inline;overflow:visible;visibility:visible;opacity:0.2;fill:none;stroke:url(#linearGradient3308);stroke-width:1;stroke-linecap:round;stroke-linejoin:miter;stroke-miterlimit:4;stroke-dasharray:none;stroke-dashoffset:0;stroke-opacity:1;marker:none;enable-background:accumulate" />
    <path
       d="m 40.971397,25.373814 c -0.21768,-1.997975 -1.676509,-3.903122 -4.1004,-5.406472 C 36.822237,19.38948 36.200942,11.997153 36.200942,11.997153 36.153322,11.428888 35.429193,11 34.515926,11 h -5.731268 c -0.919834,0 -1.630882,0.434524 -1.654073,1.010704 -0.10517,2.603206 -3.312025,3.962376 -8.095624,5.198802 -1.67612,0.29034 -6.046005,1.655156 -7.048964,2.254183 -2.9524377,1.573605 -4.7132263,3.67147 -4.9572037,5.910125 -0.2219397,2.036069 0.8448261,4.073551 3.0038657,5.737168 C 13.192718,33.546027 18.414005,35 23.999896,35 29.585796,35 34.807072,33.546027 37.967531,31.110982 39.939434,29.591833 41,27.760327 41,25.903156 41,25.726796 40.98969,25.550164 40.97134,25.373814 Z M 23.999896,33.99015 c -9.303498,0 -16.427483,-4.080325 -15.9120785,-8.810179 0.222328,-2.039173 1.8543618,-4.216036 4.5570215,-5.650539 0.506122,-0.381482 5.077073,-1.865367 6.716838,-2.126086 4.544655,-1.17209 8.700731,-2.693216 8.831026,-5.89884 0.0057,-0.153501 0.267557,-0.275107 0.591955,-0.275107 h 5.730502 c 0.33174,0 0.611698,0.127531 0.62484,0.284984 l 0.695941,8.281974 c 2.408816,1.395843 3.86841,3.479309 4.075655,5.383614 0.515781,4.729854 -6.608191,8.810179 -15.9117,8.810179 z"
       id="path9001"
       style="fill:url(#radialGradient2923);fill-opacity:1" />
    <path
       d="M 23.999769,28 C 20.634805,28 18.055218,26.732885 18.000846,25.052175 18.000418,25.034005 18,25.016135 18,24.998275 c 0,-0.608175 0.338098,-1.186584 0.980563,-1.676322 1.086804,-0.827824 2.963209,-1.321951 5.019622,-1.321951 2.055997,0 3.932391,0.494127 5.019195,1.321951 0.661441,0.503521 1.000395,1.101987 0.979728,1.729907 -0.05524,1.68071 -2.634804,2.948137 -5.999339,2.948137 z m 0,-5.059679 c -3.161777,0 -4.77259,1.255831 -4.734647,2.402312 0.03667,1.128624 2.156333,2.030394 4.734647,2.030394 2.578314,0 4.697955,-0.902088 4.734637,-2.030394 0.03749,-1.146798 -1.572872,-2.402312 -4.734637,-2.402312 z"
       id="path9003"
       style="display:inline;overflow:visible;visibility:visible;fill:url(#radialGradient2920);fill-opacity:1;fill-rule:nonzero;stroke-width:1;stroke-linecap:butt;stroke-linejoin:miter;stroke-miterlimit:4;stroke-dasharray:none;stroke-dashoffset:0;stroke-opacity:1;marker:none;enable-background:accumulate" />
    <path
       d="M 6.0158229,34.619284 C 5.9743059,35.214553 5.3525618,35.7 4.6276859,35.7 c -0.7245458,0 -1.2731445,-0.485447 -1.2247097,-1.080716 0.048106,-0.592121 0.6695217,-1.070225 1.3871481,-1.070225 0.7179564,2.81e-4 1.2665551,0.478104 1.2256986,1.070225 z"
       id="path9007"
       style="fill:#e1e1e1;fill-opacity:1" />
    <path
       d="m 5.5469595,34.200637 c 0.066228,0.07554 0.1420102,0.196558 0.1420102,0.357441 0,0.01155 -6.602e-4,0.02308 -0.00132,0.03533 -0.028667,0.410252 -0.5140028,0.756851 -1.0596361,0.756851 -0.3107079,0 -0.5947269,-0.113668 -0.7594717,-0.304629 -0.070839,-0.08149 -0.1515649,-0.216493 -0.1370672,-0.396263 0.033278,-0.406755 0.5179556,-0.750556 1.0589773,-0.750556 0.3084014,2.8e-4 0.5914315,0.112968 0.7565052,0.301831 h 2.6e-6 z"
       id="path9009"
       style="fill:url(#radialGradient2965);fill-opacity:1" />
    <path
       d="m 8.6135352,10.981804 c 0.070795,0.248957 0.526108,0.385035 1.0163294,0.302486 0.4899984,-0.08251 0.8261694,-0.351869 0.7506954,-0.600038 -0.07503,-0.246865 -0.5295895,-0.379851 -1.0149081,-0.298127 -0.4855218,0.08188 -0.8222397,0.347988 -0.7521167,0.595679 z"
       id="path9019"
       style="fill:#f0f0f0;fill-opacity:1" />
    <path
       d="m 8.9005762,10.749996 c -0.039367,0.03974 -0.081933,0.09994 -0.070388,0.168502 8.287e-4,0.0049 0.0021,0.0098 0.00343,0.0149 0.048828,0.171572 0.4019255,0.264011 0.7709282,0.201874 0.2101265,-0.03538 0.3940466,-0.116169 0.4917566,-0.216312 0.04206,-0.0428 0.08696,-0.109523 0.06426,-0.184484 -0.0517,-0.169557 -0.4041467,-0.260879 -0.7700306,-0.199267 -0.2085465,0.03524 -0.3918682,0.115496 -0.4899513,0.214782 l -1.8e-6,1e-6 z"
       id="path9021"
       style="fill:url(#radialGradient2959);fill-opacity:1" />
    <path
       d="m 36.912257,10.696563 c -0.01101,0.258593 0.37848,0.530843 0.869811,0.606508 0.491108,0.07563 0.894887,-0.07446 0.901213,-0.333771 0.0063,-0.257936 -0.383413,-0.527015 -0.869831,-0.601923 -0.486659,-0.07482 -0.889937,0.07201 -0.901193,0.329186 z"
       id="path9025"
       style="fill:#e1e1e1;fill-opacity:1" />
    <path
       d="m 37.257597,10.566686 c -0.04986,0.02535 -0.109185,0.06913 -0.119768,0.137852 -7.6e-4,0.0049 -0.0011,0.0099 -0.0014,0.01523 -0.0076,0.178225 0.298614,0.37693 0.668452,0.433884 0.210602,0.03243 0.410591,0.01353 0.534819,-0.05084 0.05338,-0.02741 0.116973,-0.07665 0.118971,-0.15495 0.0042,-0.177212 -0.301707,-0.374653 -0.668419,-0.431126 -0.209057,-0.03207 -0.408312,-0.01348 -0.532624,0.04996 l -2e-6,-1e-6 z"
       id="path9027"
       style="fill:url(#radialGradient2953);fill-opacity:1" />
    <path
       d="M 7.5000002,36.999999 H 26.000009 V 42 H 8.0000091 Z"
       id="rect8993"
       style="display:inline;overflow:visible;visibility:visible;fill:url(#linearGradient2908);fill-opacity:1;fill-rule:evenodd;stroke:none;stroke-width:2.409;marker:none" />
    <path
       d="m 8.0000077,41.999996 c 0,0 -0.4000075,-3.605827 -0.4000075,-3.605827 1.8745811,2.857731 8.8730188,3.605827 13.6127708,3.605827 z"
       id="path8995"
       style="opacity:0.811429;fill:url(#linearGradient2905);fill-opacity:1;fill-rule:evenodd;stroke:none" />
    <path
       d="M 10.906579,11 10.803305,11.381009 9.2615551,17.051898 9,18 9.7639975,17.796205 22.758771,14.2519 l 0.04127,-0.01771 0.03442,-0.01771 c 0.688135,-0.354354 1.05583,-1.07045 1.142548,-1.727849 0.0434,-0.328702 0.03039,-0.650575 -0.08254,-0.948099 -0.106642,-0.280876 -0.384276,-0.530777 -0.674516,-0.522787 v -0.01771 h -0.04821 -11.955461 -0.30973 l 3.3e-5,10e-7 z m 0.439836,0.350376 h 11.976544 c 0.0056,0.04787 0.01906,0.07443 0.0067,0.165 -0.03757,0.285021 -0.199195,1.304699 -0.605242,1.527141 l -12.596058,3.437485 1.217592,-5.129624 h 3.91e-4 z"
       id="path9039"
       style="display:inline;overflow:visible;visibility:visible;fill:url(#radialGradient2902);fill-opacity:1;fill-rule:nonzero;stroke:none;stroke-width:1;marker:none;enable-background:accumulate" />
    <path
       d="M 42.002142,34.619284 C 42.043662,35.214553 42.665403,35.7 43.390279,35.7 c 0.724546,0 1.273145,-0.485447 1.22471,-1.080716 -0.04811,-0.592121 -0.669522,-1.070225 -1.387148,-1.070225 -0.717957,2.81e-4 -1.266555,0.478104 -1.225699,1.070225 z"
       id="path9091"
       style="fill:#e1e1e1;fill-opacity:1" />
    <path
       d="m 42.471006,34.200637 c -0.06623,0.07554 -0.142011,0.196558 -0.142011,0.357441 0,0.01155 6.6e-4,0.02308 0.0013,0.03533 0.02867,0.410252 0.514002,0.756851 1.059636,0.756851 0.310708,0 0.594727,-0.113668 0.759471,-0.304629 0.07084,-0.08149 0.151565,-0.216493 0.137068,-0.396263 -0.03328,-0.406755 -0.517956,-0.750556 -1.058978,-0.750556 -0.308401,2.8e-4 -0.591431,0.112968 -0.756505,0.301831 h -2e-6 z"
       id="path9093"
       style="fill:url(#radialGradient2947);fill-opacity:1" />
    <path
       style="opacity:0.05;fill:none;stroke:#ffffff;stroke-width:1px;stroke-linecap:butt;stroke-linejoin:miter;stroke-opacity:1"
       d="m 7.1101004,38.038018 0.2591714,2.913255"
       id="path1032" />
  </g>
  <g
     id="g2"
     transform="matrix(-0.95783623,0,0,0.94026784,65.209246,-11.264284)">
    <path
       style="display:none;opacity:0.25;fill:url(#radialGradient6025);fill-opacity:1;stroke:none;stroke-width:0.816497"
       id="path6017"
       d="m 73,55.0323 a 20,6.0000012 0 1 1 -40,0 20,6.0000012 0 1 1 40,0 z" />
    <path
       style="fill:url(#linearGradient5964);fill-opacity:1;fill-rule:evenodd;stroke:url(#linearGradient6002);stroke-width:0.526864;stroke-linecap:butt;stroke-linejoin:miter;stroke-dasharray:none;stroke-opacity:1"
       id="path5371"
       d="m 63.593749,16.50105 c -8.203217,0.10565 -9.3968,16.247526 -11.75,19.15625 l 4,1.4375 c 2.631873,-4.372547 15.755996,-18.907997 8.5625,-20.5625 -0.27949,-0.03097 -0.54788,-0.03466 -0.8125,-0.03125 z m -1.03125,2.0625 c 0.193563,-0.01874 0.367986,0.0057 0.53125,0.09375 0.653056,0.352123 0.723655,1.494877 0.15625,2.53125 -0.567405,1.036373 -1.565696,1.602122 -2.21875,1.25 -0.653053,-0.352123 -0.723655,-1.494877 -0.15625,-2.53125 0.425554,-0.77728 1.106812,-1.287534 1.6875,-1.34375 z" />
    <path
       style="opacity:0.266667;fill:none;stroke:url(#linearGradient5994);stroke-width:0.80985;stroke-linecap:butt;stroke-linejoin:miter;stroke-dasharray:none;stroke-opacity:1"
       id="path5992"
       d="m 63.593749,17.50105 c -1.721618,0.02217 -3.007925,0.855874 -4.1875,2.28125 -1.179575,1.425376 -2.148334,3.441635 -2.9375,5.59375 -0.789166,2.152115 -1.42404,4.43427 -2,6.375 -0.399891,1.347456 -0.769857,2.406448 -1.21875,3.34375 l 2.1875,0.78125 c 1.618594,-2.495624 5.038798,-6.591178 7.53125,-10.625 1.325839,-2.145757 2.2837,-4.178041 2.5,-5.5625 0.10815,-0.692229 0.04507,-1.172929 -0.125,-1.46875 -0.164691,-0.286469 -0.463476,-0.524586 -1.125,-0.6875 -0.199495,-0.01878 -0.400833,-0.03414 -0.625,-0.03125 z" />
    <path
       style="fill:url(#linearGradient5972);fill-opacity:1;fill-rule:evenodd;stroke:none;stroke-width:1;stroke-linecap:butt;stroke-linejoin:miter;stroke-miterlimit:20;stroke-dasharray:none;stroke-opacity:1"
       id="path5367"
       d="m 49.499999,30.5323 c 0.709506,2.003007 -0.541388,3.737831 -1,5 -5.191567,1.545674 -8.786801,9.703726 -14.132583,13.953585 0.667788,0.697398 1.452227,1.444178 2.132583,2.046415 l 4.0625,-3.53125 -3.067556,4.524649 c 2.209237,1.790983 4.505056,3.006601 6.005056,3.506601 l 2.75,-3.65625 -1.75,4.15625 c 1.451994,0.588882 4.985286,1.482025 7,1.5 l 2.00389,-3.402497 -0.513169,3.464997 c 0.829563,0.158359 2.438165,0.374216 3.509279,0.40625 3.362186,-5.5 4,-14.46875 2,-18.46875 -0.5,-2 1.5,-4.5 3,-5.5 -2.5,-2 -8.205589,-4.303726 -12,-4 z" />
    <path
       style="opacity:0.5;fill:none;fill-opacity:1;fill-rule:evenodd;stroke:#ad5f00;stroke-width:1;stroke-linecap:butt;stroke-linejoin:miter;stroke-miterlimit:20;stroke-dasharray:none;stroke-opacity:1"
       id="path5367-6"
       d="m 49.499999,30.5323 c 0.709506,2.003007 -0.541388,3.737831 -1,5 -5.191567,1.545674 -8.786801,9.703726 -14.132583,13.953585 0.667788,0.697398 1.452227,1.444178 2.132583,2.046415 l 4.0625,-3.53125 -3.067556,4.524649 c 2.209237,1.790983 4.505056,3.006601 6.005056,3.506601 l 2.75,-3.65625 -1.75,4.15625 c 1.451994,0.588882 4.985286,1.482025 7,1.5 l 2.00389,-3.402497 -0.513169,3.464997 c 0.829563,0.158359 2.438165,0.374216 3.509279,0.40625 3.362186,-5.5 4,-14.46875 2,-18.46875 -0.5,-2 1.5,-4.5 3,-5.5 -2.5,-2 -8.205589,-4.303726 -12,-4 z" />
    <path
       style="opacity:0.266667;fill:#c4a000;fill-rule:evenodd;stroke:none"
       id="path5975"
       d="M 37.999999,52.5323 C 42.816494,47.521405 42.465022,45.328374 48.116116,41.004572 45.133674,45.833003 44.650277,48.34463 40.999999,54.5323 Z" />
    <path
       style="opacity:0.415686;fill:#c4a000;fill-rule:evenodd;stroke:none"
       id="path5979"
       d="m 45.149807,56.234752 4.346027,-9.840147 c 1.664513,-2.983727 2.859672,-5.970052 4.528973,-8.347353 -1.601954,5.418037 -4.89069,12.121793 -7.53125,18.625 z" />
    <path
       style="opacity:0.478431;fill:none;stroke:url(#linearGradient5973);stroke-width:0.526864;stroke-linecap:butt;stroke-linejoin:miter;stroke-dasharray:none;stroke-opacity:1"
       id="path6014"
       d="m 50.624999,31.5323 c 0.09674,1.915146 -0.922943,3.529645 -1.21875,4.34375 -0.104103,0.284709 -0.33533,0.504374 -0.625,0.59375 -5.453398,2.234644 -7.629803,8.574038 -12.994638,13.086167 0.201642,0.199854 0.49203,0.417304 0.694529,0.608231 l 9.018859,-7.631898 -6.576615,9.810313 c 1.270033,1.027613 2.722201,1.884544 4.226656,2.489165 L 50.144393,45.5323 45.8695,55.943912 c 1.595569,0.525657 3.098303,0.827296 4.945009,1.088388 l 4.61873,-7.6875 -1.37074,7.906817 1.875,0.225995 c 1.433213,-2.535494 2.132382,-5.66653 2.53125,-8.789062 0.423945,-3.318846 -0.005,-6.541178 -0.84375,-8.21875 -0.02716,-0.06021 -0.0481,-0.123035 -0.0625,-0.1875 -0.346858,-1.387431 0.169142,-2.745627 0.875,-3.875 0.426893,-0.683029 0.930372,-1.290779 1.464959,-1.801777 -1.171482,-0.782691 -2.586697,-1.460066 -4.371209,-2.104473 -1.762077,-0.636306 -3.497998,-0.950025 -4.90625,-0.96875 z" />
    <path
       style="opacity:0.247059;fill:url(#linearGradient6005);fill-opacity:1;fill-rule:evenodd;stroke:none"
       id="path5977"
       d="m 47.968749,57.0323 c 2.177566,-5.751871 6.395916,-10.068943 8.016913,-15.935412 0.05154,3.662073 0.24972,10.203726 -1.891913,16.716662 -0.319766,0.0018 -0.173927,-0.110809 -0.46988,-0.118553 l 0.800792,-5.724517 -3.281486,5.554384 c -2.190808,-0.156324 -1.294611,0.0326 -3.174426,-0.492564 z" />
    <path
       style="opacity:0.482353;fill:#c4a000;fill-rule:evenodd;stroke:none"
       id="path5995"
       d="m 50.003066,36.642747 c -1.251995,0.616379 -2.062209,1.527278 -2.983106,2.364388 1.226487,-0.708643 2.378986,-1.448994 3.999573,-1.988738 z" />
    <path
       style="opacity:0.482353;fill:#c4a000;fill-rule:evenodd;stroke:none"
       id="path5997"
       d="m 52.008697,37.093349 -1.016465,1.988738 2.980713,-1.58825 z" />
    <path
       style="opacity:0.482353;fill:#c4a000;fill-rule:evenodd;stroke:none"
       id="path6007"
       d="m 51.939804,31.993699 -0.895193,1.707022 1.565727,0.502084 z" />
    <path
       style="opacity:0.482353;fill:#c4a000;fill-rule:evenodd;stroke:none"
       id="path6009"
       d="m 58.923253,33.91767 -2.460248,1.835447 1.565727,0.502084 z" />
    <path
       style="opacity:0.482353;fill:#c4a000;fill-rule:evenodd;stroke:none"
       id="path6011"
       d="m 55.012924,31.970866 -1.513911,2.524614 1.565727,0.502084 -0.05182,-3.026698 z" />
    <path
       style="opacity:0.2;fill:#000000;fill-opacity:1;fill-rule:evenodd;stroke:none"
       id="path6013"
       d="m 47.967725,36.056999 c -0.56678,-2.965484 9.332835,2.152903 11.036822,2.994369 -0.0065,1.079068 0,2 -0.976819,2 -2.567538,-1.39298 -6.535255,-3.605143 -10.060003,-4.994369 z" />
    <path
       style="fill:url(#linearGradient5980-761);fill-opacity:1;fill-rule:evenodd;stroke:#464646;stroke-width:0.526864;stroke-linecap:butt;stroke-linejoin:round;stroke-dasharray:none;stroke-opacity:1"
       id="path5373"
       d="m 47.650132,35.5323 c -0.48841,-1 0,-2 0.97682,-2 3.99144,0.975417 7.324875,2.206232 10.745012,4 0.48841,1 0,2 -0.976819,2 -3.533943,-1.86442 -6.866711,-3.074813 -10.745013,-4 z" />
  </g>
</svg>
