<?xml version="1.0" encoding="UTF-8" standalone="no"?>
<svg
   version="1.1"
   width="48"
   height="48"
   id="svg4369"
   sodipodi:docname="clonezilla.svg"
   inkscape:version="1.4.2 (ebf0e94, 2025-05-08)"
   xmlns:inkscape="http://www.inkscape.org/namespaces/inkscape"
   xmlns:sodipodi="http://sodipodi.sourceforge.net/DTD/sodipodi-0.dtd"
   xmlns:xlink="http://www.w3.org/1999/xlink"
   xmlns="http://www.w3.org/2000/svg"
   xmlns:svg="http://www.w3.org/2000/svg"
   xmlns:rdf="http://www.w3.org/1999/02/22-rdf-syntax-ns#"
   xmlns:cc="http://creativecommons.org/ns#"
   xmlns:dc="http://purl.org/dc/elements/1.1/">
  <sodipodi:namedview
     id="namedview2828"
     pagecolor="#ffffff"
     bordercolor="#000000"
     borderopacity="0.25"
     inkscape:showpageshadow="2"
     inkscape:pageopacity="0.0"
     inkscape:pagecheckerboard="0"
     inkscape:deskcolor="#d1d1d1"
     showgrid="false"
     inkscape:zoom="12.418563"
     inkscape:cx="22.989777"
     inkscape:cy="28.545976"
     inkscape:window-width="2560"
     inkscape:window-height="1369"
     inkscape:window-x="-8"
     inkscape:window-y="-8"
     inkscape:window-maximized="1"
     inkscape:current-layer="svg4369" />
  <defs
     id="defs4371">
    <linearGradient
       inkscape:collect="always"
       id="linearGradient6519">
      <stop
         style="stop-color:#ce5d36;stop-opacity:1;"
         offset="0.00037877"
         id="stop6515" />
      <stop
         style="stop-color:#f19860;stop-opacity:1;"
         offset="0.45079273"
         id="stop6521" />
      <stop
         style="stop-color:#f9c590;stop-opacity:1;"
         offset="1"
         id="stop6517" />
    </linearGradient>
    <linearGradient
       x1="23.99999"
       y1="4.999989"
       x2="23.99999"
       y2="43"
       id="linearGradient3497"
       xlink:href="#linearGradient3924-4"
       gradientUnits="userSpaceOnUse"
       gradientTransform="translate(2.4e-6,1.0000093)" />
    <linearGradient
       id="linearGradient3924-4">
      <stop
         id="stop3926-8"
         style="stop-color:#ffffff;stop-opacity:1"
         offset="0" />
      <stop
         id="stop3928-6"
         style="stop-color:#ffffff;stop-opacity:0.23529412"
         offset="0.06316455" />
      <stop
         id="stop3930-4"
         style="stop-color:#ffffff;stop-opacity:0.15686275"
         offset="0.95056331" />
      <stop
         id="stop3932-4"
         style="stop-color:#ffffff;stop-opacity:0.39215687"
         offset="1" />
    </linearGradient>
    <radialGradient
       cx="7.8060555"
       cy="9.9571075"
       r="12.671875"
       fx="7.2758255"
       fy="9.9571075"
       id="radialGradient3351-4"
       xlink:href="#linearGradient5344-867-2"
       gradientUnits="userSpaceOnUse"
       gradientTransform="matrix(-1.6167311e-7,4.3521892,-8.0922115,-1.30641e-7,102.55944,-28.402526)" />
    <linearGradient
       id="linearGradient5344-867-2">
      <stop
         id="stop5559-5"
         style="stop-color:#f9c590;stop-opacity:1"
         offset="0" />
      <stop
         id="stop5561-3"
         style="stop-color:#f19860;stop-opacity:1"
         offset="0.39698008" />
      <stop
         id="stop5563-5"
         style="stop-color:#ce5d36;stop-opacity:1"
         offset="1" />
    </linearGradient>
    <linearGradient
       x1="10.72043"
       y1="49.805172"
       x2="10.72043"
       y2="-7.1722598"
       id="linearGradient3353-8"
       xlink:href="#linearGradient4288"
       gradientUnits="userSpaceOnUse"
       gradientTransform="matrix(1,0,0,0.6592363,-2.0048496,11.199437)" />
    <linearGradient
       id="linearGradient4288">
      <stop
         id="stop4290"
         style="stop-color:#b95b20;stop-opacity:1"
         offset="0" />
      <stop
         id="stop4292"
         style="stop-color:#ed8137;stop-opacity:1"
         offset="1" />
    </linearGradient>
    <linearGradient
       x1="22.004084"
       y1="63.217903"
       x2="22.004084"
       y2="25.646791"
       id="linearGradient3357"
       xlink:href="#linearGradient3104-5-6"
       gradientUnits="userSpaceOnUse"
       gradientTransform="matrix(1.3394176,0,0,-1.9826305,-5.3543326,103.86293)" />
    <linearGradient
       id="linearGradient3104-5-6">
      <stop
         id="stop3106-9-1"
         style="stop-color:#aaaaaa;stop-opacity:1"
         offset="0" />
      <stop
         id="stop3108-9"
         style="stop-color:#c8c8c8;stop-opacity:1"
         offset="1" />
    </linearGradient>
    <linearGradient
       x1="23.99999"
       y1="4.999989"
       x2="23.99999"
       y2="43"
       id="linearGradient3084"
       xlink:href="#linearGradient3924"
       gradientUnits="userSpaceOnUse"
       gradientTransform="translate(2.4e-6,1.0000095)" />
    <linearGradient
       id="linearGradient3924">
      <stop
         id="stop3926"
         style="stop-color:#ffffff;stop-opacity:1"
         offset="0" />
      <stop
         id="stop3928"
         style="stop-color:#ffffff;stop-opacity:0.23529412"
         offset="0.06316455" />
      <stop
         id="stop3930"
         style="stop-color:#ffffff;stop-opacity:0.15686275"
         offset="0.95056331" />
      <stop
         id="stop3932"
         style="stop-color:#ffffff;stop-opacity:0.39215687"
         offset="1" />
    </linearGradient>
    <radialGradient
       cx="7.4956832"
       cy="8.4497671"
       r="19.99999"
       fx="7.4956832"
       fy="8.4497671"
       id="radialGradient3093"
       xlink:href="#linearGradient3600"
       gradientUnits="userSpaceOnUse"
       gradientTransform="matrix(0,1.9392804,-2.0515274,-5.2784231e-8,41.335037,-8.4536942)" />
    <linearGradient
       id="linearGradient3600">
      <stop
         id="stop3602"
         style="stop-color:#f4f4f4;stop-opacity:1"
         offset="0" />
      <stop
         id="stop3604"
         style="stop-color:#dbdbdb;stop-opacity:1"
         offset="1" />
    </linearGradient>
    <linearGradient
       x1="24"
       y1="44"
       x2="24"
       y2="3.8990016"
       id="linearGradient3095"
       xlink:href="#linearGradient3104"
       gradientUnits="userSpaceOnUse"
       gradientTransform="translate(-6e-7,0.99999953)" />
    <linearGradient
       id="linearGradient3104">
      <stop
         id="stop3106"
         style="stop-color:#aaaaaa;stop-opacity:1"
         offset="0" />
      <stop
         id="stop3108"
         style="stop-color:#c8c8c8;stop-opacity:1"
         offset="1" />
    </linearGradient>
    <linearGradient
       x1="20"
       y1="43"
       x2="20"
       y2="3"
       id="linearGradient3098"
       xlink:href="#linearGradient3104-5"
       gradientUnits="userSpaceOnUse"
       gradientTransform="translate(0,0.03256083)" />
    <linearGradient
       id="linearGradient3104-5">
      <stop
         id="stop3106-9"
         style="stop-color:#aaaaaa;stop-opacity:1"
         offset="0" />
      <stop
         id="stop3108-8"
         style="stop-color:#c8c8c8;stop-opacity:1"
         offset="1" />
    </linearGradient>
    <radialGradient
       cx="4.9929786"
       cy="43.5"
       r="2.5"
       fx="4.9929786"
       fy="43.5"
       id="radialGradient2873-966-168"
       xlink:href="#linearGradient3688-166-749"
       gradientUnits="userSpaceOnUse"
       gradientTransform="matrix(2.003784,0,0,1.4,27.98813,-17.4)" />
    <linearGradient
       id="linearGradient3688-166-749">
      <stop
         id="stop2883"
         style="stop-color:#181818;stop-opacity:1"
         offset="0" />
      <stop
         id="stop2885"
         style="stop-color:#181818;stop-opacity:0"
         offset="1" />
    </linearGradient>
    <radialGradient
       cx="4.9929786"
       cy="43.5"
       r="2.5"
       fx="4.9929786"
       fy="43.5"
       id="radialGradient2875-742-326"
       xlink:href="#linearGradient3688-464-309"
       gradientUnits="userSpaceOnUse"
       gradientTransform="matrix(2.003784,0,0,1.4,-20.01187,-104.4)" />
    <linearGradient
       id="linearGradient3688-464-309">
      <stop
         id="stop2889"
         style="stop-color:#181818;stop-opacity:1"
         offset="0" />
      <stop
         id="stop2891"
         style="stop-color:#181818;stop-opacity:0"
         offset="1" />
    </linearGradient>
    <linearGradient
       x1="25.058096"
       y1="47.027729"
       x2="25.058096"
       y2="39.999443"
       id="linearGradient2877-634-617"
       xlink:href="#linearGradient3702-501-757"
       gradientUnits="userSpaceOnUse" />
    <linearGradient
       id="linearGradient3702-501-757">
      <stop
         id="stop2895"
         style="stop-color:#181818;stop-opacity:0"
         offset="0" />
      <stop
         id="stop2897"
         style="stop-color:#181818;stop-opacity:1"
         offset="0.5" />
      <stop
         id="stop2899"
         style="stop-color:#181818;stop-opacity:0"
         offset="1" />
    </linearGradient>
    <linearGradient
       inkscape:collect="always"
       xlink:href="#linearGradient6519"
       id="linearGradient6430"
       x1="4.4138923"
       y1="22.5"
       x2="41.783344"
       y2="22.5"
       gradientUnits="userSpaceOnUse"
       gradientTransform="matrix(0,-0.88781636,0.88781636,0,5.2898928,45.50733)" />
  </defs>
  <metadata
     id="metadata4374">
    <rdf:RDF>
      <cc:Work
         rdf:about="">
        <dc:format>image/svg+xml</dc:format>
        <dc:type
           rdf:resource="http://purl.org/dc/dcmitype/StillImage" />
      </cc:Work>
    </rdf:RDF>
  </metadata>
  <g
     transform="matrix(1.1,0,0,0.4444449,-2.4000022,25.143631)"
     id="g2036"
     style="display:inline">
    <g
       transform="matrix(1.052632,0,0,1.285713,-1.263158,-13.42854)"
       id="g3712"
       style="opacity:0.4">
      <rect
         width="5"
         height="7"
         x="38"
         y="40"
         id="rect2801"
         style="fill:url(#radialGradient2873-966-168);fill-opacity:1;stroke:none" />
      <rect
         width="5"
         height="7"
         x="-10"
         y="-47"
         transform="scale(-1)"
         id="rect3696"
         style="fill:url(#radialGradient2875-742-326);fill-opacity:1;stroke:none" />
      <rect
         width="28"
         height="7.0000005"
         x="10"
         y="40"
         id="rect3700"
         style="fill:url(#linearGradient2877-634-617);fill-opacity:1;stroke:none" />
    </g>
  </g>
  <path
     d="m 22.96875,8.2200606 a 2.9359229,2.9359229 0 0 0 -1.40625,0.40625 L 10.53125,15.001311 a 2.9359229,2.9359229 0 0 0 -1.40625,2.03125 2.9359229,2.9359229 0 0 0 -0.03125,0 2.9359229,2.9359229 0 0 0 -0.96875,2.1875 l -0.0625,12.71875 a 2.9359229,2.9359229 0 0 0 1,2.1875 2.9359229,2.9359229 0 0 0 0,0.03125 2.9359229,2.9359229 0 0 0 1.4375,2.09375 l 11,6.3125 a 2.9359229,2.9359229 0 0 0 2.40625,0.21875 2.9359229,2.9359229 0 0 0 0.03125,0 2.9359229,2.9359229 0 0 0 2.5,-0.1875 l 11,-6.34375 a 2.9359229,2.9359229 0 0 0 1.40625,-2 2.9359229,2.9359229 0 0 0 1.09375,-2.25 v -12.71875 a 2.9359229,2.9359229 0 0 0 -1,-2.1875 A 2.9359229,2.9359229 0 0 0 37.5,15.001311 L 26.46875,8.6575606 a 2.9359229,2.9359229 0 0 0 -2.40625,-0.25 2.9359229,2.9359229 0 0 0 -1.09375,-0.1875 z"
     id="path4564-0"
     style="color:#000000;display:inline;overflow:visible;visibility:visible;opacity:0.05;fill:url(#linearGradient3098);fill-opacity:1;fill-rule:nonzero;stroke:none;stroke-width:1;marker:none;enable-background:accumulate" />
  <rect
     width="39"
     height="39"
     rx="2"
     ry="2"
     x="4.5"
     y="5.5"
     id="rect5505-21"
     style="color:#000000;display:inline;overflow:visible;visibility:visible;fill:url(#radialGradient3093);fill-opacity:1;fill-rule:nonzero;stroke:url(#linearGradient3095);stroke-width:1;stroke-linecap:round;stroke-linejoin:round;stroke-miterlimit:4;stroke-dasharray:none;stroke-dashoffset:0;stroke-opacity:1;marker:none;enable-background:accumulate" />
  <rect
     width="37"
     height="37"
     rx="1"
     ry="1"
     x="5.5"
     y="6.5"
     id="rect6741-2"
     style="fill:none;stroke:url(#linearGradient3084);stroke-width:1;stroke-linecap:round;stroke-linejoin:round;stroke-miterlimit:4;stroke-dasharray:none;stroke-dashoffset:0;stroke-opacity:1" />
  <path
     d="m 10,5.5325606 c 0,0 -3.1003072,-0.03125 -3.5,-0.03125 -1.108,0 -2,0.892 -2,2 V 42.501311 c 0,1.108 0.892,2 2,2 H 10"
     id="rect5505-21-0"
     style="color:#000000;display:inline;overflow:visible;visibility:visible;fill:url(#radialGradient3351-4);fill-opacity:1;fill-rule:nonzero;stroke:url(#linearGradient3353-8);stroke-width:1;stroke-linecap:butt;stroke-linejoin:round;stroke-miterlimit:4;stroke-dasharray:none;stroke-dashoffset:0;stroke-opacity:1;marker:none;enable-background:accumulate" />
  <path
     d="m 23.792978,41.559705 c -1.112133,-0.127927 -2.270487,-0.514207 -3.179963,-1.060434 -0.610242,-0.366509 -0.968231,-0.639936 -1.46682,-1.120336 -0.509735,-0.491139 -0.830159,-0.869694 -1.171521,-1.384047 -0.802402,-1.209039 -1.510571,-3.334428 -1.644288,-4.934907 -0.112973,-1.352189 -0.07326,-3.609637 0.08352,-4.747979 0.636669,-4.622663 2.808619,-9.519734 5.828324,-13.141058 0.463488,-0.555829 1.580359,-1.701625 2.130229,-2.185397 0.993574,-0.874136 1.980185,-1.551734 3.009546,-2.066928 0.469371,-0.23492 1.189556,-0.531507 1.476734,-0.608151 0.09253,-0.02469 1.261766,-0.4444621 2.598304,-0.932817 1.336537,-0.488355 2.480538,-0.8983601 2.542224,-0.9111225 0.06169,-0.012767 0.148707,-0.033648 0.193378,-0.046406 0.06858,-0.019585 0.07952,-0.00954 0.07031,0.064518 -0.006,0.048253 -0.381122,1.0062564 -0.833596,2.1289105 -0.639811,1.587468 -0.814463,2.055871 -0.78572,2.107233 0.02033,0.03632 0.161244,0.225035 0.313148,0.419361 l 0.276188,0.35332 -0.0094,12.752295 c -0.0067,8.974948 -0.02119,12.756226 -0.04919,12.76556 -0.02189,0.0073 -0.357128,-0.343267 -0.744979,-0.779028 -0.653668,-0.734412 -0.708863,-0.787045 -0.75552,-0.720477 -0.02768,0.0395 -0.164693,0.248464 -0.304465,0.464366 -0.410442,0.480735 -2.025926,1.89433 -1.771635,1.659905 0.151919,-0.182167 0.4787,-0.692829 0.607648,-0.949577 0.299917,-0.597161 0.602031,-1.597707 0.733757,-2.430069 0.09728,-0.614695 0.09793,-2.34767 0.0012,-3.065623 -0.356986,-2.648293 -1.33395,-5.210231 -2.844191,-7.458437 -1.520386,-2.263348 -3.31736,-3.787757 -5.237782,-4.443336 -0.267307,-0.09125 -1.15745,-0.41173 -1.978096,-0.712174 -0.820645,-0.300443 -1.497457,-0.540886 -1.504027,-0.534316 -0.0066,0.0066 0.231662,0.620669 0.529402,1.364667 0.29774,0.743999 0.541252,1.365403 0.541139,1.380899 -1.13e-4,0.01549 -0.09265,0.143976 -0.205622,0.285508 l -0.205412,0.257331 v 8.260374 c 0,4.543202 0.01413,8.254761 0.03141,8.247906 0.01728,-0.0068 0.222554,-0.226961 0.456171,-0.489128 0.233617,-0.262167 0.442392,-0.476639 0.463946,-0.476605 0.02155,3.5e-5 0.145531,0.160473 0.275507,0.35653 0.253149,0.381854 0.780744,0.960147 1.100501,1.206253 0.594315,0.457426 1.20707,0.757035 1.951788,0.954338 0.246014,0.06517 0.447897,0.135329 0.448628,0.155891 0.0018,0.04933 -0.586973,0.05732 -0.970697,0.01318 z"
     style="fill:url(#linearGradient6430);fill-opacity:1;stroke-width:0.0373857"
     id="path2234-3"
     sodipodi:nodetypes="ssssssssssssssssscssssccsssssssssscsssssssss" />
  <rect
     width="37"
     height="37"
     rx="1"
     ry="1"
     x="5.5"
     y="6.5"
     id="rect6741-2-5"
     style="opacity:0.4;fill:none;stroke:url(#linearGradient3497);stroke-width:1;stroke-linecap:round;stroke-linejoin:round;stroke-miterlimit:4;stroke-dasharray:none;stroke-dashoffset:0;stroke-opacity:1" />
</svg>
