<?xml version="1.0" encoding="UTF-8" standalone="no"?>
<svg
   height="48"
   width="48"
   version="1.1"
   id="svg2"
   xmlns="http://www.w3.org/2000/svg"
   xmlns:svg="http://www.w3.org/2000/svg"
   xmlns:rdf="http://www.w3.org/1999/02/22-rdf-syntax-ns#"
   xmlns:cc="http://creativecommons.org/ns#"
   xmlns:dc="http://purl.org/dc/elements/1.1/">
  <metadata
     id="metadata67">
    <rdf:RDF>
      <cc:Work
         rdf:about="">
        <dc:format>image/svg+xml</dc:format>
        <dc:type
           rdf:resource="http://purl.org/dc/dcmitype/StillImage" />
      </cc:Work>
    </rdf:RDF>
  </metadata>
  <defs
     id="defs4">
    <linearGradient
       id="c"
       y2="40.495998"
       gradientUnits="userSpaceOnUse"
       x2="71.204002"
       gradientTransform="matrix(1.617,0,0,1.617,-92.707,-21.06)"
       y1="15.369"
       x1="71.204002">
      <stop
         stop-color="#fff"
         offset="0"
         id="stop7" />
      <stop
         stop-color="#fff"
         stop-opacity=".23529"
         offset=".42448"
         id="stop9" />
      <stop
         stop-color="#fff"
         stop-opacity=".15686"
         offset=".82090"
         id="stop11" />
      <stop
         stop-color="#fff"
         stop-opacity=".39216"
         offset="1"
         id="stop13" />
    </linearGradient>
    <radialGradient
       id="b"
       gradientUnits="userSpaceOnUse"
       cy="3.99"
       cx="23.896"
       gradientTransform="matrix(0,2.8885,-3.8128,0,39.213,-65.95)"
       r="20.396999">
      <stop
         stop-color="#b1e198"
         offset="0"
         id="stop16"
         style="stop-color:#667885;stop-opacity:1;" />
      <stop
         stop-color="#71c586"
         offset="0.26238"
         id="stop18"
         style="stop-color:#485a6c;stop-opacity:1;" />
      <stop
         stop-color="#04a171"
         offset="0.66093999"
         id="stop20"
         style="stop-color:#273445;stop-opacity:1;" />
      <stop
         stop-color="#108562"
         offset="1"
         id="stop22"
         style="stop-color:#0e141f;stop-opacity:1;" />
    </radialGradient>
    <radialGradient
       id="a"
       gradientUnits="userSpaceOnUse"
       cy="186.17"
       cx="99.156998"
       gradientTransform="matrix(0.27083,0,0,0.087623,-2.8551,25.187)"
       r="62.769001">
      <stop
         stop-color="#3d3d3d"
         offset="0"
         id="stop25" />
      <stop
         stop-color="#686868"
         stop-opacity=".49804"
         offset=".5"
         id="stop27" />
      <stop
         stop-color="#686868"
         stop-opacity="0"
         offset="1"
         id="stop29" />
    </radialGradient>
  </defs>
  <path
     fill="url(#a)"
     d="m 41,41.5 a 17,5.5 0 0 1 -34,0 17,5.5 0 1 1 34,0 z"
     id="path41"
     style="fill:url(#a)" />
  <g
     id="g43">
    <path
       style="color:#000000;fill:url(#b)"
       d="M 24,3.5 C 12.689,3.5 3.5,12.689 3.5,24 3.5,35.311 12.689,44.5 24,44.5 35.311,44.5 44.5,35.311 44.5,24 44.5,12.689 35.311,3.5 24,3.5 Z"
       fill="url(#b)"
       id="path45" />
    <path
       opacity="0.8"
       stroke-linejoin="round"
       style="color:#000000;stroke:url(#c)"
       d="M 43.5,24 C 43.5,34.77 34.77,43.5 24,43.5 13.23,43.5 4.5,34.77 4.5,24 4.5,13.23 13.23,4.5 24,4.5 34.77,4.5 43.5,13.23 43.5,24 Z"
       stroke="url(#c)"
       stroke-linecap="round"
       fill="none"
       id="path47" />
    <path
       opacity="0.7"
       style="color:#000000;stroke:#273445;stroke-opacity:1"
       d="M 24,3.5 C 12.689,3.5 3.5,12.689 3.5,24 3.5,35.311 12.689,44.5 24,44.5 35.311,44.5 44.5,35.311 44.5,24 44.5,12.689 35.311,3.5 24,3.5 Z"
       stroke="#006344"
       fill="none"
       id="path49" />
  </g>
  <path
     class="cls-9"
     d="m 31.18803,19.120157 a 8.0994504,8.0993562 0 0 1 -11.270283,2.864125 8.2421381,8.2420421 0 0 1 -1.825791,-1.535518 8.0864419,8.0863478 0 0 1 -2.028437,-5.737106 c 0.01152,-0.235358 0.03125,-0.470057 0.06206,-0.703679 0.03033,-0.230244 0.07101,-0.459477 0.121039,-0.685945 q 0.07714,-0.348729 0.184853,-0.689525 0.104557,-0.331715 0.238367,-0.653393 c 0.09247,-0.222976 0.195554,-0.441227 0.306778,-0.655377 0.117119,-0.225514 0.246877,-0.444927 0.385424,-0.657906 q 0.19167,-0.294666 0.408307,-0.571631 c 0.156675,-0.2012548 0.323178,-0.3954258 0.498829,-0.5803418 q 0.265934,-0.2799897 0.55567,-0.5350507 c 0.196696,-0.17328 0.40295,-0.335367 0.615465,-0.488707 q 0.16432,-0.11858 0.334825,-0.2281309 A 9.9348756,9.934761 0 0 0 15.34084,21.412249 q 0.03335,0.06927 0.06782,0.138016 0.01563,0.03125 0.03153,0.06233 a 0.18701422,0.18701205 0 0 0 0.01909,0.03728 c 0.01316,0.01462 0.01645,0.01216 0.03656,0.01178 0.1048,-0.0018 0.209682,-0.0018 0.314472,8.5e-4 q 0.29043,0.0064 0.579936,0.03307 a 8.1132719,8.1131776 0 0 1 7.242515,6.763142 8.1844126,8.1843175 0 0 1 0.02604,2.445826 8.0795311,8.0794372 0 0 1 -1.876519,4.140736 8.2193731,8.2192774 0 0 1 -2.023521,1.698574 8.1246545,8.12456 0 0 1 -5.046917,1.077019 8.2551465,8.2550505 0 0 1 -0.943236,-0.163823 c -0.201412,-0.04725 -0.400823,-0.102893 -0.598031,-0.165503 a 9.862109,9.8619945 0 0 0 2.786557,0.771276 10.042603,10.042486 0 0 0 2.699682,-0.03245 9.899916,9.8998004 0 0 0 4.417617,-1.824711 10.001951,10.001835 0 0 0 2.428253,-2.564042 q 0.04232,-0.06452 0.08361,-0.129682 c 0.01064,-0.0169 0.03455,-0.04349 0.03143,-0.06131 a 0.34531611,0.3453121 0 0 0 -0.04267,-0.07906 Q 25.493638,33.418819 25.418809,33.26269 25.268481,32.949016 25.14556,32.623161 a 8.0498552,8.0497618 0 0 1 -0.379722,-1.356407 8.1657127,8.1656178 0 0 1 0.0018,-3.007388 8.0441641,8.0440706 0 0 1 0.868198,-2.408788 8.0929461,8.092852 0 0 1 7.036406,-4.189517 q 0.298262,-0.0018 0.596084,0.01727 0.287239,0.01909 0.572698,0.05767 0.282608,0.03866 0.56209,0.09732 0.273604,0.05775 0.542906,0.133749 0.263801,0.07484 0.52209,0.167414 0.261827,0.094 0.516597,0.205851 0.259734,0.113424 0.510631,0.245777 0.250638,0.13182 0.491887,0.280766 c 0.150966,0.0934 0.299374,0.191266 0.443636,0.294775 q 0.223168,0.160132 0.436022,0.333669 c 0.146471,0.119138 0.287825,0.244671 0.425304,0.37407 q 0.219543,0.206655 0.423101,0.429403 0.203168,0.221439 0.389043,0.458141 c 0.138211,0.175541 0.269859,0.356598 0.392707,0.543221 0.126203,0.191723 0.245515,0.388444 0.355632,0.590054 a 8.1388827,8.138788 0 0 1 0.409285,0.868555 8.4136882,8.4135904 0 0 1 0.324105,0.990707 9.9084519,9.9083374 0 0 0 -2.100763,-4.916362 9.9865038,9.9863882 0 0 0 -3.049369,-2.53997 9.8726786,9.8725641 0 0 0 -3.90046,-1.150592 q -0.173458,-0.01388 -0.347335,-0.02175 z"
     shape-rendering="geometricPrecision"
     id="path18-1-2"
     style="fill:none;fill-opacity:0.498039;stroke:#0e141f;stroke-width:2.5;stroke-linecap:round;stroke-linejoin:round;stroke-dasharray:none;stroke-opacity:0.298039" />
  <path
     class="cls-9"
     d="M 31.147944,18.252982 A 8.0994504,8.0993562 0 0 1 19.877661,21.117107 8.2421381,8.2420421 0 0 1 18.05187,19.581589 8.0864419,8.0863478 0 0 1 16.023433,13.844483 c 0.01152,-0.235359 0.03125,-0.470058 0.06206,-0.70368 0.03033,-0.230243 0.07101,-0.459477 0.121039,-0.685945 q 0.07714,-0.348728 0.184853,-0.689525 0.104557,-0.331714 0.238367,-0.653393 c 0.09247,-0.222976 0.195554,-0.441227 0.306778,-0.655376 0.117119,-0.225515 0.246877,-0.444927 0.385424,-0.657906 q 0.19167,-0.294666 0.408307,-0.571632 C 17.886936,9.025772 18.053439,8.831601 18.22909,8.646685 q 0.265934,-0.27999 0.55567,-0.535051 c 0.196696,-0.17328 0.40295,-0.335367 0.615465,-0.488707 q 0.16432,-0.11858 0.334825,-0.2281309 A 9.9348756,9.934761 0 0 0 15.300754,20.545074 q 0.03335,0.06927 0.06782,0.138016 0.01563,0.03125 0.03153,0.06233 a 0.18701422,0.18701205 0 0 0 0.01909,0.03728 c 0.01316,0.01462 0.01645,0.01216 0.03656,0.01178 0.1048,-0.0018 0.209682,-0.0018 0.314472,8.5e-4 q 0.29043,0.0064 0.579936,0.03307 a 8.1132719,8.1131776 0 0 1 7.242515,6.763142 8.1844126,8.1843175 0 0 1 0.02604,2.445826 8.0795311,8.0794372 0 0 1 -1.876519,4.140736 8.2193731,8.2192774 0 0 1 -2.023521,1.698574 8.1246545,8.12456 0 0 1 -5.046917,1.077019 8.2551465,8.2550505 0 0 1 -0.943236,-0.163823 c -0.201412,-0.04725 -0.400823,-0.102893 -0.598031,-0.165504 a 9.862109,9.8619945 0 0 0 2.786557,0.771277 10.042603,10.042486 0 0 0 2.699682,-0.03245 9.899916,9.8998004 0 0 0 4.417617,-1.82471 10.001951,10.001835 0 0 0 2.428253,-2.564042 q 0.04232,-0.06452 0.08361,-0.129682 c 0.01064,-0.0169 0.03455,-0.04349 0.03143,-0.06131 a 0.34531611,0.3453121 0 0 0 -0.04267,-0.07906 q -0.08142,-0.152748 -0.156249,-0.308877 -0.150328,-0.313674 -0.273249,-0.639529 a 8.0498552,8.0497618 0 0 1 -0.379722,-1.356407 8.1657127,8.1656178 0 0 1 0.0018,-3.007388 8.0441641,8.0440706 0 0 1 0.868198,-2.408788 8.0929461,8.092852 0 0 1 7.036406,-4.189517 q 0.298262,-0.0018 0.596084,0.01727 0.287239,0.01909 0.572698,0.05767 0.282608,0.03866 0.56209,0.09732 0.273604,0.05775 0.542906,0.133749 0.263801,0.07484 0.52209,0.167414 0.261827,0.094 0.516597,0.205851 0.259734,0.113424 0.510631,0.245777 0.250638,0.13182 0.491887,0.280766 c 0.150966,0.0934 0.299374,0.191266 0.443636,0.294775 q 0.223168,0.160132 0.436022,0.333669 c 0.146471,0.119138 0.287825,0.244671 0.425304,0.37407 q 0.219543,0.206655 0.423101,0.429403 0.203168,0.221439 0.389043,0.458141 c 0.138211,0.175541 0.269859,0.356598 0.392707,0.543221 0.126203,0.191723 0.245515,0.388444 0.355632,0.590054 a 8.1388827,8.138788 0 0 1 0.409285,0.868555 8.4136882,8.4135904 0 0 1 0.324105,0.990707 9.9084519,9.9083374 0 0 0 -2.100763,-4.916362 9.9865038,9.9863882 0 0 0 -3.049369,-2.53997 9.8726786,9.8725641 0 0 0 -3.90046,-1.150592 q -0.173458,-0.01388 -0.347335,-0.02175 z"
     shape-rendering="geometricPrecision"
     id="path18-1"
     style="fill:none;fill-opacity:0.498039;stroke:#0e141f;stroke-width:2.5;stroke-linecap:round;stroke-linejoin:round;stroke-dasharray:none;stroke-opacity:0.298039" />
  <path
     class="cls-9"
     d="m 31.132122,18.226267 a 8.0994504,8.0993562 0 0 1 -11.270284,2.864126 8.2421381,8.2420421 0 0 1 -1.82579,-1.535517 8.0864419,8.0863478 0 0 1 -2.028438,-5.737108 c 0.01152,-0.235358 0.03125,-0.470058 0.06206,-0.70368 0.03033,-0.230243 0.07101,-0.459477 0.121038,-0.685944 q 0.07714,-0.348729 0.184854,-0.689526 0.104556,-0.331713 0.238367,-0.653392 c 0.09247,-0.222976 0.195553,-0.441228 0.306778,-0.655376 0.117118,-0.225516 0.246877,-0.444928 0.385423,-0.657907 q 0.191671,-0.294665 0.408307,-0.571632 c 0.156675,-0.201253 0.323178,-0.395424 0.498828,-0.58034 q 0.265936,-0.27999 0.555671,-0.5350509 c 0.1967,-0.1732815 0.402954,-0.3353679 0.615469,-0.4887104 Q 19.548723,7.477631 19.719229,7.3680801 A 9.9348756,9.934761 0 0 0 15.284937,20.51836 q 0.03335,0.06927 0.06782,0.138015 0.01563,0.03125 0.03153,0.06233 a 0.18701422,0.18701205 0 0 0 0.01909,0.03728 c 0.01316,0.01462 0.01645,0.01216 0.03656,0.01178 0.1048,-0.0018 0.209681,-0.0018 0.314472,8.5e-4 q 0.29043,0.0064 0.579936,0.03307 a 8.1132719,8.1131776 0 0 1 7.242515,6.763142 8.1844126,8.1843175 0 0 1 0.02604,2.445828 8.0795311,8.0794372 0 0 1 -1.876519,4.140734 8.2193731,8.2192774 0 0 1 -2.02352,1.698574 8.1246545,8.12456 0 0 1 -5.046917,1.077019 8.2551465,8.2550505 0 0 1 -0.943236,-0.163823 c -0.201412,-0.04725 -0.400822,-0.102893 -0.598031,-0.165504 a 9.862109,9.8619945 0 0 0 2.786556,0.771277 10.042603,10.042486 0 0 0 2.699684,-0.03245 9.899916,9.8998004 0 0 0 4.417615,-1.82471 10.001951,10.001835 0 0 0 2.428254,-2.564042 q 0.04232,-0.06452 0.08361,-0.129682 c 0.01064,-0.0169 0.03455,-0.04349 0.03143,-0.06131 a 0.34531611,0.3453121 0 0 0 -0.04267,-0.07906 q -0.08143,-0.152736 -0.156253,-0.308864 -0.150328,-0.313674 -0.273249,-0.63953 a 8.0498552,8.0497618 0 0 1 -0.379722,-1.356406 8.1657127,8.1656178 0 0 1 0.0018,-3.007388 8.0441641,8.0440706 0 0 1 0.868199,-2.408788 8.0929461,8.092852 0 0 1 7.036406,-4.189518 q 0.298262,-0.0018 0.596084,0.01727 0.287239,0.01909 0.572698,0.05767 0.282607,0.03866 0.562089,0.09732 0.273605,0.05775 0.542907,0.133749 0.263801,0.07484 0.52209,0.167414 0.261826,0.094 0.516597,0.205851 0.259733,0.113425 0.51063,0.245777 0.250639,0.131821 0.491887,0.280767 c 0.150967,0.09339 0.299375,0.191265 0.443636,0.294774 q 0.223169,0.160132 0.436023,0.33367 c 0.146471,0.119137 0.287825,0.24467 0.425305,0.374069 q 0.219542,0.206655 0.4231,0.429404 0.203168,0.221439 0.389043,0.45814 c 0.138211,0.175541 0.269859,0.356599 0.392707,0.543222 0.126203,0.191722 0.245514,0.388443 0.355632,0.590054 a 8.1388827,8.138788 0 0 1 0.409285,0.868555 8.4136882,8.4135904 0 0 1 0.324105,0.990707 9.9084519,9.9083374 0 0 0 -2.100763,-4.916363 9.9865038,9.9863882 0 0 0 -3.049369,-2.53997 9.8726786,9.8725641 0 0 0 -3.90046,-1.150591 q -0.173458,-0.01388 -0.347335,-0.02175 z"
     shape-rendering="geometricPrecision"
     id="path18"
     style="fill:#ffffff;fill-opacity:1;stroke:#ffffff;stroke-width:1;stroke-linecap:round;stroke-linejoin:round;stroke-dasharray:none;stroke-opacity:1" />
</svg>
