<?xml version="1.0" encoding="UTF-8" standalone="no"?>
<svg
   id="svg18157"
   height="48"
   width="48"
   version="1.1"
   sodipodi:docname="free-file-sync.svg"
   inkscape:version="1.2.2 (b0a8486541, 2022-12-01)"
   xmlns:inkscape="http://www.inkscape.org/namespaces/inkscape"
   xmlns:sodipodi="http://sodipodi.sourceforge.net/DTD/sodipodi-0.dtd"
   xmlns:xlink="http://www.w3.org/1999/xlink"
   xmlns="http://www.w3.org/2000/svg"
   xmlns:svg="http://www.w3.org/2000/svg"
   xmlns:rdf="http://www.w3.org/1999/02/22-rdf-syntax-ns#"
   xmlns:cc="http://creativecommons.org/ns#"
   xmlns:dc="http://purl.org/dc/elements/1.1/">
  <sodipodi:namedview
     id="namedview46"
     pagecolor="#ffffff"
     bordercolor="#000000"
     borderopacity="0.25"
     inkscape:showpageshadow="2"
     inkscape:pageopacity="0.0"
     inkscape:pagecheckerboard="0"
     inkscape:deskcolor="#d1d1d1"
     showgrid="false"
     inkscape:zoom="12.418563"
     inkscape:cx="25.043155"
     inkscape:cy="27.418632"
     inkscape:window-width="1920"
     inkscape:window-height="1025"
     inkscape:window-x="0"
     inkscape:window-y="0"
     inkscape:window-maximized="1"
     inkscape:current-layer="svg18157" />
  <defs
     id="defs18159">
    <linearGradient
       gradientTransform="matrix(0.89189031,0,0,1.0986542,3.142773,3.887208)"
       gradientUnits="userSpaceOnUse"
       xlink:href="#linearGradient3454-2-5-0-3"
       id="linearGradient12489"
       y2="35.581654"
       x2="42.470848"
       y1="11.952797"
       x1="42.470848" />
    <linearGradient
       id="linearGradient3454-2-5-0-3">
      <stop
         offset="0"
         style="stop-color:#ffffff;stop-opacity:1"
         id="stop3456-4-9-38-1" />
      <stop
         offset="0.0097359"
         style="stop-color:#ffffff;stop-opacity:0.23529412"
         id="stop3458-39-80-3-5" />
      <stop
         offset="0.99001008"
         style="stop-color:#ffffff;stop-opacity:0.15686275"
         id="stop3460-7-0-2-4" />
      <stop
         offset="1"
         style="stop-color:#ffffff;stop-opacity:0.39215687"
         id="stop3462-0-9-8-7" />
    </linearGradient>
    <radialGradient
       gradientTransform="matrix(-0.03079083,0,0,0.02470588,23.389752,31.94164)"
       gradientUnits="userSpaceOnUse"
       xlink:href="#linearGradient5060-820-91-9-0"
       id="radialGradient12475"
       fy="486.64789"
       fx="605.71429"
       r="117.14286"
       cy="486.64789"
       cx="605.71429" />
    <linearGradient
       id="linearGradient5060-820-91-9-0">
      <stop
         offset="0"
         style="stop-color:#000000;stop-opacity:1"
         id="stop2681-778-5-1" />
      <stop
         offset="1"
         style="stop-color:#000000;stop-opacity:0"
         id="stop2683-2-86-2" />
    </linearGradient>
    <radialGradient
       gradientTransform="matrix(0.03079083,0,0,0.02470588,24.610252,31.94164)"
       gradientUnits="userSpaceOnUse"
       xlink:href="#linearGradient5060-179-37-4-0"
       id="radialGradient12471"
       fy="486.64789"
       fx="605.71429"
       r="117.14286"
       cy="486.64789"
       cx="605.71429" />
    <linearGradient
       id="linearGradient5060-179-37-4-0">
      <stop
         offset="0"
         style="stop-color:#000000;stop-opacity:1"
         id="stop2675-91-9-2" />
      <stop
         offset="1"
         style="stop-color:#000000;stop-opacity:0"
         id="stop2677-09-0-9" />
    </linearGradient>
    <linearGradient
       gradientTransform="matrix(0.07938856,0,0,0.02470588,-4.6932879,31.94164)"
       gradientUnits="userSpaceOnUse"
       xlink:href="#linearGradient5048-585-73-1-5"
       id="linearGradient12467"
       y2="609.50507"
       x2="302.85715"
       y1="366.64789"
       x1="302.85715" />
    <linearGradient
       id="linearGradient5048-585-73-1-5">
      <stop
         offset="0"
         style="stop-color:#000000;stop-opacity:0"
         id="stop2667-99-4-6" />
      <stop
         offset="0.5"
         style="stop-color:#000000;stop-opacity:1"
         id="stop2669-5-9-4" />
      <stop
         offset="1"
         style="stop-color:#000000;stop-opacity:0"
         id="stop2671-56-4-2" />
    </linearGradient>
    <linearGradient
       gradientTransform="matrix(0.89189031,0,0,1.0580283,3.1206621,5.3535997)"
       gradientUnits="userSpaceOnUse"
       xlink:href="#linearGradient4507-0-4-7"
       id="linearGradient12463"
       y2="34.143417"
       x2="21.37039"
       y1="7.2270284"
       x1="21.37039" />
    <linearGradient
       id="linearGradient4507-0-4-7">
      <stop
         offset="0"
         style="stop-color:#ffffff;stop-opacity:1"
         id="stop4509-35-6-1" />
      <stop
         offset="0"
         style="stop-color:#ffffff;stop-opacity:0.23529412"
         id="stop4511-46-3-8" />
      <stop
         offset="0.99001008"
         style="stop-color:#ffffff;stop-opacity:0.15686275"
         id="stop4513-15-5-9" />
      <stop
         offset="1"
         style="stop-color:#ffffff;stop-opacity:0.39215687"
         id="stop4515-1-1-8" />
    </linearGradient>
    <linearGradient
       gradientTransform="translate(-50.940897)"
       gradientUnits="userSpaceOnUse"
       xlink:href="#linearGradient4646-7-4-3"
       id="linearGradient12459"
       y2="16"
       x2="62.988873"
       y1="13"
       x1="62.988873" />
    <linearGradient
       id="linearGradient4646-7-4-3">
      <stop
         offset="0"
         style="stop-color:#f9f9f9;stop-opacity:1"
         id="stop4648-8-0-3" />
      <stop
         offset="1"
         style="stop-color:#d8d8d8;stop-opacity:1"
         id="stop4650-1-7-3" />
    </linearGradient>
    <linearGradient
       id="linearGradient4632-0-6-4-4-4">
      <stop
         offset="0"
         style="stop-color:#efdfc4;stop-opacity:1"
         id="stop4634-4-4-7-4" />
      <stop
         offset="1"
         style="stop-color:#e7c591;stop-opacity:1"
         id="stop4636-3-1-5-9" />
    </linearGradient>
    <linearGradient
       y2="113.49406"
       x2="45.428802"
       y1="52.770573"
       x1="45.428802"
       gradientTransform="matrix(0.50413225,0,0,0.49333391,3.097875,-11.033513)"
       gradientUnits="userSpaceOnUse"
       id="linearGradient997"
       xlink:href="#linearGradient4632-0-6-4-4-4" />
  </defs>
  <metadata
     id="metadata18162">
    <rdf:RDF>
      <cc:Work
         rdf:about="">
        <dc:format>image/svg+xml</dc:format>
        <dc:type
           rdf:resource="http://purl.org/dc/dcmitype/StillImage" />
      </cc:Work>
    </rdf:RDF>
  </metadata>
  <path
     d="m 5.5000021,8.4999997 c -0.554,0 -1,0.446 -1,1 V 11.5 h -1 c -0.554,0 -1,0.446 -1,1 v 6 c 0,0.554 0.446,1 1,1 H 44.500002 c 0.554,0 1,-0.446 1,-1 v -6 c 0,-0.554 -0.446,-1 -1,-1 h -23 V 9.4999997 c 0,-0.554 -0.446,-1 -1,-1 z"
     id="rect4251-0-0-61"
     style="color:#000000;display:inline;overflow:visible;visibility:visible;opacity:0.5;fill:none;stroke:#7e8087;stroke-width:0.99200022;stroke-linecap:square;stroke-linejoin:miter;stroke-miterlimit:4;stroke-dasharray:none;stroke-dashoffset:0;stroke-opacity:1;marker:none;enable-background:accumulate;font-variant-east_asian:normal;vector-effect:none;fill-opacity:1" />
  <path
     d="m 5.5000021,8.9999997 c -0.277,0 -0.5,0.223 -0.5,0.5 V 12 h -1.5 c -0.277,0 -0.5,0.223 -0.5,0.5 v 6 c 0,0.277 0.223,0.5 0.5,0.5 H 44.500002 c 0.277,0 0.5,-0.223 0.5,-0.5 v -6 c 0,-0.277 -0.223,-0.5 -0.5,-0.5 h -23.5 V 9.4999997 c 0,-0.277 -0.223,-0.5 -0.5,-0.5 z"
     id="rect4251-3-2"
     style="color:#000000;display:inline;overflow:visible;visibility:visible;fill:url(#linearGradient12459);fill-opacity:1;fill-rule:nonzero;stroke:none;stroke-width:0.99992168;marker:none;enable-background:accumulate" />
  <path
     d="M 5.5000021,9.4999997 V 12.5 h -2 v 7 H 44.500002 v -7 h -24 V 9.4999997 Z"
     id="rect4251-9-21-7"
     style="color:#000000;display:inline;overflow:visible;visibility:visible;fill:none;stroke:url(#linearGradient12463);stroke-width:1;stroke-linecap:round;stroke-linejoin:round;stroke-miterlimit:4;stroke-dasharray:none;stroke-dashoffset:0;stroke-opacity:1;marker:none;enable-background:accumulate" />
  <rect
     width="38.333332"
     height="6.0000005"
     x="4.8333426"
     y="41"
     id="rect4173-8-8"
     style="display:inline;overflow:visible;visibility:visible;opacity:0.3;fill:url(#linearGradient12467);fill-opacity:1;fill-rule:nonzero;stroke:none;stroke-width:1;marker:none" />
  <path
     d="m 43.166672,41.00021 c 0,0 0,5.99967 0,5.99967 1.58565,0.0113 3.83333,-1.34422 3.83333,-3.00022 0,-1.656 -1.76947,-2.99945 -3.83333,-2.99945 z"
     id="path5058-9-0"
     style="display:inline;overflow:visible;visibility:visible;opacity:0.3;fill:url(#radialGradient12471);fill-opacity:1;fill-rule:nonzero;stroke:none;stroke-width:1;marker:none" />
  <path
     d="m 4.8333321,41.00021 c 0,0 0,5.99967 0,5.99967 -1.58565,0.0113 -3.83333,-1.34422 -3.83333,-3.00022 0,-1.656 1.76947,-2.99945 3.83333,-2.99945 z"
     id="path5018-6-6"
     style="display:inline;overflow:visible;visibility:visible;opacity:0.3;fill:url(#radialGradient12475);fill-opacity:1;fill-rule:nonzero;stroke:none;stroke-width:1;marker:none" />
  <path
     d="m 2.1626121,15.50019 c -1.07231,0.12829 -0.49959,1.45416 -0.58508,2.19974 0.12444,0.48182 0.92748,26.17643 0.92748,26.17643 0,0.7414 0.35172,0.61579 1.24292,0.61579 13.1885599,0 27.7725299,0 40.9610899,0 0.96008,0.0231 0.75718,0.0121 0.75718,-0.62748 0,0 0.99298,-27.35421 1.0285,-27.7811 0,-0.44949 0.0902,-0.58338 -0.47316,-0.58338 -14.08405,0 -29.77488,0 -43.8589299,0 z"
     id="path3388-7-1"
     style="fill:url(#linearGradient997);fill-opacity:1;stroke:#987124;font-variant-east_asian:normal;opacity:1;vector-effect:none;stroke-width:0.99999982;stroke-linecap:butt;stroke-linejoin:miter;stroke-miterlimit:4;stroke-dasharray:none;stroke-dashoffset:0;stroke-opacity:0.49803922;marker:none" />
  <path
     d="m 2.5221121,16.499999 c 0.016793,0.183202 0.022163,0.537823 0.03125,0.908598 0.023112,0.08973 0.025524,0.06151 0.03125,0.09735 0.011058,0.06921 0.027034,0.143566 0.03125,0.1947 0.0064,0.07761 -0.00668,0.179686 0,0.292049 0.013352,0.224726 0.045306,0.530459 0.0625,0.908598 0.034388,0.756279 0.078083,1.7745 0.125,3.017843 0.093834,2.486687 0.2030642,5.769016 0.3125,9.02108 0.2122959,6.308724 0.3945663,12.188203 0.40625,12.558123 0.1225025,0.0037 0.071108,0 0.25,0 H 44.490862 c 0.0124,-0.341463 0.253182,-6.673493 0.5,-13.401821 0.126691,-3.453636 0.245386,-6.941969 0.34375,-9.572728 0.04918,-1.31538 0.09434,-2.421026 0.125,-3.212543 0.01322,-0.341237 0.02246,-0.594976 0.03125,-0.811249 z"
     id="path4587-3-5"
     style="color:#000000;display:inline;overflow:visible;visibility:visible;opacity:0.5;fill:none;stroke:url(#linearGradient12489);stroke-width:1.00000012;stroke-linecap:round;stroke-linejoin:miter;stroke-miterlimit:4;stroke-dasharray:none;stroke-dashoffset:0;stroke-opacity:1;marker:none;enable-background:accumulate" />
  <path
     style="color:#000000;display:inline;overflow:visible;visibility:visible;opacity:0.07;vector-effect:none;fill:#000100;fill-opacity:1;fill-rule:nonzero;stroke:none;stroke-width:0.846117;stroke-linecap:butt;stroke-linejoin:miter;stroke-miterlimit:4;stroke-dasharray:none;stroke-dashoffset:0;stroke-opacity:1;marker:none;enable-background:accumulate"
     id="path4451"
     d="m 24.000009,19.65949 c -5.111426,0 -9.403187,3.514991 -10.629345,8.249641 a 0.84289167,0.84289167 0 0 0 0.819676,1.057646 h 2.51191 a 0.84289167,0.84289167 0 0 0 0.793235,-0.581705 c 0.933147,-2.686588 3.489126,-4.600761 6.504524,-4.600761 1.805359,0 3.374788,0.772868 4.600762,1.903763 l -2.670557,2.670557 a 0.84289167,0.84289167 0 0 0 0.608146,1.454263 h 7.615054 a 0.84289167,0.84289167 0 0 0 0.846117,-0.846117 v -7.615053 a 0.84289167,0.84289167 0 0 0 -1.454264,-0.608147 l -2.009528,2.009528 C 29.565475,20.870948 26.933829,19.65949 24.000009,19.65949 Z M 13.767282,32.351245 a 0.84289167,0.84289167 0 0 0 -0.766794,0.846117 v 7.615055 a 0.84289167,0.84289167 0 0 0 1.454264,0.608146 l 2.51191,-2.51191 c 1.912297,1.636424 4.319765,2.749881 7.033347,2.749881 5.111427,0 9.403187,-3.514991 10.629346,-8.249641 a 0.84289167,0.84289167 0 0 0 -0.819676,-1.057647 h -2.51191 a 0.84289167,0.84289167 0 0 0 -0.793235,0.581706 c -0.933148,2.686589 -3.489126,4.600761 -6.504525,4.600761 -1.582783,0 -2.962781,-0.630213 -4.12482,-1.533587 l 2.194616,-2.194616 a 0.84289167,0.84289167 0 0 0 -0.608147,-1.454265 h -7.615053 a 0.84289167,0.84289167 0 0 0 -0.07932,0 z" />
  <path
     style="color:#000000;display:inline;overflow:visible;visibility:visible;opacity:0.2;vector-effect:none;fill:#000000;fill-opacity:1;fill-rule:nonzero;stroke:none;stroke-width:0.846117;stroke-linecap:butt;stroke-linejoin:miter;stroke-miterlimit:4;stroke-dasharray:none;stroke-dashoffset:0;stroke-opacity:1;marker:none;enable-background:accumulate"
     id="path4285-6"
     d="m 24.000009,20.505607 c -4.725828,0 -8.677471,3.24322 -9.809669,7.615053 h 2.51191 c 1.048773,-3.01948 3.922313,-5.182467 7.297759,-5.182467 2.347588,0 4.452926,1.044021 5.869937,2.696999 l -3.331586,3.331585 h 7.615054 v -7.615053 l -2.564793,2.564792 C 29.734672,21.819201 27.02023,20.505607 24.000009,20.505607 Z M 13.846605,33.197362 v 7.615055 l 2.987851,-2.987851 c 1.831985,1.844093 4.359592,2.987851 7.165553,2.987851 4.725829,0 8.677472,-3.243219 9.80967,-7.615054 h -2.51191 c -1.048773,3.019481 -3.922314,5.182467 -7.29776,5.182467 -2.130268,0 -4.048949,-0.879331 -5.446878,-2.273939 l 2.908527,-2.908529 z" />
  <path
     style="color:#000000;display:inline;overflow:visible;visibility:visible;vector-effect:none;fill:#555761;fill-opacity:1;fill-rule:nonzero;stroke:none;stroke-width:0.846117px;stroke-linecap:butt;stroke-linejoin:miter;stroke-miterlimit:4;stroke-dasharray:none;stroke-dashoffset:0;stroke-opacity:1;marker:none;enable-background:accumulate"
     id="path4285-62"
     d="m 24.000009,19.65949 c -4.725828,0 -8.677471,3.243219 -9.809669,7.615053 h 2.51191 c 1.048773,-3.01948 3.922313,-5.182467 7.297759,-5.182467 2.347588,0 4.452926,1.044021 5.869937,2.696998 L 26.53836,28.12066 h 7.615054 v -7.615053 l -2.564793,2.564792 C 29.734672,20.973084 27.02023,19.65949 24.000009,19.65949 Z M 13.846605,32.351245 V 39.9663 l 2.987851,-2.987851 c 1.831985,1.844093 4.359592,2.987851 7.165553,2.987851 4.725829,0 8.677472,-3.243219 9.80967,-7.615054 h -2.51191 c -1.048773,3.019481 -3.922314,5.182467 -7.29776,5.182467 -2.130268,0 -4.048949,-0.879331 -5.446878,-2.273939 l 2.908527,-2.908529 z" />
</svg>
