<?xml version="1.0" encoding="UTF-8" standalone="no"?>
<svg
   height="48"
   width="48"
   version="1.1"
   id="svg2"
   xmlns:xlink="http://www.w3.org/1999/xlink"
   xmlns="http://www.w3.org/2000/svg"
   xmlns:svg="http://www.w3.org/2000/svg"
   xmlns:rdf="http://www.w3.org/1999/02/22-rdf-syntax-ns#"
   xmlns:cc="http://creativecommons.org/ns#"
   xmlns:dc="http://purl.org/dc/elements/1.1/">
  <metadata
     id="metadata67">
    <rdf:RDF>
      <cc:Work
         rdf:about="">
        <dc:format>image/svg+xml</dc:format>
        <dc:type
           rdf:resource="http://purl.org/dc/dcmitype/StillImage" />
      </cc:Work>
    </rdf:RDF>
  </metadata>
  <defs
     id="defs4">
    <linearGradient
       id="c"
       y2="40.495998"
       gradientUnits="userSpaceOnUse"
       x2="71.204002"
       gradientTransform="matrix(1.617,0,0,1.617,-92.707,-21.06)"
       y1="15.369"
       x1="71.204002">
      <stop
         stop-color="#fff"
         offset="0"
         id="stop7" />
      <stop
         stop-color="#fff"
         stop-opacity=".23529"
         offset=".42448"
         id="stop9" />
      <stop
         stop-color="#fff"
         stop-opacity=".15686"
         offset=".82090"
         id="stop11" />
      <stop
         stop-color="#fff"
         stop-opacity=".39216"
         offset="1"
         id="stop13" />
    </linearGradient>
    <radialGradient
       id="a"
       gradientUnits="userSpaceOnUse"
       cy="186.17"
       cx="99.156998"
       gradientTransform="matrix(0.27083,0,0,0.087623,-2.8551,25.187)"
       r="62.769001">
      <stop
         stop-color="#3d3d3d"
         offset="0"
         id="stop25" />
      <stop
         stop-color="#686868"
         stop-opacity=".49804"
         offset=".5"
         id="stop27" />
      <stop
         stop-color="#686868"
         stop-opacity="0"
         offset="1"
         id="stop29" />
    </radialGradient>
    <linearGradient
       y2="85.401268"
       x2="77.581551"
       y1="102.90127"
       x1="89.69368"
       gradientTransform="matrix(0.91220191,0,0,0.91220191,0.0189802,6.0858864)"
       gradientUnits="userSpaceOnUse"
       id="linearGradient3697"
       xlink:href="#linearGradient3962-8" />
    <linearGradient
       id="linearGradient3962-8">
      <stop
         style="stop-color:#38c102;stop-opacity:1"
         offset="0"
         id="stop3964-8" />
      <stop
         style="stop-color:#bced02;stop-opacity:1;"
         offset="1"
         id="stop3966-8" />
    </linearGradient>
    <linearGradient
       y2="87.778229"
       x2="69.426155"
       y1="109.56621"
       x1="69.426155"
       gradientTransform="matrix(0.91220191,0,0,0.91220191,0.0189802,6.0858864)"
       gradientUnits="userSpaceOnUse"
       id="linearGradient3699"
       xlink:href="#linearGradient3954-7" />
    <linearGradient
       id="linearGradient3954-7">
      <stop
         style="stop-color:#009a01;stop-opacity:1"
         offset="0"
         id="stop3956-7" />
      <stop
         style="stop-color:#01d901;stop-opacity:1;"
         offset="1"
         id="stop3958-6" />
    </linearGradient>
    <linearGradient
       y2="60.841156"
       x2="51.94133"
       y1="47.984013"
       x1="35.142246"
       gradientTransform="matrix(0.91220191,0,0,0.91220191,0.0189802,6.0858864)"
       gradientUnits="userSpaceOnUse"
       id="linearGradient3701"
       xlink:href="#linearGradient4002-3" />
    <linearGradient
       id="linearGradient4002-3">
      <stop
         style="stop-color:#5a1898;stop-opacity:1"
         offset="0"
         id="stop4004-0" />
      <stop
         style="stop-color:#971ec6;stop-opacity:1"
         offset="1"
         id="stop4006-3" />
    </linearGradient>
    <linearGradient
       y2="77.180672"
       x2="51.05373"
       y1="92.042343"
       x1="35.907295"
       gradientTransform="matrix(0.91220191,0,0,0.91220191,0.0189802,6.0858864)"
       gradientUnits="userSpaceOnUse"
       id="linearGradient3703"
       xlink:href="#linearGradient4024-9" />
    <linearGradient
       id="linearGradient4024-9">
      <stop
         style="stop-color:#053980;stop-opacity:1"
         offset="0"
         id="stop4026-2" />
      <stop
         style="stop-color:#0293e4;stop-opacity:1;"
         offset="1"
         id="stop4028-5" />
    </linearGradient>
    <linearGradient
       y2="69.662819"
       x2="49.506901"
       y1="69.662819"
       x1="28.165936"
       gradientTransform="matrix(0.91220191,0,0,0.91220191,0.0189802,6.0858864)"
       gradientUnits="userSpaceOnUse"
       id="linearGradient3705"
       xlink:href="#linearGradient4018-0" />
    <linearGradient
       id="linearGradient4018-0">
      <stop
         style="stop-color:#151b92;stop-opacity:1"
         offset="0"
         id="stop4020-5" />
      <stop
         style="stop-color:#1526c3;stop-opacity:1"
         offset="1"
         id="stop4022-9" />
    </linearGradient>
    <linearGradient
       y2="58.698296"
       x2="85.538757"
       y1="50.126869"
       x1="104.45396"
       gradientTransform="matrix(0.91220191,0,0,0.91220191,0.0189802,6.0858864)"
       gradientUnits="userSpaceOnUse"
       id="linearGradient3707"
       xlink:href="#linearGradient3978-6" />
    <linearGradient
       id="linearGradient3978-6">
      <stop
         id="stop4040-9"
         offset="0"
         style="stop-color:#f18e01;stop-opacity:1;" />
      <stop
         style="stop-color:#ffd02b;stop-opacity:1;"
         offset="1"
         id="stop3982-2" />
    </linearGradient>
    <linearGradient
       y2="52.828865"
       x2="59.551327"
       y1="35.151196"
       x1="48.471462"
       gradientTransform="matrix(0.91220191,0,0,0.91220191,0.0189802,6.0858864)"
       gradientUnits="userSpaceOnUse"
       id="linearGradient3709"
       xlink:href="#linearGradient3994-4" />
    <linearGradient
       id="linearGradient3994-4">
      <stop
         style="stop-color:#d91566;stop-opacity:1"
         offset="0"
         id="stop3996-7" />
      <stop
         style="stop-color:#fc12aa;stop-opacity:1"
         offset="1"
         id="stop3998-7" />
    </linearGradient>
    <linearGradient
       y2="70.38826"
       x2="87.602814"
       y1="70.38826"
       x1="108.90713"
       gradientTransform="matrix(0.91220191,0,0,0.91220191,0.0189802,6.0858864)"
       gradientUnits="userSpaceOnUse"
       id="linearGradient3711"
       xlink:href="#linearGradient3970-4" />
    <linearGradient
       id="linearGradient3970-4">
      <stop
         style="stop-color:#f8bc00;stop-opacity:1;"
         offset="0"
         id="stop3972-8" />
      <stop
         style="stop-color:#ffe309;stop-opacity:1;"
         offset="1"
         id="stop3974-1" />
    </linearGradient>
    <linearGradient
       y2="86.115555"
       x2="58.130188"
       y1="103.2584"
       x1="49.885166"
       gradientTransform="matrix(0.91220191,0,0,0.91220191,0.0189802,6.0858864)"
       gradientUnits="userSpaceOnUse"
       id="linearGradient3713"
       xlink:href="#linearGradient3946-8" />
    <linearGradient
       id="linearGradient3946-8">
      <stop
         style="stop-color:#0193be;stop-opacity:1;"
         offset="0"
         id="stop3948-9" />
      <stop
         style="stop-color:#01d4ed;stop-opacity:1;"
         offset="1"
         id="stop3950-3" />
    </linearGradient>
    <linearGradient
       y2="53.589558"
       x2="77.581551"
       y1="35.440266"
       x1="90.159142"
       gradientTransform="matrix(0.91220191,0,0,0.91220191,0.0189802,6.0858864)"
       gradientUnits="userSpaceOnUse"
       id="linearGradient3715"
       xlink:href="#linearGradient3986-8" />
    <linearGradient
       id="linearGradient3986-8">
      <stop
         style="stop-color:#fd4c0b;stop-opacity:1"
         offset="0"
         id="stop3988-0" />
      <stop
         style="stop-color:#feab27;stop-opacity:1;"
         offset="1"
         id="stop3990-2" />
    </linearGradient>
  </defs>
  <path
     fill="url(#a)"
     d="m 41,41.5 a 17,5.5 0 0 1 -34,0 17,5.5 0 1 1 34,0 z"
     id="path41"
     style="fill:url(#a)" />
  <g
     id="g43">
    <g
       transform="matrix(0.56515196,0,0,0.56515197,-11.352964,-15.174549)"
       style="display:inline;stroke-width:0.369987;enable-background:new"
       id="g3490">
      <path
         style="color:#000000;fill:#fffb00;fill-opacity:1;stroke:#000000;stroke-width:0.184994;stroke-miterlimit:4;stroke-dasharray:none;stroke-opacity:0.156863"
         d="M 74.542973,81.305016 88.616052,95.378102 A 36.856194,36.856194 0 0 0 98.15514,78.855909 L 78.930951,73.704823 a 16.953849,16.953849 0 0 1 -4.387978,7.600193 z"
         id="path3492" />
      <path
         style="color:#000000;fill:url(#linearGradient3697);fill-opacity:1;stroke:#000000;stroke-width:0.184994;stroke-miterlimit:4;stroke-dasharray:none;stroke-opacity:0.156863"
         d="m 66.94277,85.692999 5.151106,19.224191 A 36.856194,36.856194 0 0 0 88.616052,95.378102 L 74.542973,81.305016 a 16.953849,16.953849 0 0 1 -7.600203,4.387983 z"
         id="path3494" />
      <path
         style="color:#000000;fill:url(#linearGradient3699);fill-opacity:1;stroke:#000000;stroke-width:0.184994;stroke-miterlimit:4;stroke-dasharray:none;stroke-opacity:0.156863"
         d="m 58.16681,85.692999 -5.151102,19.224191 a 36.856194,36.856194 0 0 0 19.078168,0 L 66.94277,85.692999 a 16.953849,16.953849 0 0 1 -8.77596,0 z"
         id="path3496" />
      <path
         style="color:#000000;fill:url(#linearGradient3701);fill-opacity:1;stroke:#000000;stroke-width:0.184994;stroke-miterlimit:4;stroke-dasharray:none;stroke-opacity:0.156863"
         d="M 50.566607,57.328664 36.493526,43.255578 a 36.856194,36.856194 0 0 0 -9.539083,16.522175 l 19.224191,5.151104 a 16.953849,16.953849 0 0 1 4.387973,-7.600193 z"
         id="path3498" />
      <path
         style="color:#000000;fill:url(#linearGradient3703);fill-opacity:1;stroke:#000000;stroke-width:0.184994;stroke-miterlimit:4;stroke-dasharray:none;stroke-opacity:0.156863"
         d="m 46.178634,73.704823 -19.224191,5.151086 a 36.856194,36.856194 0 0 0 9.539083,16.522193 L 50.566607,81.305016 a 16.953849,16.953849 0 0 1 -4.387973,-7.600193 z"
         id="path3500" />
      <path
         style="color:#000000;fill:url(#linearGradient3705);fill-opacity:1;stroke:#000000;stroke-width:0.184994;stroke-miterlimit:4;stroke-dasharray:none;stroke-opacity:0.156863"
         d="M 46.178634,64.928857 26.954443,59.777753 a 36.856194,36.856194 0 0 0 0,19.078156 l 19.224191,-5.151086 a 16.953849,16.953849 0 0 1 0,-8.775966 z"
         id="path3502" />
      <path
         style="color:#000000;fill:url(#linearGradient3707);fill-opacity:1;stroke:#000000;stroke-width:0.184994;stroke-miterlimit:4;stroke-dasharray:none;stroke-opacity:0.156863"
         d="M 78.930951,64.928857 98.15514,59.777753 A 36.856194,36.856194 0 0 0 88.616052,43.255578 L 74.542973,57.328664 a 16.953849,16.953849 0 0 1 4.387978,7.600193 z"
         id="path3504" />
      <path
         style="color:#000000;fill:url(#linearGradient3709);fill-opacity:1;stroke:#000000;stroke-width:0.184994;stroke-miterlimit:4;stroke-dasharray:none;stroke-opacity:0.156863"
         d="M 58.16681,52.940672 53.015708,33.716491 a 36.856194,36.856194 0 0 0 -16.522182,9.539087 l 14.073081,14.073086 a 16.953849,16.953849 0 0 1 7.600203,-4.387992 z"
         id="path3506" />
      <path
         style="color:#000000;fill:#ff0b0d;fill-opacity:1;stroke:#000000;stroke-width:0.184994;stroke-miterlimit:4;stroke-dasharray:none;stroke-opacity:0.156863"
         d="m 66.94277,52.940672 5.151106,-19.224181 a 36.856194,36.856194 0 0 0 -19.078168,0 l 5.151102,19.224181 a 16.953849,16.953849 0 0 1 8.77596,0 z"
         id="path3508" />
      <path
         style="color:#000000;display:inline;fill:url(#linearGradient3711);fill-opacity:1;stroke:#000000;stroke-width:0.184994;stroke-miterlimit:4;stroke-dasharray:none;stroke-opacity:0.156863"
         d="m 78.930951,73.704823 19.224189,5.151086 a 36.856194,36.856194 0 0 0 0,-19.078156 l -19.224189,5.151104 a 16.953849,16.953849 0 0 1 0,8.775966 z"
         id="path3510" />
      <path
         style="color:#000000;fill:url(#linearGradient3713);fill-opacity:1;stroke:#000000;stroke-width:0.184994;stroke-miterlimit:4;stroke-dasharray:none;stroke-opacity:0.156863"
         d="M 50.566607,81.305016 36.493526,95.378102 a 36.856194,36.856194 0 0 0 16.522182,9.539088 L 58.16681,85.692999 a 16.953849,16.953849 0 0 1 -7.600203,-4.387983 z"
         id="path3512" />
      <path
         style="color:#000000;display:inline;fill:url(#linearGradient3715);fill-opacity:1;stroke:#000000;stroke-width:0.184994;stroke-miterlimit:4;stroke-dasharray:none;stroke-opacity:0.156863"
         d="M 74.542973,57.328664 88.616052,43.255578 A 36.856194,36.856194 0 0 0 72.093876,33.716491 L 66.94277,52.940672 a 16.953849,16.953849 0 0 1 7.600203,4.387992 z"
         id="path3514" />
      <g
         transform="matrix(0.91220191,0,0,0.91220191,92.432012,5.9324996)"
         id="g3516"
         style="display:inline;stroke-width:0.369987">
        <path
           id="circle3520"
           d="M 23,0 C 23,12.702549 12.702549,23 0,23 -12.702549,23 -23,12.702549 -23,0 c 0,-12.702549 10.297451,-23 23,-23 12.702549,0 23,10.297451 23,23 z"
           style="color:#000000;opacity:0.4;fill:none;stroke:currentColor;stroke-width:2.38868;stroke-miterlimit:4;stroke-dasharray:none"
           transform="matrix(0.81205493,0,0,-0.81205493,-32.752856,69.48499)" />
      </g>
    </g>
    <path
       opacity="0.8"
       stroke-linejoin="round"
       style="color:#000000;stroke:url(#c)"
       d="M 43.5,24 C 43.5,34.77 34.77,43.5 24,43.5 13.23,43.5 4.5,34.77 4.5,24 4.5,13.23 13.23,4.5 24,4.5 34.77,4.5 43.5,13.23 43.5,24 Z"
       stroke="url(#c)"
       stroke-linecap="round"
       fill="none"
       id="path47" />
    <path
       opacity="0.7"
       style="color:#000000;stroke:#323232;stroke-opacity:1"
       d="M 24,3.5 C 12.689,3.5 3.5,12.689 3.5,24 3.5,35.311 12.689,44.5 24,44.5 35.311,44.5 44.5,35.311 44.5,24 44.5,12.689 35.311,3.5 24,3.5 Z"
       stroke="#006344"
       fill="none"
       id="path49" />
  </g>
</svg>
