<?xml version="1.0" encoding="UTF-8" standalone="no"?>
<svg
   version="1.0"
   width="48"
   height="48"
   id="svg3786"
   sodipodi:docname="rescuezilla.svg"
   inkscape:version="1.2.2 (b0a8486541, 2022-12-01)"
   xmlns:inkscape="http://www.inkscape.org/namespaces/inkscape"
   xmlns:sodipodi="http://sodipodi.sourceforge.net/DTD/sodipodi-0.dtd"
   xmlns:xlink="http://www.w3.org/1999/xlink"
   xmlns="http://www.w3.org/2000/svg"
   xmlns:svg="http://www.w3.org/2000/svg"
   xmlns:rdf="http://www.w3.org/1999/02/22-rdf-syntax-ns#"
   xmlns:cc="http://creativecommons.org/ns#"
   xmlns:dc="http://purl.org/dc/elements/1.1/">
  <sodipodi:namedview
     id="namedview9829"
     pagecolor="#ffffff"
     bordercolor="#000000"
     borderopacity="0.25"
     inkscape:showpageshadow="2"
     inkscape:pageopacity="0.0"
     inkscape:pagecheckerboard="0"
     inkscape:deskcolor="#d1d1d1"
     showgrid="false"
     inkscape:zoom="12.418563"
     inkscape:cx="25.12368"
     inkscape:cy="27.016009"
     inkscape:window-width="1920"
     inkscape:window-height="1025"
     inkscape:window-x="0"
     inkscape:window-y="0"
     inkscape:window-maximized="1"
     inkscape:current-layer="svg3786" />
  <metadata
     id="metadata82">
    <rdf:RDF>
      <cc:Work
         rdf:about="">
        <dc:format>image/svg+xml</dc:format>
        <dc:type
           rdf:resource="http://purl.org/dc/dcmitype/StillImage" />
      </cc:Work>
    </rdf:RDF>
  </metadata>
  <defs
     id="defs3788">
    <linearGradient
       id="linearGradient4231">
      <stop
         id="stop4233"
         style="stop-color:#ffffff;stop-opacity:1"
         offset="0" />
      <stop
         id="stop4235"
         style="stop-color:#ffffff;stop-opacity:0.23529412"
         offset="0.00818416" />
      <stop
         id="stop4237"
         style="stop-color:#ffffff;stop-opacity:0.15686275"
         offset="0.99223143" />
      <stop
         id="stop4239"
         style="stop-color:#ffffff;stop-opacity:0.39215687"
         offset="1" />
    </linearGradient>
    <linearGradient
       id="linearGradient4170">
      <stop
         id="stop4172"
         style="stop-color:#ffffff;stop-opacity:1"
         offset="0" />
      <stop
         id="stop4174"
         style="stop-color:#ffffff;stop-opacity:0.23529412"
         offset="0.02783963" />
      <stop
         id="stop4176"
         style="stop-color:#ffffff;stop-opacity:0.15686275"
         offset="0.99811679" />
      <stop
         id="stop4178"
         style="stop-color:#ffffff;stop-opacity:0.39215687"
         offset="1" />
    </linearGradient>
    <linearGradient
       id="linearGradient5060">
      <stop
         id="stop5062"
         style="stop-color:#000000;stop-opacity:1"
         offset="0" />
      <stop
         id="stop5064"
         style="stop-color:#000000;stop-opacity:0"
         offset="1" />
    </linearGradient>
    <linearGradient
       id="linearGradient5048">
      <stop
         id="stop5050"
         style="stop-color:#000000;stop-opacity:0"
         offset="0" />
      <stop
         id="stop5056"
         style="stop-color:#000000;stop-opacity:1"
         offset="0.5" />
      <stop
         id="stop5052"
         style="stop-color:#000000;stop-opacity:0"
         offset="1" />
    </linearGradient>
    <linearGradient
       id="linearGradient2215">
      <stop
         id="stop2223"
         style="stop-color:#7a7a7a;stop-opacity:1"
         offset="0" />
      <stop
         id="stop2219"
         style="stop-color:#474747;stop-opacity:1"
         offset="1" />
    </linearGradient>
    <linearGradient
       id="linearGradient7056">
      <stop
         id="stop7064"
         style="stop-color:#e6e6e6;stop-opacity:1"
         offset="0" />
      <stop
         id="stop7060"
         style="stop-color:#c8c8c8;stop-opacity:1"
         offset="1" />
    </linearGradient>
    <radialGradient
       cx="11.734284"
       cy="8.4900017"
       r="23.047892"
       fx="11.734284"
       fy="8.4900017"
       id="radialGradient2927"
       xlink:href="#linearGradient7056"
       gradientUnits="userSpaceOnUse"
       gradientTransform="matrix(1.3767077,0.69719425,-0.46810846,0.92434578,-0.04915651,-2.9386274)" />
    <linearGradient
       x1="29.9375"
       y1="41"
       x2="30"
       y2="49.999996"
       id="linearGradient2933"
       xlink:href="#linearGradient2215"
       gradientUnits="userSpaceOnUse"
       gradientTransform="matrix(1.0017502,0,0,0.7596403,-5.0508975,4.9363745)" />
    <radialGradient
       cx="605.71429"
       cy="486.64789"
       r="117.14286"
       fx="605.71429"
       fy="486.64789"
       id="radialGradient2936"
       xlink:href="#linearGradient5060"
       gradientUnits="userSpaceOnUse"
       gradientTransform="matrix(-0.04484747,0,0,0.02058824,32.61113,32.451372)" />
    <radialGradient
       cx="605.71429"
       cy="486.64789"
       r="117.14286"
       fx="605.71429"
       fy="486.64789"
       id="radialGradient2939"
       xlink:href="#linearGradient5060"
       gradientUnits="userSpaceOnUse"
       gradientTransform="matrix(0.04484747,0,0,0.02058824,15.38888,32.451372)" />
    <linearGradient
       x1="302.85715"
       y1="366.64789"
       x2="302.85715"
       y2="609.50507"
       id="linearGradient2942"
       xlink:href="#linearGradient5048"
       gradientUnits="userSpaceOnUse"
       gradientTransform="matrix(0.07635654,0,0,0.02058824,-3.5974283,32.451372)" />
    <linearGradient
       id="linearGradient7056-0">
      <stop
         id="stop7064-4"
         style="stop-color:#e6e6e6;stop-opacity:1"
         offset="0" />
      <stop
         id="stop7060-2"
         style="stop-color:#c8c8c8;stop-opacity:1"
         offset="1" />
    </linearGradient>
    <linearGradient
       id="linearGradient2215-9">
      <stop
         id="stop2223-6"
         style="stop-color:#7a7a7a;stop-opacity:1"
         offset="0" />
      <stop
         id="stop2219-1"
         style="stop-color:#474747;stop-opacity:1"
         offset="1" />
    </linearGradient>
    <linearGradient
       id="linearGradient5048-0">
      <stop
         id="stop5050-9"
         style="stop-color:#000000;stop-opacity:0"
         offset="0" />
      <stop
         id="stop5056-3"
         style="stop-color:#000000;stop-opacity:1"
         offset="0.5" />
      <stop
         id="stop5052-4"
         style="stop-color:#000000;stop-opacity:0"
         offset="1" />
    </linearGradient>
    <linearGradient
       id="linearGradient5060-4">
      <stop
         id="stop5062-7"
         style="stop-color:#000000;stop-opacity:1"
         offset="0" />
      <stop
         id="stop5064-7"
         style="stop-color:#000000;stop-opacity:0"
         offset="1" />
    </linearGradient>
    <linearGradient
       x1="302.85715"
       y1="366.64789"
       x2="302.85715"
       y2="609.50507"
       id="linearGradient3295"
       xlink:href="#linearGradient5048-0"
       gradientUnits="userSpaceOnUse"
       gradientTransform="matrix(0.07635654,0,0,0.02184879,1.4025717,30.138555)" />
    <radialGradient
       cx="605.71429"
       cy="486.64789"
       r="117.14286"
       fx="605.71429"
       fy="486.64789"
       id="radialGradient3297"
       xlink:href="#linearGradient5060-4"
       gradientUnits="userSpaceOnUse"
       gradientTransform="matrix(0.04484747,0,0,0.02184879,20.38888,30.138555)" />
    <radialGradient
       cx="605.71429"
       cy="486.64789"
       r="117.14286"
       fx="605.71429"
       fy="486.64789"
       id="radialGradient3299"
       xlink:href="#linearGradient5060-4"
       gradientUnits="userSpaceOnUse"
       gradientTransform="matrix(-0.04484747,0,0,0.02184879,37.61113,30.138555)" />
    <linearGradient
       x1="34.947395"
       y1="50.909214"
       x2="34.947395"
       y2="53.83601"
       id="linearGradient3308"
       xlink:href="#linearGradient4231"
       gradientUnits="userSpaceOnUse"
       gradientTransform="matrix(0.84051728,0,0,1.0278991,14.415778,-14.334416)" />
    <linearGradient
       x1="29.9375"
       y1="41"
       x2="30"
       y2="49.999996"
       id="linearGradient3315"
       xlink:href="#linearGradient2215-9"
       gradientUnits="userSpaceOnUse"
       gradientTransform="matrix(0.6886478,0,0,0.5067185,-39.903318,18.202071)" />
    <radialGradient
       cx="10"
       cy="7.2368369"
       r="16"
       fx="10"
       fy="7.2368369"
       id="radialGradient3324"
       xlink:href="#linearGradient7056-0"
       gradientUnits="userSpaceOnUse"
       gradientTransform="matrix(1.4045128,0,0,0.9375,-39.977562,17.96228)" />
    <linearGradient
       x1="23.99999"
       y1="6.2531767"
       x2="23.99999"
       y2="42.941334"
       id="linearGradient3311-4"
       xlink:href="#linearGradient4170"
       gradientUnits="userSpaceOnUse"
       gradientTransform="matrix(0.26232885,0,0,0.65751536,6.9297476,6.8105801)" />
    <radialGradient
       xlink:href="#linearGradient5060"
       id="radialGradient3300-8"
       gradientUnits="userSpaceOnUse"
       gradientTransform="matrix(0.3823536,7.5555777e-8,-1.8372241e-8,0.1115198,-5.9254271,36.335849)"
       cx="99.189415"
       cy="185.29727"
       fx="99.189415"
       fy="185.29727"
       r="62.769119" />
    <radialGradient
       xlink:href="#linearGradient5060"
       id="radialGradient4192-6"
       gradientUnits="userSpaceOnUse"
       gradientTransform="matrix(0.2549024,5.3967361e-8,-1.2248161e-8,0.07965545,6.7163816,44.240666)"
       cx="99.189415"
       cy="185.29727"
       fx="99.189415"
       fy="185.29727"
       r="62.769119" />
    <linearGradient
       x1="2035.1652"
       y1="3208.0737"
       x2="2035.1652"
       y2="3241.9966"
       id="linearGradient11527-6-5"
       xlink:href="#linearGradient27416-1-5"
       gradientUnits="userSpaceOnUse"
       gradientTransform="matrix(1.0475037,0,0,0.78310967,-2111.6702,-2508.588)" />
    <linearGradient
       id="linearGradient27416-1-5">
      <stop
         id="stop27420-2-2"
         style="stop-color:#9bdb4d;stop-opacity:1"
         offset="0" />
      <stop
         id="stop27422-3-2"
         style="stop-color:#68b723;stop-opacity:1"
         offset="1" />
    </linearGradient>
    <linearGradient
       x1="71.204407"
       y1="6.2375584"
       x2="71.204407"
       y2="44.340794"
       id="linearGradient3019"
       xlink:href="#linearGradient4011"
       gradientUnits="userSpaceOnUse"
       gradientTransform="matrix(0.70270267,0,0,0.70270267,-26.407335,-1.2225827)" />
    <linearGradient
       id="linearGradient4011">
      <stop
         id="stop4013"
         style="stop-color:#ffffff;stop-opacity:1"
         offset="0" />
      <stop
         id="stop4015"
         style="stop-color:#ffffff;stop-opacity:0.23529412"
         offset="0.507761" />
      <stop
         id="stop4017"
         style="stop-color:#ffffff;stop-opacity:0.15686275"
         offset="0.83456558" />
      <stop
         id="stop4019"
         style="stop-color:#ffffff;stop-opacity:0.39215687"
         offset="1" />
    </linearGradient>
    <radialGradient
       r="62.769119"
       fy="185.29727"
       fx="99.189415"
       cy="185.29727"
       cx="99.189415"
       gradientTransform="matrix(0.3823536,7.5555777e-8,-1.8372241e-8,0.1115198,-5.9254271,36.335849)"
       gradientUnits="userSpaceOnUse"
       id="radialGradient3300-8-2"
       xlink:href="#linearGradient5060" />
    <radialGradient
       r="62.769119"
       fy="185.29727"
       fx="99.189415"
       cy="185.29727"
       cx="99.189415"
       gradientTransform="matrix(0.2549024,5.3967361e-8,-1.2248161e-8,0.07965545,6.7163816,44.240666)"
       gradientUnits="userSpaceOnUse"
       id="radialGradient4192-6-3"
       xlink:href="#linearGradient5060" />
    <linearGradient
       gradientTransform="matrix(1.0475037,0,0,0.78310967,-2111.7953,-2507.2675)"
       gradientUnits="userSpaceOnUse"
       xlink:href="#linearGradient27416-1-5"
       id="linearGradient11527-6-5-7"
       y2="3241.9966"
       x2="2035.1652"
       y1="3208.0737"
       x1="2035.1652" />
    <linearGradient
       gradientTransform="matrix(0.70270267,0,0,0.70270267,-26.532334,0.0979021)"
       gradientUnits="userSpaceOnUse"
       xlink:href="#linearGradient4011"
       id="linearGradient3019-2"
       y2="44.340794"
       x2="71.204407"
       y1="6.2375584"
       x1="71.204407" />
  </defs>
  <path
     d="M 46.55,36.601962 39.740367,10.827625 c -0.192553,-0.733973 -1.2012,-1.329879 -2.049166,-1.329879 l -27.617218,0 c -1.30274,0 -2.049257,0.198573 -2.323959,1.329879 L 1.45,36.576866 z"
     id="path6345"
     style="fill:url(#radialGradient2927);fill-opacity:1;fill-rule:nonzero;stroke:none;stroke-width:0.99578345;marker:none;visibility:visible;display:inline;overflow:visible;enable-background:accumulate" />
  <rect
     width="36.869301"
     height="5"
     x="5.5653324"
     y="40"
     id="rect2723"
     style="opacity:0.3;fill:url(#linearGradient2942);fill-opacity:1;fill-rule:nonzero;stroke:none;stroke-width:0.5;marker:none;visibility:visible;display:inline;overflow:visible" />
  <path
     d="m 42.41667,40.000174 c 0,0 0,4.999723 0,4.999723 C 44.7262,45.009311 48,43.879712 48,42.499715 48,41.119718 45.42274,40.000174 42.41667,40.000174 z"
     id="path2725"
     style="opacity:0.3;fill:url(#radialGradient2939);fill-opacity:1;fill-rule:nonzero;stroke:none;stroke-width:0.5;marker:none;visibility:visible;display:inline;overflow:visible" />
  <path
     d="m 5.58333,40.000174 c 0,0 0,4.999723 0,4.999723 C 3.2737899,45.009311 0,43.879712 0,42.499715 0,41.119718 2.5772699,40.000174 5.58333,40.000174 z"
     id="path2727"
     style="opacity:0.3;fill:url(#radialGradient2936);fill-opacity:1;fill-rule:nonzero;stroke:none;stroke-width:1;marker:none;visibility:visible;display:inline;overflow:visible" />
  <path
     d="M 46.55,36.5 39.740367,10.824766 c -0.192553,-0.731151 -1.2012,-1.3247661 -2.049166,-1.3247661 l -27.617218,0 c -1.30274,0 -2.049257,0.1978095 -2.323959,1.3247661 L 1.45,36.475001 z"
     id="path6345-1"
     style="opacity:0.35;color:#000000;fill:none;stroke:#000000;stroke-width:0.99999988;stroke-linecap:round;stroke-linejoin:round;stroke-miterlimit:4;stroke-opacity:1;stroke-dasharray:none;stroke-dashoffset:0;marker:none;visibility:visible;display:inline;overflow:visible;enable-background:accumulate" />
  <path
     d="m 10.0625,10.46875 c -0.6058109,0 -0.9673014,0.09427 -1.09375,0.15625 -0.1264486,0.06198 -0.1572339,0.02421 -0.25,0.40625 l -6.03125,24.5625 42.625,0.03125 -6.5,-24.5625 c -0.0041,-0.01553 -0.138916,-0.199012 -0.375,-0.34375 -0.236084,-0.144738 -0.549495,-0.25 -0.75,-0.25 l -27.625,0 z"
     transform="matrix(1,0,0,0.99378882,0,0.09627324)"
     id="path4129"
     style="opacity:0.8;color:#000000;fill:none;stroke:url(#linearGradient3311-4);stroke-width:1.00312006;stroke-linecap:round;stroke-linejoin:round;stroke-miterlimit:4;stroke-opacity:1;stroke-dasharray:none;stroke-dashoffset:0;marker:none;visibility:visible;display:inline;overflow:visible;enable-background:accumulate" />
  <path
     d="m 1.4638537,36.464001 45.0720003,0 -0.901202,6.072 -43.1694186,0 -1.0013797,-6.072 z"
     id="rect6431"
     style="fill:url(#linearGradient2933);fill-opacity:1;fill-rule:evenodd;stroke:none;display:inline;enable-background:new" />
  <path
     d="m 1.4638537,36.5 45.0720003,0 -0.901202,6 -43.1694185,0 -1.0013798,-6 z"
     id="rect6431-3"
     style="opacity:0.5;color:#000000;fill:none;stroke:#000000;stroke-width:1;stroke-linecap:butt;stroke-linejoin:round;stroke-miterlimit:4;stroke-opacity:1;stroke-dasharray:none;stroke-dashoffset:0;marker:none;visibility:visible;display:inline;overflow:visible;enable-background:accumulate" />
  <path
     d="m 3.6168297,41.499995 41.1606943,3e-6 c 0.108461,-0.399966 0.576759,-4 0.576759,-4 l -42.699808,0 c 0,0 0.8032214,2.982569 0.9623547,3.999997 z"
     id="path4497"
     style="opacity:0.2;color:#000000;fill:none;stroke:url(#linearGradient3308);stroke-width:0.99999988;stroke-linecap:round;stroke-linejoin:miter;stroke-miterlimit:4;stroke-opacity:1;stroke-dasharray:none;stroke-dashoffset:0;marker:none;visibility:visible;display:inline;overflow:visible;enable-background:accumulate" />
  <g
     style="stroke-width:1.40587"
     transform="matrix(0.47222222,0,0,0.47618849,8.763887,2.4395727)"
     id="g4198-4-3">
    <path
       style="opacity:0.2;fill:url(#radialGradient3300-8-2);fill-opacity:1;stroke:none;stroke-width:1.40587"
       id="path3818-0-6-6"
       d="m 55.999998,57.0017 a 24,6.9985714 0 1 1 -47.9999991,0 24,6.9985714 0 1 1 47.9999991,0 z" />
    <path
       d="m 47.999998,59.0017 a 16,4.9988822 0 1 1 -31.999999,0 16,4.9988822 0 1 1 31.999999,0 z"
       id="path4190-2-1"
       style="opacity:0.4;fill:url(#radialGradient4192-6-3);fill-opacity:1;stroke:none;stroke-width:1.40587" />
  </g>
  <path
     style="color:#000000;display:inline;overflow:visible;visibility:visible;opacity:0.99;fill:url(#linearGradient11527-6-5-7);fill-opacity:1;fill-rule:nonzero;stroke:none;stroke-width:1.30159;marker:none;enable-background:accumulate"
     id="path2555-7-8-5-0-9-2"
     d="m 23.874999,4.2498357 c -7.540797,0 -13.666666,6.1258683 -13.666666,13.6666663 0,7.540798 6.125869,13.666666 13.666666,13.666666 7.540799,0 13.666681,-6.125868 13.666668,-13.666666 0,-7.540798 -6.125869,-13.6666663 -13.666668,-13.6666663 z" />
  <path
     style="color:#000000;display:inline;overflow:visible;visibility:visible;opacity:0.5;fill:none;stroke:url(#linearGradient3019-2);stroke-width:0.666667;stroke-linecap:round;stroke-linejoin:round;stroke-miterlimit:4;stroke-dasharray:none;stroke-dashoffset:0;stroke-opacity:1;marker:none;enable-background:accumulate"
     id="path8655-9"
     d="m 36.875,17.916041 c 0,7.179933 -5.820727,13.00046 -12.999835,13.00046 -7.179766,0 -13.000165,-5.820593 -13.000165,-13.00046 0,-7.179601 5.820399,-12.9995381 13.000165,-12.9995381 7.179108,0 12.999835,5.8199371 12.999835,12.9995381 z" />
  <path
     style="color:#000000;display:inline;overflow:visible;visibility:visible;opacity:0.5;vector-effect:none;fill:none;fill-opacity:1;stroke:#206b00;stroke-width:0.666667;stroke-linecap:round;stroke-linejoin:round;stroke-miterlimit:4;stroke-dasharray:none;stroke-dashoffset:0;stroke-opacity:1;marker:none;enable-background:accumulate"
     id="path2555-6-3"
     d="m 23.875002,4.2498347 c -7.540795,0 -13.666669,6.1258703 -13.666669,13.6666663 0,7.540796 6.125874,13.66667 13.666669,13.666668 7.540792,0 13.666672,-6.125872 13.666665,-13.666668 0,-7.540796 -6.125873,-13.6666663 -13.666665,-13.6666663 z" />
  <path
     style="color:#000000;display:inline;overflow:visible;visibility:visible;opacity:0.07;vector-effect:none;fill:#206b00;fill-opacity:1;fill-rule:nonzero;stroke:none;stroke-width:0.666667;stroke-linecap:butt;stroke-linejoin:miter;stroke-miterlimit:4;stroke-dasharray:none;stroke-dashoffset:0;stroke-opacity:1;marker:none;enable-background:accumulate"
     id="path4451"
     d="m 23.875,9.9166668 c -4.02736,0 -7.408894,2.7695072 -8.375,6.5000002 A 0.66412537,0.66412537 0 0 0 16.145833,17.25 H 18.125 a 0.66412537,0.66412537 0 0 0 0.625,-0.458333 c 0.735239,-2.116799 2.749128,-3.625 5.125,-3.625 1.422465,0 2.659039,0.608953 3.625,1.5 l -2.104167,2.104166 A 0.66412537,0.66412537 0 0 0 25.875,17.916667 h 6 A 0.66412537,0.66412537 0 0 0 32.541667,17.25 v -6 A 0.66412537,0.66412537 0 0 0 31.395833,10.770833 L 29.8125,12.354167 C 28.260103,10.87119 26.186595,9.9166668 23.875,9.9166668 Z M 15.8125,19.916667 a 0.66412537,0.66412537 0 0 0 -0.604167,0.666666 v 6 a 0.66412537,0.66412537 0 0 0 1.145834,0.479167 l 1.979166,-1.979167 C 19.840057,26.372692 21.736933,27.25 23.875,27.25 c 4.02736,0 7.408894,-2.769507 8.375,-6.5 A 0.66412537,0.66412537 0 0 0 31.604167,19.916667 H 29.625 A 0.66412537,0.66412537 0 0 0 29,20.375 C 28.264761,22.491798 26.250872,24 23.875,24 22.627905,24 21.540586,23.503446 20.625,22.791666 L 22.354167,21.0625 A 0.66412537,0.66412537 0 0 0 21.875,19.916667 h -6 a 0.66412537,0.66412537 0 0 0 -0.0625,0 z" />
  <path
     style="color:#000000;display:inline;overflow:visible;visibility:visible;opacity:0.2;vector-effect:none;fill:#206b00;fill-opacity:1;fill-rule:nonzero;stroke:none;stroke-width:0.666667;stroke-linecap:butt;stroke-linejoin:miter;stroke-miterlimit:4;stroke-dasharray:none;stroke-dashoffset:0;stroke-opacity:1;marker:none;enable-background:accumulate"
     id="path4285-6"
     d="m 23.875,10.583333 c -3.723542,0 -6.837093,2.555375 -7.729167,6 H 18.125 C 18.951342,14.204246 21.215442,12.5 23.875,12.5 c 1.849695,0 3.508518,0.822597 4.625,2.125 l -2.625,2.625 h 6 v -6 l -2.020833,2.020834 C 28.393415,11.618331 26.254671,10.583333 23.875,10.583333 Z m -8,10 v 6 l 2.354167,-2.354167 c 1.443445,1.452986 3.43498,2.354167 5.645833,2.354167 3.723542,0 6.837093,-2.555375 7.729167,-6 H 29.625 c -0.826342,2.379088 -3.090442,4.083333 -5.75,4.083333 -1.678466,0 -3.19022,-0.692836 -4.291667,-1.791666 L 21.875,20.583333 Z" />
  <path
     style="color:#000000;display:inline;overflow:visible;visibility:visible;vector-effect:none;fill:#fafafa;fill-opacity:1;fill-rule:nonzero;stroke:none;stroke-width:0.666667px;stroke-linecap:butt;stroke-linejoin:miter;stroke-miterlimit:4;stroke-dasharray:none;stroke-dashoffset:0;stroke-opacity:1;marker:none;enable-background:accumulate"
     id="path4285-62"
     d="m 23.875,9.9166668 c -3.723542,0 -6.837093,2.5553752 -7.729167,6.0000002 H 18.125 c 0.826342,-2.379088 3.090442,-4.083334 5.75,-4.083334 1.849695,0 3.508518,0.822597 4.625,2.125001 l -2.625,2.624999 h 6 v -6 l -2.020833,2.020834 C 28.393415,10.951665 26.254671,9.9166668 23.875,9.9166668 Z m -8,10.0000002 v 5.999999 L 18.229167,23.5625 c 1.443445,1.452985 3.43498,2.354166 5.645833,2.354166 3.723542,0 6.837093,-2.555374 7.729167,-5.999999 H 29.625 C 28.798658,22.295754 26.534558,24 23.875,24 22.196534,24 20.68478,23.307163 19.583333,22.208333 L 21.875,19.916667 Z" />
</svg>
