<?xml version="1.0" encoding="UTF-8" standalone="no"?>
<svg
   width="48"
   height="48"
   version="1"
   id="svg56"
   sodipodi:docname="wxHexEditor.svg"
   inkscape:version="1.2.2 (b0a8486541, 2022-12-01)"
   xmlns:inkscape="http://www.inkscape.org/namespaces/inkscape"
   xmlns:sodipodi="http://sodipodi.sourceforge.net/DTD/sodipodi-0.dtd"
   xmlns:xlink="http://www.w3.org/1999/xlink"
   xmlns="http://www.w3.org/2000/svg"
   xmlns:svg="http://www.w3.org/2000/svg">
  <defs
     id="defs60">
    <linearGradient
       inkscape:collect="always"
       id="linearGradient4038">
      <stop
         style="stop-color:#ffffff;stop-opacity:0.25;"
         offset="0"
         id="stop4034" />
      <stop
         style="stop-color:#848484;stop-opacity:0;"
         offset="0.1991784"
         id="stop4166" />
      <stop
         style="stop-color:#000000;stop-opacity:0.39690387;"
         offset="1"
         id="stop4036" />
    </linearGradient>
    <linearGradient
       x1="23.575972"
       y1="25.356892"
       x2="23.575972"
       y2="31.210939"
       id="linearGradient2712"
       xlink:href="#linearGradient1078"
       gradientUnits="userSpaceOnUse"
       gradientTransform="matrix(0.6565695,-0.659788,0.7345237,0.7308691,-21.951313,5.3142621)"
       spreadMethod="pad" />
    <linearGradient
       id="linearGradient1078">
      <stop
         offset="0"
         style="stop-color:#ad5f00;stop-opacity:1"
         id="stop1062" />
      <stop
         offset="0.13482948"
         style="stop-color:#ffe16b;stop-opacity:1"
         id="stop1064" />
      <stop
         offset="0.20224422"
         style="stop-color:#f9c440;stop-opacity:1"
         id="stop1066" />
      <stop
         offset="0.26965895"
         style="stop-color:#fff394;stop-opacity:1"
         id="stop1068" />
      <stop
         offset="0.44650277"
         style="stop-color:#f9c440;stop-opacity:1"
         id="stop1070" />
      <stop
         offset="0.57114136"
         style="stop-color:#f9c440;stop-opacity:1"
         id="stop1072" />
      <stop
         offset="0.72038066"
         style="stop-color:#ffe16b;stop-opacity:1"
         id="stop1074" />
      <stop
         offset="1"
         style="stop-color:#ad5f00;stop-opacity:1"
         id="stop1076" />
    </linearGradient>
    <linearGradient
       xlink:href="#linearGradient3155-40"
       id="linearGradient1059"
       gradientUnits="userSpaceOnUse"
       gradientTransform="matrix(0.81596967,-0.81996955,0.91284938,0.90830753,-9.8881555,19.417407)"
       x1="23.575972"
       y1="25.356892"
       x2="23.575972"
       y2="31.210939"
       spreadMethod="pad" />
    <linearGradient
       id="linearGradient3155-40">
      <stop
         id="stop2646"
         style="stop-color:#555761;stop-opacity:1"
         offset="0" />
      <stop
         id="stop2543"
         style="stop-color:#d4d4d4;stop-opacity:1"
         offset="0.13482948" />
      <stop
         id="stop2545"
         style="stop-color:#abacae;stop-opacity:1"
         offset="0.20224422" />
      <stop
         id="stop2650"
         style="stop-color:#fafafa;stop-opacity:1"
         offset="0.26965895" />
      <stop
         id="stop2652"
         style="stop-color:#abacae;stop-opacity:1"
         offset="0.44650277" />
      <stop
         id="stop2551"
         style="stop-color:#abacae;stop-opacity:1"
         offset="0.57114136" />
      <stop
         id="stop2553"
         style="stop-color:#d4d4d4;stop-opacity:1"
         offset="0.72038066" />
      <stop
         id="stop2555"
         style="stop-color:#555761;stop-opacity:1"
         offset="1" />
    </linearGradient>
    <linearGradient
       x1="30.037716"
       y1="24.989594"
       x2="30.037716"
       y2="30.000141"
       id="linearGradient2714"
       xlink:href="#linearGradient3240-279"
       gradientUnits="userSpaceOnUse"
       gradientTransform="matrix(0.6380091,-0.6411367,0.8596262,0.8553492,-24.35737,1.9381758)" />
    <linearGradient
       id="linearGradient3240-279">
      <stop
         id="stop2559"
         style="stop-color:#555761;stop-opacity:1"
         offset="0" />
      <stop
         id="stop2640"
         style="stop-color:#abacae;stop-opacity:1"
         offset="0.5" />
      <stop
         id="stop2642"
         style="stop-color:#555761;stop-opacity:1"
         offset="1" />
    </linearGradient>
    <linearGradient
       x1="30.037716"
       y1="24.989594"
       x2="30.037716"
       y2="30.000141"
       id="linearGradient2716"
       xlink:href="#linearGradient3223-789"
       gradientUnits="userSpaceOnUse"
       gradientTransform="matrix(0.6380091,-0.6411367,0.8596262,0.8553492,-24.540087,2.1217894)" />
    <linearGradient
       id="linearGradient3223-789">
      <stop
         id="stop2567"
         style="stop-color:#abacae;stop-opacity:1"
         offset="0" />
      <stop
         id="stop2569"
         style="stop-color:#fafafa;stop-opacity:1"
         offset="0.5" />
      <stop
         id="stop2571"
         style="stop-color:#abacae;stop-opacity:1"
         offset="1" />
    </linearGradient>
    <linearGradient
       x1="30.037716"
       y1="24.989594"
       x2="30.037716"
       y2="30.000141"
       id="linearGradient2718"
       xlink:href="#linearGradient3240-279"
       gradientUnits="userSpaceOnUse"
       gradientTransform="matrix(0.6380091,-0.6411367,0.8596262,0.8553492,-23.72243,1.3001231)" />
    <linearGradient
       x1="30.037716"
       y1="24.989594"
       x2="30.037716"
       y2="30.000141"
       id="linearGradient2720"
       xlink:href="#linearGradient3223-789"
       gradientUnits="userSpaceOnUse"
       gradientTransform="matrix(0.6380091,-0.6411367,0.8596262,0.8553492,-23.905148,1.4837352)" />
    <linearGradient
       x1="30.037716"
       y1="24.989594"
       x2="30.037716"
       y2="30.000141"
       id="linearGradient2722"
       xlink:href="#linearGradient3240-279"
       gradientUnits="userSpaceOnUse"
       gradientTransform="matrix(0.6380091,-0.6411367,0.8596262,0.8553492,-23.084421,0.6589858)" />
    <linearGradient
       x1="30.037716"
       y1="24.989594"
       x2="30.037716"
       y2="30.000141"
       id="linearGradient2724"
       xlink:href="#linearGradient3223-789"
       gradientUnits="userSpaceOnUse"
       gradientTransform="matrix(0.6380091,-0.6411367,0.8596262,0.8553492,-23.267138,0.8426001)" />
    <linearGradient
       x1="9"
       y1="29.056757"
       x2="9"
       y2="26.02973"
       id="linearGradient2726"
       xlink:href="#linearGradient3290-678"
       gradientUnits="userSpaceOnUse"
       gradientTransform="matrix(0.6380091,-0.6411367,0.8596263,0.8553493,-24.599696,2.1816867)" />
    <linearGradient
       id="linearGradient3290-678">
      <stop
         id="stop2607"
         style="stop-color:#fff394;stop-opacity:1"
         offset="0" />
      <stop
         id="stop2609"
         style="stop-color:#fafafa;stop-opacity:1"
         offset="1" />
    </linearGradient>
    <linearGradient
       x1="5.5178981"
       y1="37.371799"
       x2="9.5220556"
       y2="41.391716"
       id="linearGradient2728"
       xlink:href="#linearGradient3191-577"
       gradientUnits="userSpaceOnUse"
       gradientTransform="matrix(0.5603647,0.02418622,0.02415646,0.5596736,-1.3918045,-1.4448192)" />
    <linearGradient
       id="linearGradient3191-577">
      <stop
         id="stop2613"
         style="stop-color:#d48e15;stop-opacity:1"
         offset="0" />
      <stop
         id="stop2615"
         style="stop-color:#ad5f00;stop-opacity:1"
         offset="1" />
    </linearGradient>
    <linearGradient
       inkscape:collect="always"
       xlink:href="#linearGradient4038"
       id="linearGradient4040"
       x1="24"
       y1="5"
       x2="24"
       y2="44"
       gradientUnits="userSpaceOnUse" />
    <filter
       inkscape:collect="always"
       style="color-interpolation-filters:sRGB"
       id="filter4222"
       x="-0.17254449"
       y="-2.894095"
       width="1.345089"
       height="6.7881899">
      <feGaussianBlur
         inkscape:collect="always"
         stdDeviation="2.4345078"
         id="feGaussianBlur4224" />
    </filter>
  </defs>
  <sodipodi:namedview
     id="namedview58"
     pagecolor="#ffffff"
     bordercolor="#000000"
     borderopacity="0.25"
     inkscape:showpageshadow="2"
     inkscape:pageopacity="0.0"
     inkscape:pagecheckerboard="0"
     inkscape:deskcolor="#d1d1d1"
     showgrid="false"
     inkscape:zoom="12.418563"
     inkscape:cx="37.282897"
     inkscape:cy="20.010367"
     inkscape:window-width="1920"
     inkscape:window-height="1025"
     inkscape:window-x="0"
     inkscape:window-y="0"
     inkscape:window-maximized="1"
     inkscape:current-layer="svg56" />
  <rect
     style="mix-blend-mode:normal;fill:#2d2f36;stroke:#2d2f36;stroke-linecap:round;stroke-linejoin:round;filter:url(#filter4222)"
     id="rect4220"
     width="36.760483"
     height="2.1916416"
     x="5.7412639"
     y="42.161049"
     ry="1.0958208"
     transform="matrix(0.97670869,0,0,0.44936351,0.44031684,24.829692)" />
  <path
     fill="#4f4f4f"
     d="m40 42v-36c0-1.108-0.892-2-2-2h-28c-1.108 0-2 0.892-2 2v36c0 1.108 0.892 2 2 2h28c1.108 0 2-0.892 2-2z"
     id="path2"
     style="fill:#273445" />
  <path
     fill="#4f4f4f"
     d="M 40,42 V 6 C 40,4.892 39.108,4 38,4 H 10 C 8.892,4 8,4.892 8,6 v 36 c 0,1.108 0.892,2 2,2 h 28 c 1.108,0 2,-0.892 2,-2 z"
     id="path2-3"
     style="fill:url(#linearGradient4040);fill-opacity:1" />
  <path
     fill="#fff"
     opacity=".1"
     d="m10 4c-1.108 0-2 0.892-2 2v1c0-1.108 0.892-2 2-2h28c1.108 0 2 0.892 2 2v-1c0-1.108-0.892-2-2-2z"
     id="path6" />
  <path
     opacity=".2"
     d="m8 42v1c0 1.108 0.892 2 2 2h28c1.108 0 2-0.892 2-2v-1c0 1.108-0.892 2-2 2h-28c-1.108 0-2-0.892-2-2z"
     id="path8" />
  <path
     fill="#fff"
     opacity=".5"
     d="m11.5 9a0.50005 0.50005 0 0 0 -0.5 0.5v5a0.50005 0.50005 0 0 0 0.5 0.5h3a0.50005 0.50005 0 0 0 0.5 -0.5v-5a0.50005 0.50005 0 0 0 -0.5 -0.5h-3zm0.5 1h2v4h-2v-4z"
     id="path10"
     style="fill:#d4d4d4" />
  <path
     fill="#fff"
     fill-rule="evenodd"
     opacity=".5"
     d="m18.492 9.0001a0.50005 0.4988 0 0 0 -0.49219 0.50655v4.9875a0.50005 0.4988 0 1 0 1 0v-4.9875a0.50005 0.4988 0 0 0 -0.508 -0.5064z"
     id="path12"
     style="fill:#d4d4d4" />
  <path
     fill="#fff"
     fill-rule="evenodd"
     opacity=".5"
     d="m22.492 9.0001a0.50005 0.4988 0 0 0 -0.49219 0.50655v4.9875a0.50005 0.4988 0 1 0 1 0v-4.9875a0.50005 0.4988 0 0 0 -0.508 -0.5064z"
     id="path14"
     style="fill:#d4d4d4" />
  <path
     fill="#fff"
     opacity=".5"
     d="m26.5 9a0.50005 0.50005 0 0 0 -0.5 0.5v5a0.50005 0.50005 0 0 0 0.5 0.5h3a0.50005 0.50005 0 0 0 0.5 -0.5v-5a0.50005 0.50005 0 0 0 -0.5 -0.5h-3zm0.5 1h2v4h-2v-4z"
     id="path16"
     style="fill:#d4d4d4" />
  <path
     fill="#fff"
     opacity=".5"
     d="m33.5 9a0.50005 0.50005 0 0 0 -0.5 0.5v5a0.50005 0.50005 0 0 0 0.5 0.5h3a0.50005 0.50005 0 0 0 0.5 -0.5v-5a0.50005 0.50005 0 0 0 -0.5 -0.5h-3zm0.5 1h2v4h-2v-4z"
     id="path18"
     style="fill:#d4d4d4" />
  <path
     fill="#fff"
     opacity=".5"
     d="m36.5 18a0.50005 0.50005 0 0 1 0.5 0.5v5a0.50005 0.50005 0 0 1 -0.5 0.5h-3a0.50005 0.50005 0 0 1 -0.5 -0.5v-5a0.50005 0.50005 0 0 1 0.5 -0.5h3zm-0.5 1h-2v4h2v-4z"
     id="path20"
     style="fill:#d4d4d4" />
  <path
     fill="#fff"
     fill-rule="evenodd"
     opacity=".5"
     d="m29.508 18a0.50005 0.4988 0 0 1 0.49219 0.50655v4.9875a0.50005 0.4988 0 1 1 -1 0v-4.9875a0.50005 0.4988 0 0 1 0.508 -0.506z"
     id="path22"
     style="fill:#d4d4d4" />
  <path
     fill="#fff"
     fill-rule="evenodd"
     opacity=".5"
     d="m25.508 18a0.50005 0.4988 0 0 1 0.49219 0.50655v4.9875a0.50005 0.4988 0 1 1 -1 0v-4.9875a0.50005 0.4988 0 0 1 0.508 -0.506z"
     id="path24"
     style="fill:#d4d4d4" />
  <path
     fill="#fff"
     opacity=".5"
     d="m21.5 18a0.50005 0.50005 0 0 1 0.5 0.5v5a0.50005 0.50005 0 0 1 -0.5 0.5h-3a0.50005 0.50005 0 0 1 -0.5 -0.5v-5a0.50005 0.50005 0 0 1 0.5 -0.5h3zm-0.5 1h-2v4h2v-4z"
     id="path26"
     style="fill:#d4d4d4" />
  <path
     fill="#fff"
     fill-rule="evenodd"
     opacity=".5"
     d="m13.508 18a0.50005 0.4988 0 0 1 0.49219 0.50655v4.9875a0.50005 0.4988 0 1 1 -1 0v-4.9875a0.50005 0.4988 0 0 1 0.508 -0.506z"
     id="path28"
     style="fill:#d4d4d4" />
  <path
     fill="#fff"
     opacity=".5"
     d="m36.5 26a0.50005 0.50005 0 0 1 0.5 0.5v5a0.50005 0.50005 0 0 1 -0.5 0.5h-3a0.50005 0.50005 0 0 1 -0.5 -0.5v-5a0.50005 0.50005 0 0 1 0.5 -0.5h3zm-0.5 1h-2v4h2v-4z"
     id="path30"
     style="fill:#d4d4d4" />
  <path
     fill="#fff"
     fill-rule="evenodd"
     opacity=".5"
     d="m29.508 26a0.50005 0.4988 0 0 1 0.49219 0.50655v4.9875a0.50005 0.4988 0 1 1 -1 0v-4.9875a0.50005 0.4988 0 0 1 0.508 -0.5064z"
     id="path32"
     style="fill:#d4d4d4" />
  <path
     fill="#fff"
     fill-rule="evenodd"
     opacity=".5"
     d="m25.508 26a0.50005 0.4988 0 0 1 0.49219 0.50655v4.9875a0.50005 0.4988 0 1 1 -1 0v-4.9875a0.50005 0.4988 0 0 1 0.508 -0.5064z"
     id="path34"
     style="fill:#d4d4d4" />
  <path
     fill="#fff"
     opacity=".5"
     d="m21.5 26a0.50005 0.50005 0 0 1 0.5 0.5v5a0.50005 0.50005 0 0 1 -0.5 0.5h-3a0.50005 0.50005 0 0 1 -0.5 -0.5v-5a0.50005 0.50005 0 0 1 0.5 -0.5h3zm-0.5 1h-2v4h2v-4z"
     id="path36"
     style="fill:#d4d4d4" />
  <path
     fill="#fff"
     opacity=".5"
     d="m14.5 26a0.50005 0.50005 0 0 1 0.5 0.5v5a0.50005 0.50005 0 0 1 -0.5 0.5h-3a0.50005 0.50005 0 0 1 -0.5 -0.5v-5a0.50005 0.50005 0 0 1 0.5 -0.5h3zm-0.5 1h-2v4h2v-4z"
     id="path38"
     style="fill:#d4d4d4" />
  <path
     fill="#fff"
     opacity=".5"
     d="m11.5 35a0.50005 0.50005 0 0 0 -0.5 0.5v5a0.50005 0.50005 0 0 0 0.5 0.5h3a0.50005 0.50005 0 0 0 0.5 -0.5v-5a0.50005 0.50005 0 0 0 -0.5 -0.5h-3zm0.5 1h2v4h-2v-4z"
     id="path40"
     style="fill:#d4d4d4" />
  <path
     fill="#fff"
     fill-rule="evenodd"
     opacity=".5"
     d="m18.492 35a0.50005 0.4988 0 0 0 -0.49219 0.50655v4.9875a0.50005 0.4988 0 1 0 1 0v-4.9875a0.50005 0.4988 0 0 0 -0.508 -0.506z"
     id="path42"
     style="fill:#d4d4d4" />
  <path
     fill="#fff"
     fill-rule="evenodd"
     opacity=".5"
     d="m22.492 35a0.50005 0.4988 0 0 0 -0.49219 0.50655v4.9875a0.50005 0.4988 0 1 0 1 0v-4.9875a0.50005 0.4988 0 0 0 -0.508 -0.506z"
     id="path44"
     style="fill:#d4d4d4" />
  <path
     fill="#fff"
     opacity=".5"
     d="m26.5 35a0.50005 0.50005 0 0 0 -0.5 0.5v5a0.50005 0.50005 0 0 0 0.5 0.5h3a0.50005 0.50005 0 0 0 0.5 -0.5v-5a0.50005 0.50005 0 0 0 -0.5 -0.5h-3zm0.5 1h2v4h-2v-4z"
     id="path46"
     style="fill:#d4d4d4" />
  <path
     fill="#fff"
     fill-rule="evenodd"
     opacity=".5"
     d="m34.492 35a0.50005 0.4988 0 0 0 -0.49219 0.50655v4.9875a0.50005 0.4988 0 1 0 1 0v-4.9875a0.50005 0.4988 0 0 0 -0.508 -0.506z"
     id="path48"
     style="fill:#d4d4d4" />
  <g
     style="display:inline"
     id="g3872"
     transform="matrix(1.2427773,0,0,1.2427773,15.541265,16.201787)">
    <path
       style="fill:url(#linearGradient2712);fill-opacity:1;stroke:none;stroke-width:0.402325;stroke-linecap:butt;stroke-linejoin:round;stroke-miterlimit:4;stroke-dasharray:none;stroke-dashoffset:0;stroke-opacity:1"
       id="rect2383"
       d="m 3.9957406,16.479538 c 0.4459215,-0.334616 1.6971047,0.293067 2.8468883,1.43713 1.1470341,1.141326 1.7514206,2.362602 1.4243802,2.812888 -0.00124,0.0017 0.028135,0.02504 0.026864,0.02673 L 24.303914,4.6677597 C 24.710396,4.2592847 24.078831,2.9684536 22.892545,1.7880718 21.706263,0.60768985 20.412266,-0.01746372 20.005781,0.39101316 Z" />
    <path
       style="opacity:0.6;fill:#f9c440;fill-opacity:1;stroke:none"
       id="path3208"
       d="m 3.9957406,16.479536 c 0.4459215,-0.334616 1.697105,0.293068 2.8468878,1.43713 1.1470339,1.141326 1.7514205,2.362602 1.4243801,2.812888 -0.00124,0.0017 0.028135,0.02504 0.026864,0.02673 L 19.319465,9.6766412 l 0.03988,-0.040071 c 0.0013,-0.00169 -0.02811,-0.025017 -0.02686,-0.026729 C 19.659519,9.1595523 19.055132,7.9382769 17.908099,6.7969513 16.758316,5.6528892 15.507131,5.0252053 15.06121,5.3598223 l -0.03988,0.04007 z" />
    <path
       d="m 3.9957406,16.479538 c 0.4459215,-0.334616 1.6971047,0.293067 2.8468883,1.43713 1.1470341,1.141326 1.7514206,2.362602 1.4243802,2.812888 -0.00124,0.0017 0.028135,0.02504 0.026864,0.02673 L 24.303914,4.6677597 C 24.710396,4.2592847 24.078831,2.9684536 22.892545,1.7880718 21.706263,0.60768985 20.412266,-0.01746372 20.005781,0.39101316 Z"
       id="path1053"
       style="fill:none;fill-opacity:1;stroke:#ad5f00;stroke-width:0.402325;stroke-linecap:butt;stroke-linejoin:round;stroke-miterlimit:4;stroke-dasharray:none;stroke-dashoffset:0;stroke-opacity:1" />
    <path
       id="path1057"
       transform="matrix(0.80464939,0,0,0.80464939,-13.994815,-10.309943)"
       d="m 42.822266,13.150391 c -0.24484,-0.02437 -0.440114,0.02153 -0.566407,0.148437 l -6.146484,6.175781 c 0.55418,-0.415854 2.110138,0.363342 3.539063,1.785157 1.425506,1.418413 2.175961,2.936485 1.769531,3.496093 -0.0016,0.0021 0.03482,0.0311 0.0332,0.0332 l 6.146484,-6.175781 c 0.505167,-0.507643 -0.28157,-2.111173 -1.755859,-3.578125 -1.105713,-1.100214 -2.285013,-1.811654 -3.019531,-1.884765 z"
       style="fill:url(#linearGradient1059);fill-opacity:1;stroke:#555761;stroke-width:0.5;stroke-linecap:butt;stroke-linejoin:round;stroke-miterlimit:4;stroke-dasharray:none;stroke-dashoffset:0;stroke-opacity:1" />
    <path
       style="opacity:0.9;fill:#fe9ab8;fill-opacity:1;stroke:#de3e80;stroke-width:0.402325;stroke-linecap:butt;stroke-linejoin:round;stroke-miterlimit:4;stroke-dasharray:none;stroke-dashoffset:0;stroke-opacity:1"
       id="rect3175"
       d="m 18.05188,2.3544945 c 0.445921,-0.3346166 1.697105,0.2930675 2.846888,1.4371298 1.147033,1.141325 1.75142,2.3626014 1.424379,2.8128865 -0.0012,0.00171 0.02814,0.025041 0.02686,0.02673 l 1.953903,-1.9634813 0.03988,-0.040071 c 0.0013,-0.00169 -0.02811,-0.025017 -0.02686,-0.02673 C 24.643966,4.1506735 24.039578,2.9293969 22.892545,1.7880718 21.742763,0.64401014 20.49158,0.01632502 20.045658,0.35094175 l -0.03988,0.0400714 -1.953901,1.96348135 z" />
    <path
       style="fill:url(#linearGradient2714);fill-opacity:1;stroke:none"
       id="path3233"
       d="m 15.861791,4.5553174 c 0.44592,-0.3346171 1.697106,0.2930672 2.846888,1.4371295 1.147033,1.141325 1.751421,2.3626016 1.424379,2.8128878 -0.0012,0.00171 0.02814,0.025039 0.02686,0.026729 l 0.199378,-0.2003563 c 0.0013,-0.00169 -0.02811,-0.025017 -0.02686,-0.026729 C 20.659478,8.1546923 20.05509,6.9334154 18.908056,5.7920918 17.758274,4.6480286 16.507089,4.0203445 16.061169,4.3549614 Z" />
    <path
       style="fill:url(#linearGradient2716);fill-opacity:1;stroke:none"
       id="path3216"
       d="m 15.679073,4.7389302 c 0.445922,-0.334617 1.697107,0.2930672 2.846888,1.4371291 1.147035,1.1413256 1.751422,2.3626005 1.42438,2.8128864 -0.0012,0.00171 0.02813,0.025041 0.02686,0.026731 l 0.199377,-0.2003563 c 0.0013,-0.00169 -0.02811,-0.025018 -0.02686,-0.02673 C 20.476762,8.3383053 19.872374,7.1170288 18.725339,5.9757039 17.575557,4.8316417 16.324373,4.2039569 15.87845,4.538574 Z" />
    <path
       style="fill:url(#linearGradient2718);fill-opacity:1;stroke:none"
       id="path3248"
       d="m 16.496731,3.9172644 c 0.445921,-0.3346173 1.697105,0.2930665 2.846888,1.4371297 1.147033,1.1413248 1.751421,2.3626003 1.42438,2.8128865 -0.0012,0.00171 0.02813,0.02504 0.02686,0.026729 l 0.199378,-0.200355 c 0.0013,-0.00169 -0.02811,-0.025017 -0.02686,-0.026729 C 21.294418,7.5166398 20.690031,6.2953633 19.542996,5.1540389 18.393214,4.009976 17.142032,3.3822918 16.696108,3.716909 Z" />
    <path
       style="fill:url(#linearGradient2720);fill-opacity:1;stroke:none"
       id="path3250"
       d="m 16.314013,4.1008772 c 0.445923,-0.3346174 1.697107,0.2930668 2.846888,1.4371289 1.147035,1.1413262 1.751422,2.3626013 1.424381,2.8128873 -0.0012,0.00171 0.02814,0.02504 0.02686,0.02673 l 0.199377,-0.2003568 c 0.0013,-0.00169 -0.02811,-0.025016 -0.02686,-0.026729 C 21.111701,7.7002523 20.507314,6.478975 19.36028,5.337652 18.210499,4.1935892 16.959314,3.5659043 16.513391,3.9005218 Z" />
    <path
       style="fill:url(#linearGradient2722);fill-opacity:1;stroke:none"
       id="path3256"
       d="m 17.134741,3.2761275 c 0.44592,-0.3346167 1.697104,0.2930671 2.846887,1.4371299 1.147033,1.1413247 1.751421,2.362601 1.42438,2.8128865 -0.0012,0.00171 0.02813,0.025041 0.02686,0.026731 l 0.199376,-0.200356 c 0.0013,-0.00169 -0.02811,-0.025018 -0.02686,-0.02673 0.327042,-0.450285 -0.277346,-1.6715621 -1.42438,-2.8128872 -1.14978,-1.144062 -2.400965,-1.7717462 -2.846887,-1.4371291 l -0.199377,0.200355 z" />
    <path
       style="fill:url(#linearGradient2724);fill-opacity:1;stroke:none"
       id="path3258"
       d="m 16.952024,3.4597401 c 0.445919,-0.3346173 1.697105,0.2930673 2.846887,1.4371305 1.147033,1.141324 1.751422,2.3626007 1.424379,2.8128853 -0.0012,0.00171 0.02814,0.025041 0.02686,0.02673 l 0.199378,-0.2003543 c 0.0013,-0.00169 -0.02811,-0.025019 -0.02686,-0.02673 C 21.74971,7.0591151 21.145322,5.8378393 19.998289,4.6965146 18.848507,3.5524523 17.597322,2.9247675 17.151401,3.2593854 Z" />
    <path
       style="fill:url(#linearGradient2726);fill-opacity:1;fill-rule:evenodd;stroke:url(#linearGradient2728);stroke-width:0.402325;stroke-linecap:butt;stroke-linejoin:miter;stroke-miterlimit:4;stroke-dasharray:none;stroke-opacity:1"
       id="path3270"
       d="m 0.92763987,23.761444 7.28373453,-2.970838 0.062055,-0.06205 C 8.6004704,20.278267 7.988201,19.056896 6.841167,17.915568 5.6913841,16.771506 4.4416795,16.147291 3.9957576,16.481908 Z" />
    <path
       style="fill:#333333;fill-opacity:1;fill-rule:evenodd;stroke:#1a1a1a;stroke-width:0.402325;stroke-linecap:butt;stroke-linejoin:miter;stroke-miterlimit:4;stroke-dasharray:none;stroke-opacity:1"
       id="path3281-5"
       d="M 1.7587091,21.789843 0.92719297,23.753653 2.9138318,22.939219 C 2.7546056,22.748495 2.6076136,22.554776 2.4164414,22.364555 2.1963503,22.145558 1.9798704,21.967868 1.7587091,21.789843 Z" />
  </g>
</svg>
