<?xml version="1.0" encoding="UTF-8" standalone="no"?>
<svg
   version="1.0"
   width="96"
   height="96"
   id="svg3786"
   xmlns:xlink="http://www.w3.org/1999/xlink"
   xmlns="http://www.w3.org/2000/svg"
   xmlns:svg="http://www.w3.org/2000/svg"
   xmlns:rdf="http://www.w3.org/1999/02/22-rdf-syntax-ns#"
   xmlns:cc="http://creativecommons.org/ns#"
   xmlns:dc="http://purl.org/dc/elements/1.1/">
  <metadata
     id="metadata82">
    <rdf:RDF>
      <cc:Work
         rdf:about="">
        <dc:format>image/svg+xml</dc:format>
        <dc:type
           rdf:resource="http://purl.org/dc/dcmitype/StillImage" />
      </cc:Work>
    </rdf:RDF>
  </metadata>
  <defs
     id="defs3788">
    <linearGradient
       id="linearGradient23815">
      <stop
         style="stop-color:#000000;stop-opacity:1;"
         offset="0"
         id="stop23811" />
      <stop
         style="stop-color:#000000;stop-opacity:0;"
         offset="1"
         id="stop23813" />
    </linearGradient>
    <linearGradient
       id="linearGradient4231">
      <stop
         id="stop4233"
         style="stop-color:#ffffff;stop-opacity:0.80000001"
         offset="0" />
      <stop
         id="stop4235"
         style="stop-color:#ffffff;stop-opacity:0.23529412"
         offset="0.00818416" />
      <stop
         id="stop4237"
         style="stop-color:#ffffff;stop-opacity:0.15686275"
         offset="0.99223143" />
      <stop
         id="stop4239"
         style="stop-color:#ffffff;stop-opacity:0.39215687"
         offset="1" />
    </linearGradient>
    <linearGradient
       id="linearGradient4170">
      <stop
         id="stop4172"
         style="stop-color:#ffffff;stop-opacity:1"
         offset="0" />
      <stop
         id="stop4174"
         style="stop-color:#ffffff;stop-opacity:0.23529412"
         offset="0.02783963" />
      <stop
         id="stop4176"
         style="stop-color:#ffffff;stop-opacity:0.15686275"
         offset="0.99811679" />
      <stop
         id="stop4178"
         style="stop-color:#ffffff;stop-opacity:0.39215687"
         offset="1" />
    </linearGradient>
    <linearGradient
       id="linearGradient5060">
      <stop
         id="stop5062"
         style="stop-color:#000000;stop-opacity:1"
         offset="0" />
      <stop
         id="stop5064"
         style="stop-color:#000000;stop-opacity:0"
         offset="1" />
    </linearGradient>
    <linearGradient
       id="linearGradient5048">
      <stop
         id="stop5050"
         style="stop-color:#000000;stop-opacity:0"
         offset="0" />
      <stop
         id="stop5056"
         style="stop-color:#000000;stop-opacity:1"
         offset="0.5" />
      <stop
         id="stop5052"
         style="stop-color:#000000;stop-opacity:0"
         offset="1" />
    </linearGradient>
    <linearGradient
       id="linearGradient2215">
      <stop
         id="stop2223"
         style="stop-color:#7a7a7a;stop-opacity:1"
         offset="0" />
      <stop
         id="stop2219"
         style="stop-color:#474747;stop-opacity:1"
         offset="1" />
    </linearGradient>
    <linearGradient
       id="linearGradient7056">
      <stop
         id="stop7064"
         style="stop-color:#e6e6e6;stop-opacity:1"
         offset="0" />
      <stop
         id="stop7060"
         style="stop-color:#c8c8c8;stop-opacity:1"
         offset="1" />
    </linearGradient>
    <radialGradient
       cx="11.734284"
       cy="8.4900017"
       r="23.047892"
       fx="11.734284"
       fy="8.4900017"
       id="radialGradient2927"
       xlink:href="#linearGradient7056"
       gradientUnits="userSpaceOnUse"
       gradientTransform="matrix(2.7839402,1.4146838,-0.94659596,1.8755993,-0.631539,-6.7370244)" />
    <linearGradient
       x1="30"
       y1="42.127277"
       x2="30"
       y2="49.763817"
       id="linearGradient2933"
       xlink:href="#linearGradient2215"
       gradientUnits="userSpaceOnUse"
       gradientTransform="matrix(2.0257115,0,0,1.5413937,-10.74592,9.2422198)" />
    <radialGradient
       cx="605.71429"
       cy="486.64789"
       r="117.14286"
       fx="605.71429"
       fy="486.64789"
       id="radialGradient2936"
       xlink:href="#linearGradient5060"
       gradientUnits="userSpaceOnUse"
       gradientTransform="matrix(-0.08835626,0,0,0.04117648,64.248831,64.90274)" />
    <radialGradient
       cx="605.71429"
       cy="486.64789"
       r="117.14286"
       fx="605.71429"
       fy="486.64789"
       id="radialGradient2939"
       xlink:href="#linearGradient5060"
       gradientUnits="userSpaceOnUse"
       gradientTransform="matrix(0.08835626,0,0,0.04117648,31.751188,64.90274)" />
    <linearGradient
       x1="302.85715"
       y1="366.64789"
       x2="302.85715"
       y2="609.50507"
       id="linearGradient2942"
       xlink:href="#linearGradient5048"
       gradientUnits="userSpaceOnUse"
       gradientTransform="matrix(0.15325443,0,0,0.04117648,-7.3904839,64.90274)" />
    <linearGradient
       x1="34.947395"
       y1="50.738762"
       x2="34.947395"
       y2="54.602455"
       id="linearGradient3308"
       xlink:href="#linearGradient4231"
       gradientUnits="userSpaceOnUse"
       gradientTransform="matrix(1.6996708,0,0,2.0857203,28.619051,-29.860333)" />
    <linearGradient
       x1="23.99999"
       y1="2.4091394"
       x2="23.99999"
       y2="45.156406"
       id="linearGradient3311-4"
       xlink:href="#linearGradient4170"
       gradientUnits="userSpaceOnUse"
       gradientTransform="matrix(0.53047413,0,0,1.3258842,13.481007,13.154705)" />
    <radialGradient
       cx="141.74666"
       cy="206.42612"
       r="78.728165"
       fx="141.74666"
       fy="206.42612"
       id="radialGradient2923"
       xlink:href="#linearGradient4035"
       gradientUnits="userSpaceOnUse"
       gradientTransform="matrix(0.72390042,-0.01067685,0.00535762,0.61432209,-57.05011,-57.96227)" />
    <linearGradient
       id="linearGradient4035">
      <stop
         id="stop4037"
         style="stop-color:#f5f5f5;stop-opacity:1"
         offset="0" />
      <stop
         id="stop4039"
         style="stop-color:#e7e7e7;stop-opacity:1"
         offset="0.47025558" />
      <stop
         id="stop4041"
         style="stop-color:#8c8c8c;stop-opacity:1"
         offset="0.69348532" />
      <stop
         id="stop4043"
         style="stop-color:#dddddd;stop-opacity:1"
         offset="0.83542866" />
      <stop
         id="stop4045"
         style="stop-color:#a8a8a8;stop-opacity:1"
         offset="1" />
    </linearGradient>
    <radialGradient
       cx="142.62215"
       cy="191.85428"
       r="78.728165"
       fx="142.62215"
       fy="191.85428"
       id="radialGradient2920"
       xlink:href="#linearGradient7609"
       gradientUnits="userSpaceOnUse"
       gradientTransform="matrix(0.36990479,0,0,-0.2614862,-6.2223374,90.096883)" />
    <linearGradient
       id="linearGradient7609">
      <stop
         id="stop7611"
         style="stop-color:#ffffff;stop-opacity:1"
         offset="0" />
      <stop
         id="stop7677"
         style="stop-color:#e7e7e7;stop-opacity:1"
         offset="0.47025558" />
      <stop
         id="stop7613"
         style="stop-color:#8c8c8c;stop-opacity:1"
         offset="0.67183787" />
      <stop
         id="stop7617"
         style="stop-color:#dddddd;stop-opacity:1"
         offset="0.83542866" />
      <stop
         id="stop7615"
         style="stop-color:#a8a8a8;stop-opacity:1"
         offset="1" />
    </linearGradient>
    <radialGradient
       cx="113.0654"
       cy="97.587898"
       r="2.5631001"
       fx="113.667"
       fy="98"
       id="radialGradient2965"
       xlink:href="#radialGradient4241"
       gradientUnits="userSpaceOnUse"
       gradientTransform="matrix(-0.67270053,0,0,0.72289081,84.558919,-1.5447605)" />
    <radialGradient
       cx="113.0654"
       cy="97.587898"
       r="2.5631001"
       fx="113.667"
       fy="98"
       id="radialGradient4241"
       gradientUnits="userSpaceOnUse">
      <stop
         id="stop4243"
         style="stop-color:#eeeeee;stop-opacity:1"
         offset="0" />
      <stop
         id="stop4245"
         style="stop-color:#cecece;stop-opacity:1"
         offset="0.16" />
      <stop
         id="stop4247"
         style="stop-color:#888888;stop-opacity:1"
         offset="0.4675" />
      <stop
         id="stop4249"
         style="stop-color:#555555;stop-opacity:1"
         offset="1" />
    </radialGradient>
    <radialGradient
       cx="113.0654"
       cy="97.587898"
       r="2.5631001"
       fx="113.667"
       fy="98"
       id="radialGradient2959"
       xlink:href="#radialGradient4241"
       gradientUnits="userSpaceOnUse"
       gradientTransform="matrix(0.4994701,-0.11748912,0.05625943,0.46670595,-43.712852,-12.51064)" />
    <linearGradient
       x1="7.0625"
       y1="35.28125"
       x2="24.437386"
       y2="35.28125"
       id="linearGradient2908"
       xlink:href="#linearGradient5060"
       gradientUnits="userSpaceOnUse"
       gradientTransform="matrix(2.0651973,0,0,1.8239191,1.0597986,15.025465)" />
    <linearGradient
       x1="12.277412"
       y1="37.205811"
       x2="12.277412"
       y2="33.962936"
       id="linearGradient2905"
       xlink:href="#linearGradient4236"
       gradientUnits="userSpaceOnUse"
       gradientTransform="matrix(2.0651973,0,0,1.8239191,-0.58305119,17.443657)" />
    <linearGradient
       id="linearGradient4236">
      <stop
         id="stop4238"
         style="stop-color:#eeeeee;stop-opacity:1"
         offset="0" />
      <stop
         id="stop4240"
         style="stop-color:#eeeeee;stop-opacity:0"
         offset="1" />
    </linearGradient>
    <radialGradient
       cx="127.31733"
       cy="143.82751"
       r="78.728165"
       fx="127.31733"
       fy="143.82751"
       id="radialGradient2902"
       xlink:href="#linearGradient4035"
       gradientUnits="userSpaceOnUse"
       gradientTransform="matrix(0.38108432,-0.05369109,0.01238701,0.2158598,-14.874338,4.9186131)" />
    <radialGradient
       cx="113.0654"
       cy="97.587898"
       r="2.5631001"
       fx="113.667"
       fy="98"
       id="radialGradient2947"
       xlink:href="#radialGradient4241"
       gradientUnits="userSpaceOnUse"
       gradientTransform="matrix(0.67271232,0,0,0.7228913,11.439755,-1.5448104)" />
    <radialGradient
       xlink:href="#radialGradient4241"
       id="radialGradient8240"
       gradientUnits="userSpaceOnUse"
       gradientTransform="matrix(0.5062727,0.05858746,-0.03632473,0.4679029,23.053042,-32.535528)"
       cx="113.0654"
       cy="97.587898"
       fx="113.667"
       fy="98"
       r="2.5631001" />
    <radialGradient
       cx="24"
       cy="42"
       r="21"
       fx="24"
       fy="42"
       id="radialGradient2673"
       xlink:href="#linearGradient6310-8"
       gradientUnits="userSpaceOnUse"
       gradientTransform="matrix(2.095238,-2.4707312e-8,5.8274061e-8,0.82838356,-2.2857117,45.207901)" />
    <linearGradient
       id="linearGradient6310-8">
      <stop
         id="stop6312-6"
         style="stop-color:#ffffff;stop-opacity:1"
         offset="0" />
      <stop
         id="stop6314-6"
         style="stop-color:#ffffff;stop-opacity:0"
         offset="1" />
    </linearGradient>
    <linearGradient
       xlink:href="#linearGradient23815"
       id="linearGradient23817"
       x1="28.695919"
       y1="75.273842"
       x2="28.695919"
       y2="74.009094"
       gradientUnits="userSpaceOnUse" />
    <radialGradient
       cx="38"
       cy="69"
       r="20"
       fx="28.603323"
       fy="69"
       id="radialGradient6025"
       xlink:href="#linearGradient23815"
       gradientUnits="userSpaceOnUse"
       gradientTransform="matrix(1,0,0,0.30000006,15,34.332296)" />
    <linearGradient
       x1="28"
       y1="16"
       x2="26"
       y2="8"
       id="linearGradient5964"
       xlink:href="#linearGradient5958"
       gradientUnits="userSpaceOnUse"
       gradientTransform="translate(26.999999,14.0323)" />
    <linearGradient
       id="linearGradient5958">
      <stop
         id="stop5960"
         style="stop-color:#c17d11;stop-opacity:1"
         offset="0" />
      <stop
         id="stop5962"
         style="stop-color:#e9b96e;stop-opacity:1"
         offset="1" />
    </linearGradient>
    <linearGradient
       x1="30.324829"
       y1="9.2407961"
       x2="34"
       y2="18"
       id="linearGradient6002"
       xlink:href="#linearGradient5996"
       gradientUnits="userSpaceOnUse"
       gradientTransform="translate(26.999999,14.0323)" />
    <linearGradient
       id="linearGradient5996">
      <stop
         id="stop5998"
         style="stop-color:#8f5902;stop-opacity:1"
         offset="0" />
      <stop
         id="stop6000"
         style="stop-color:#73521e;stop-opacity:1"
         offset="1" />
    </linearGradient>
    <linearGradient
       x1="28"
       y1="8"
       x2="33.447109"
       y2="16.685888"
       id="linearGradient5994"
       xlink:href="#linearGradient5984"
       gradientUnits="userSpaceOnUse"
       gradientTransform="translate(26.999999,14.0323)" />
    <linearGradient
       id="linearGradient5984">
      <stop
         id="stop5986"
         style="stop-color:#ffffff;stop-opacity:1"
         offset="0" />
      <stop
         id="stop5988"
         style="stop-color:#ffffff;stop-opacity:0.13438736"
         offset="1" />
    </linearGradient>
    <linearGradient
       x1="20.933708"
       y1="25.060659"
       x2="30.208115"
       y2="30.742676"
       id="linearGradient5972"
       xlink:href="#linearGradient5966"
       gradientUnits="userSpaceOnUse"
       gradientTransform="translate(26.999999,14.0323)" />
    <linearGradient
       id="linearGradient5966">
      <stop
         id="stop5968"
         style="stop-color:#fdef72;stop-opacity:1"
         offset="0" />
      <stop
         id="stop5970"
         style="stop-color:#e2cb0b;stop-opacity:1"
         offset="1" />
    </linearGradient>
    <linearGradient
       x1="22.319767"
       y1="41.955986"
       x2="18.985712"
       y2="37.029255"
       id="linearGradient5973"
       xlink:href="#linearGradient5981"
       gradientUnits="userSpaceOnUse"
       gradientTransform="translate(26.999999,14.0323)" />
    <linearGradient
       id="linearGradient5981">
      <stop
         id="stop5983"
         style="stop-color:#ffffff;stop-opacity:1"
         offset="0" />
      <stop
         id="stop5985"
         style="stop-color:#ffffff;stop-opacity:0.69411767"
         offset="1" />
    </linearGradient>
    <linearGradient
       x1="27.354809"
       y1="36.218422"
       x2="23.489431"
       y2="34.728424"
       id="linearGradient6005"
       xlink:href="#linearGradient5999"
       gradientUnits="userSpaceOnUse"
       gradientTransform="translate(26.999999,14.0323)" />
    <linearGradient
       id="linearGradient5999">
      <stop
         id="stop6001"
         style="stop-color:#c4a000;stop-opacity:1"
         offset="0" />
      <stop
         id="stop6003"
         style="stop-color:#c4a000;stop-opacity:0"
         offset="1" />
    </linearGradient>
    <linearGradient
       x1="27.651777"
       y1="23.145937"
       x2="21.59099"
       y2="20.618719"
       id="linearGradient5980-761"
       xlink:href="#linearGradient5974-892"
       gradientUnits="userSpaceOnUse"
       gradientTransform="matrix(0.9768193,0,0,1,27.625336,14.0323)" />
    <linearGradient
       id="linearGradient5974-892">
      <stop
         id="stop2473"
         style="stop-color:#919191;stop-opacity:1"
         offset="0" />
      <stop
         id="stop2475"
         style="stop-color:#cecece;stop-opacity:1"
         offset="1" />
    </linearGradient>
  </defs>
  <g
     id="g1">
    <rect
       width="74"
       height="10"
       x="11"
       y="80"
       id="rect2723"
       style="display:inline;overflow:visible;visibility:visible;opacity:0.3;fill:url(#linearGradient2942);fill-opacity:1;fill-rule:nonzero;stroke:none;stroke-width:0.5;marker:none" />
    <path
       d="m 85,80.000342 c 0,0 0,9.99944 0,9.99944 4.550121,0.018 11,-2.24036 11,-5.00036 0,-2.75998 -5.07759,-4.99908 -11,-4.99908 z"
       id="path2725"
       style="display:inline;overflow:visible;visibility:visible;opacity:0.3;fill:url(#radialGradient2939);fill-opacity:1;fill-rule:nonzero;stroke:none;stroke-width:0.5;marker:none" />
    <path
       d="m 11,80.000342 c 0,0 0,9.99944 0,9.99944 -4.5501415,0.01884 -11,-2.24036 -11,-5.00036 0,-2.75998 5.0776094,-4.99908 11,-4.99908 z"
       id="path2727"
       style="display:inline;overflow:visible;visibility:visible;opacity:0.3;fill:url(#radialGradient2936);fill-opacity:1;fill-rule:nonzero;stroke:none;stroke-width:1;marker:none" />
    <path
       d="M 94.5,74.5 80.943883,20.198235 C 80.554507,18.708923 78.51485,17.499764 76.800117,17.499764 l -57.500394,1e-6 c -2.634365,0 -4.143951,0.402926 -4.699446,2.698471 L 1.5,74.5 Z"
       id="path6345"
       style="display:inline;overflow:visible;visibility:visible;fill:url(#radialGradient2927);fill-opacity:1;fill-rule:nonzero;stroke:none;stroke-width:0.995783;marker:none;enable-background:accumulate" />
    <path
       d="M 94.5,74.5 80.943883,20.188048 C 80.554507,18.704462 78.514851,17.499952 76.800117,17.499952 H 19.299723 c -2.634365,0 -4.143951,0.401376 -4.699446,2.688096 L 1.5,74.5 Z"
       id="path6345-1"
       style="color:#000000;display:inline;overflow:visible;visibility:visible;opacity:0.35;fill:none;stroke:#000000;stroke-width:1;stroke-linecap:round;stroke-linejoin:round;stroke-miterlimit:4;stroke-dasharray:none;stroke-dashoffset:0;stroke-opacity:1;marker:none;enable-background:accumulate" />
    <path
       d="m 19.062655,18.500417 c -1.225054,1.3e-5 -2.065755,0.212136 -2.321454,0.337128 -0.478727,0.234013 -0.847669,0.452613 -1.113856,1.446038 L 2.8,73.5 H 93.2 L 80.004084,20.534176 c -0.191015,-0.484799 -0.419128,-0.928866 -1.343419,-1.49394 -0.477402,-0.291865 -1.358734,-0.540416 -1.76419,-0.540412 z"
       id="path4129"
       style="color:#000000;display:inline;overflow:visible;visibility:visible;opacity:0.8;fill:none;stroke:url(#linearGradient3311-4);stroke-width:1;stroke-linecap:round;stroke-linejoin:round;stroke-miterlimit:4;stroke-dasharray:none;stroke-dashoffset:0;stroke-opacity:1;marker:none;enable-background:accumulate" />
    <path
       d="m 1.5,74.5 h 93 l -2,11 h -89 z"
       id="rect6431"
       style="display:inline;fill:url(#linearGradient2933);fill-opacity:1;fill-rule:evenodd;stroke:none;stroke-width:1;enable-background:new" />
    <path
       d="m 1.5,74.5 h 93 l -2,11 h -89 z"
       id="rect6431-3"
       style="color:#000000;display:inline;overflow:visible;visibility:visible;opacity:0.5;fill:none;stroke:url(#linearGradient23817);stroke-width:1;stroke-linecap:butt;stroke-linejoin:round;stroke-miterlimit:4;stroke-dasharray:none;stroke-dashoffset:0;stroke-opacity:1;marker:none;enable-background:accumulate" />
    <path
       d="m 4.35,84.5 h 87.3 c 0.116872,-0.831299 1.65,-9 1.65,-9 H 2.7 c 0,0 1.328205,6.935527 1.65,9 z"
       id="path4497"
       style="color:#000000;display:inline;overflow:visible;visibility:visible;opacity:0.2;fill:none;stroke:url(#linearGradient3308);stroke-width:1;stroke-linecap:round;stroke-linejoin:miter;stroke-miterlimit:4;stroke-dasharray:none;stroke-dashoffset:0;stroke-opacity:1;marker:none;enable-background:accumulate" />
    <path
       d="M 82.941109,49.544354 C 82.492945,45.298657 79.489474,41.25022 74.499109,38.0556 74.398723,36.827645 73,21.11895 73,21.11895 72.901966,19.911386 71.53069,19 69.650436,19 H 57.850765 c -1.893776,0 -3.357697,0.923363 -3.405444,2.147745 -0.216526,5.531814 -6.818874,8.420049 -16.667461,11.047455 -3.450835,0.616972 -12.447658,3.517206 -14.512572,4.790139 -6.078549,3.343911 -9.703701,7.801873 -10.206008,12.559015 -0.456934,4.326648 1.739347,8.656297 6.184428,12.191482 C 25.749712,66.910307 36.499422,70 47.999785,70 59.500167,70 70.249854,66.910307 76.75668,61.735836 80.81648,58.507644 83,54.615694 83,50.669206 83,50.294441 82.97877,49.919097 82.94099,49.544354 Z M 47.999785,67.854067 c -19.15426,0 -33.821287,-8.67069 -32.760162,-18.721629 0.457735,-4.333242 3.817804,-8.959077 9.382104,-12.007395 1.042016,-0.810651 10.452796,-3.963906 13.828783,-4.517934 9.356645,-2.49069 17.91327,-5.723084 18.181524,-12.535034 0.01174,-0.32619 0.550853,-0.584603 1.218731,-0.584603 h 11.798092 c 0.682994,0 1.25938,0.271004 1.286436,0.605591 l 1.432821,17.599195 c 4.959326,2.966166 7.964372,7.393532 8.391052,11.44018 1.061903,10.050939 -13.605098,18.721629 -32.759381,18.721629 z"
       id="path9001"
       style="display:inline;fill:url(#radialGradient2923);fill-opacity:1;stroke-width:1" />
    <path
       d="M 47.999547,56 C 41.269619,56 36.110445,53.465769 36.0017,50.104348 36.000845,50.068008 36,50.032268 36,49.996548 36,48.780198 36.676196,47.623379 37.961126,46.643903 40.134734,44.988254 43.887544,44 48.000371,44 c 4.111993,0 7.864782,0.988254 10.03839,2.643903 1.322881,1.007043 2.00079,2.203975 1.959456,3.459815 -0.11048,3.361421 -5.269609,5.896276 -11.998679,5.896276 z m 0,-10.119361 c -6.323553,0 -9.54518,2.511662 -9.469294,4.804625 0.07334,2.257249 4.312666,4.06079 9.469294,4.06079 5.156629,0 9.395911,-1.804177 9.469274,-4.06079 0.07498,-2.293596 -3.145744,-4.804625 -9.469274,-4.804625 z"
       id="path9003"
       style="display:inline;overflow:visible;visibility:visible;fill:url(#radialGradient2920);fill-opacity:1;fill-rule:nonzero;stroke-width:0.999999;stroke-linecap:butt;stroke-linejoin:miter;stroke-miterlimit:4;stroke-dasharray:none;stroke-dashoffset:0;stroke-opacity:1;marker:none;enable-background:accumulate" />
    <path
       d="M 10.99591,68.990245 C 10.91662,70.097238 9.7291603,71 8.3447333,71 6.9609373,71 5.9131783,70.097238 6.0056833,68.990245 6.0975603,67.889107 7.2843903,67 8.6549713,67 c 1.3712117,5.22e-4 2.4189697,0.889107 2.3409387,1.990245 z"
       id="path9007"
       style="display:inline;fill:#e1e1e1;fill-opacity:1;stroke-width:1" />
    <path
       d="m 10.210039,68.12384 c 0.135214,0.156134 0.289935,0.406265 0.289935,0.738795 0,0.02388 -0.0013,0.0477 -0.0027,0.07303 C 10.438744,69.783615 9.4478603,70.5 8.3338683,70.5 7.6995113,70.5 7.1196443,70.26506 6.7832933,69.870362 6.6386953,69.701929 6.4738813,69.422891 6.5034813,69.051325 6.5714233,68.210602 7.5609643,67.5 8.6655413,67.5 c 0.629648,5.8e-4 1.207497,0.233494 1.5445187,0.623855 h 5e-6 z"
       id="path9009"
       style="display:inline;fill:url(#radialGradient2965);fill-opacity:1;stroke-width:1" />
    <path
       d="m 16.270678,20.214601 c 0.15848,0.789184 1.177734,1.220548 2.275133,0.95887 1.0969,-0.261553 1.849446,-1.115412 1.680491,-1.902099 -0.16796,-0.782553 -1.185529,-1.204114 -2.271951,-0.945052 -1.086879,0.259558 -1.840649,1.10311 -1.683673,1.888281 z"
       id="path9019"
       style="display:inline;fill:#f0f0f0;fill-opacity:1;stroke-width:1" />
    <path
       d="m 16.912087,19.482901 c -0.08825,0.12444 -0.183654,0.312932 -0.157776,0.52761 0.0019,0.01528 0.0047,0.03069 0.0076,0.04665 0.10945,0.537223 0.900918,0.826667 1.728041,0.632105 0.471001,-0.110787 0.88326,-0.363748 1.102278,-0.677313 0.09427,-0.134022 0.194922,-0.342936 0.144039,-0.577654 -0.115886,-0.530914 -0.905899,-0.816861 -1.726031,-0.623941 -0.467458,0.110347 -0.878376,0.361639 -1.09823,0.672521 l -3e-6,3e-6 z"
       id="path9021"
       style="display:inline;fill:url(#radialGradient2959);fill-opacity:1;stroke-width:1" />
    <path
       d="M 14.5,75 H 52 V 85 H 15.5 Z"
       id="rect8993"
       style="display:inline;overflow:visible;visibility:visible;fill:url(#linearGradient2908);fill-opacity:1;fill-rule:evenodd;stroke:none;stroke-width:2.40899;marker:none" />
    <path
       d="m 15.5,85 -1,-10 c 4.046389,7.008552 15.915405,10 25.5,10 z"
       id="path8995"
       style="display:inline;opacity:0.811429;fill:url(#linearGradient2905);fill-opacity:1;fill-rule:evenodd;stroke:none;stroke-width:1" />
    <path
       d="M 21.813156,19.000001 21.606608,19.816449 18.52311,31.968355 18,34.000002 l 1.527995,-0.436704 25.989539,-7.594939 0.08255,-0.03796 0.06884,-0.03794 c 1.376269,-0.759331 2.111659,-2.293822 2.285095,-3.702534 0.0868,-0.704361 0.06077,-1.394089 -0.16508,-2.031641 -0.213284,-0.601877 -0.768552,-1.137379 -1.349032,-1.120258 v -0.03795 H 46.343485 22.43257 21.813111 l 6.6e-5,2e-6 z m 0.879672,0.750805 h 23.953081 c 0.0112,0.102575 0.03812,0.159493 0.0134,0.353573 -0.07514,0.610759 -0.39839,3.418958 -1.210483,3.895621 l -25.19211,6.742863 2.435183,-10.992052 h 7.82e-4 z"
       id="path9039"
       style="display:inline;overflow:visible;visibility:visible;fill:url(#radialGradient2902);fill-opacity:1;fill-rule:nonzero;stroke:none;stroke-width:1;marker:none;enable-background:accumulate" />
    <path
       d="M 85.00409,68.990245 C 85.08339,70.097238 86.27084,71 87.655267,71 c 1.383796,0 2.431555,-0.902762 2.33905,-2.009755 C 89.902429,67.889107 88.715609,67 87.34503,67 c -1.371213,5.22e-4 -2.418969,0.889107 -2.34094,1.990245 z"
       id="path9091"
       style="display:inline;fill:#e1e1e1;fill-opacity:1;stroke-width:1" />
    <path
       d="M 85.789942,68.123838 C 85.654721,68.279972 85.5,68.530103 85.5,68.862633 c 0,0.02388 0.0013,0.0477 0.0026,0.07303 0.05854,0.847951 1.04943,1.564337 2.163444,1.564337 0.634367,0 1.214245,-0.234941 1.5506,-0.629639 0.144633,-0.168431 0.309449,-0.447469 0.27985,-0.819036 C 89.428544,68.210603 88.438991,67.5 87.334394,67.5 c -0.629658,5.79e-4 -1.207516,0.233494 -1.544545,0.623855 h -4e-6 z"
       id="path9093"
       style="display:inline;fill:url(#radialGradient2947);fill-opacity:1;stroke-width:1" />
    <path
       style="display:inline;opacity:0.05;fill:none;stroke:#ffffff;stroke-width:1px;stroke-linecap:butt;stroke-linejoin:miter;stroke-opacity:1"
       d="m 14.1,76 0.8,8"
       id="path1032" />
    <path
       d="m 74.750221,19.43504 c 0.01698,0.811658 0.930623,1.612035 2.040096,1.782757 1.108968,0.170649 1.986617,-0.354093 1.95905,-1.16738 -0.02732,-0.808976 -0.941027,-1.599378 -2.039404,-1.768391 -1.098906,-0.168715 -1.975955,0.345749 -1.959742,1.153014 z"
       id="path8236"
       style="display:inline;fill:#f0f0f0;fill-opacity:1;stroke-width:0.999995" />
    <path
       d="m 75.507026,19.033883 c -0.109618,0.08931 -0.238619,0.237715 -0.255328,0.452944 -0.0011,0.01533 -0.0014,0.03111 -0.0017,0.04744 0.0014,0.553949 0.711177,1.103939 1.549566,1.20096 0.477415,0.05524 0.925629,-0.04632 1.198599,-0.2725 0.117309,-0.09644 0.255361,-0.262684 0.251766,-0.505761 -0.0089,-0.550093 -0.717906,-1.096222 -1.549208,-1.19242 -0.473901,-0.05447 -0.920491,0.04597 -1.193749,0.269282 l -3e-6,2e-6 z"
       id="path8238"
       style="display:inline;fill:url(#radialGradient8240);fill-opacity:1;stroke-width:0.999999" />
    <rect
       width="88"
       height="10"
       x="4"
       y="75"
       id="rect6300-3"
       style="display:inline;opacity:0.3;fill:url(#radialGradient2673);fill-opacity:1;stroke:none;stroke-width:0.999999" />
  </g>
  <g
     id="g2"
     transform="matrix(-1.9510257,0,0,1.9510247,132.78892,-26.2159)"
     style="display:inline">
    <path
       style="display:none;opacity:0.25;fill:url(#radialGradient6025);fill-opacity:1;stroke:none;stroke-width:0.816497"
       id="path6017"
       d="m 73,55.0323 a 20,6.0000012 0 1 1 -40,0 20,6.0000012 0 1 1 40,0 z" />
    <path
       style="fill:url(#linearGradient5964);fill-opacity:1;fill-rule:evenodd;stroke:url(#linearGradient6002);stroke-width:0.512018;stroke-linecap:butt;stroke-linejoin:miter;stroke-dasharray:none;stroke-opacity:1"
       id="path5371"
       d="m 63.593749,16.50105 c -8.203217,0.10565 -9.3968,16.247526 -11.75,19.15625 l 4,1.4375 c 2.631873,-4.372547 15.755996,-18.907997 8.5625,-20.5625 -0.27949,-0.03097 -0.54788,-0.03466 -0.8125,-0.03125 z m -1.03125,2.0625 c 0.193563,-0.01874 0.367986,0.0057 0.53125,0.09375 0.653056,0.352123 0.723655,1.494877 0.15625,2.53125 -0.567405,1.036373 -1.565696,1.602122 -2.21875,1.25 -0.653053,-0.352123 -0.723655,-1.494877 -0.15625,-2.53125 0.425554,-0.77728 1.106812,-1.287534 1.6875,-1.34375 z" />
    <path
       style="opacity:0.266667;fill:none;stroke:url(#linearGradient5994);stroke-width:0.512018;stroke-linecap:butt;stroke-linejoin:miter;stroke-dasharray:none;stroke-opacity:1"
       id="path5992"
       d="m 63.593749,17.50105 c -1.721618,0.02217 -3.007925,0.855874 -4.1875,2.28125 -1.179575,1.425376 -2.148334,3.441635 -2.9375,5.59375 -0.789166,2.152115 -1.42404,4.43427 -2,6.375 -0.399891,1.347456 -0.769857,2.406448 -1.21875,3.34375 l 2.1875,0.78125 c 1.618594,-2.495624 5.038798,-6.591178 7.53125,-10.625 1.325839,-2.145757 2.2837,-4.178041 2.5,-5.5625 0.10815,-0.692229 0.04507,-1.172929 -0.125,-1.46875 -0.164691,-0.286469 -0.463476,-0.524586 -1.125,-0.6875 -0.199495,-0.01878 -0.400833,-0.03414 -0.625,-0.03125 z" />
    <path
       style="fill:url(#linearGradient5972);fill-opacity:1;fill-rule:evenodd;stroke:none;stroke-width:1;stroke-linecap:butt;stroke-linejoin:miter;stroke-miterlimit:20;stroke-dasharray:none;stroke-opacity:1"
       id="path5367"
       d="m 49.499999,30.5323 c 0.709506,2.003007 -0.541388,3.737831 -1,5 -5.191567,1.545674 -8.786801,9.703726 -14.132583,13.953585 0.667788,0.697398 1.452227,1.444178 2.132583,2.046415 l 4.0625,-3.53125 -3.067556,4.524649 c 2.209237,1.790983 4.505056,3.006601 6.005056,3.506601 l 2.75,-3.65625 -1.75,4.15625 c 1.451994,0.588882 4.985286,1.482025 7,1.5 l 2.00389,-3.402497 -0.513169,3.464997 c 0.829563,0.158359 2.438165,0.374216 3.509279,0.40625 3.362186,-5.5 4,-14.46875 2,-18.46875 -0.5,-2 1.5,-4.5 3,-5.5 -2.5,-2 -8.205589,-4.303726 -12,-4 z" />
    <path
       style="opacity:0.5;fill:none;fill-opacity:1;fill-rule:evenodd;stroke:#ad5f00;stroke-width:0.512018;stroke-linecap:butt;stroke-linejoin:miter;stroke-miterlimit:20;stroke-dasharray:none;stroke-opacity:1"
       id="path5367-6"
       d="m 49.499999,30.5323 c 0.709506,2.003007 -0.541388,3.737831 -1,5 -5.191567,1.545674 -8.786801,9.703726 -14.132583,13.953585 0.667788,0.697398 1.452227,1.444178 2.132583,2.046415 l 4.0625,-3.53125 -3.067556,4.524649 c 2.209237,1.790983 4.505056,3.006601 6.005056,3.506601 l 2.75,-3.65625 -1.75,4.15625 c 1.451994,0.588882 4.985286,1.482025 7,1.5 l 2.00389,-3.402497 -0.513169,3.464997 c 0.829563,0.158359 2.438165,0.374216 3.509279,0.40625 3.362186,-5.5 4,-14.46875 2,-18.46875 -0.5,-2 1.5,-4.5 3,-5.5 -2.5,-2 -8.205589,-4.303726 -12,-4 z" />
    <path
       style="opacity:0.266667;fill:#c4a000;fill-rule:evenodd;stroke:none"
       id="path5975"
       d="M 37.999999,52.5323 C 42.816494,47.521405 42.465022,45.328374 48.116116,41.004572 45.133674,45.833003 44.650277,48.34463 40.999999,54.5323 Z" />
    <path
       style="opacity:0.415686;fill:#c4a000;fill-rule:evenodd;stroke:none"
       id="path5979"
       d="m 45.149807,56.234752 4.346027,-9.840147 c 1.664513,-2.983727 2.859672,-5.970052 4.528973,-8.347353 -1.601954,5.418037 -4.89069,12.121793 -7.53125,18.625 z" />
    <path
       style="opacity:0.478431;fill:none;stroke:url(#linearGradient5973);stroke-width:0.512018;stroke-linecap:butt;stroke-linejoin:miter;stroke-dasharray:none;stroke-opacity:1"
       id="path6014"
       d="m 50.624999,31.5323 c 0.09674,1.915146 -0.922943,3.529645 -1.21875,4.34375 -0.104103,0.284709 -0.33533,0.504374 -0.625,0.59375 -5.453398,2.234644 -7.629803,8.574038 -12.994638,13.086167 0.201642,0.199854 0.49203,0.417304 0.694529,0.608231 l 9.018859,-7.631898 -6.576615,9.810313 c 1.270033,1.027613 2.722201,1.884544 4.226656,2.489165 L 50.144393,45.5323 45.8695,55.943912 c 1.595569,0.525657 3.098303,0.827296 4.945009,1.088388 l 4.61873,-7.6875 -1.37074,7.906817 1.875,0.225995 c 1.433213,-2.535494 2.132382,-5.66653 2.53125,-8.789062 0.423945,-3.318846 -0.005,-6.541178 -0.84375,-8.21875 -0.02716,-0.06021 -0.0481,-0.123035 -0.0625,-0.1875 -0.346858,-1.387431 0.169142,-2.745627 0.875,-3.875 0.426893,-0.683029 0.930372,-1.290779 1.464959,-1.801777 -1.171482,-0.782691 -2.586697,-1.460066 -4.371209,-2.104473 -1.762077,-0.636306 -3.497998,-0.950025 -4.90625,-0.96875 z" />
    <path
       style="opacity:0.247059;fill:url(#linearGradient6005);fill-opacity:1;fill-rule:evenodd;stroke:none"
       id="path5977"
       d="m 47.968749,57.0323 c 2.177566,-5.751871 6.395916,-10.068943 8.016913,-15.935412 0.05154,3.662073 0.24972,10.203726 -1.891913,16.716662 -0.319766,0.0018 -0.173927,-0.110809 -0.46988,-0.118553 l 0.800792,-5.724517 -3.281486,5.554384 c -2.190808,-0.156324 -1.294611,0.0326 -3.174426,-0.492564 z" />
    <path
       style="opacity:0.482353;fill:#c4a000;fill-rule:evenodd;stroke:none"
       id="path5995"
       d="m 50.003066,36.642747 c -1.251995,0.616379 -2.062209,1.527278 -2.983106,2.364388 1.226487,-0.708643 2.378986,-1.448994 3.999573,-1.988738 z" />
    <path
       style="opacity:0.482353;fill:#c4a000;fill-rule:evenodd;stroke:none"
       id="path5997"
       d="m 52.008697,37.093349 -1.016465,1.988738 2.980713,-1.58825 z" />
    <path
       style="opacity:0.482353;fill:#c4a000;fill-rule:evenodd;stroke:none"
       id="path6007"
       d="m 51.939804,31.993699 -0.895193,1.707022 1.565727,0.502084 z" />
    <path
       style="opacity:0.482353;fill:#c4a000;fill-rule:evenodd;stroke:none"
       id="path6009"
       d="m 58.923253,33.91767 -2.460248,1.835447 1.565727,0.502084 z" />
    <path
       style="opacity:0.482353;fill:#c4a000;fill-rule:evenodd;stroke:none"
       id="path6011"
       d="m 55.012924,31.970866 -1.513911,2.524614 1.565727,0.502084 -0.05182,-3.026698 z" />
    <path
       style="opacity:0.2;fill:#000000;fill-opacity:1;fill-rule:evenodd;stroke:none"
       id="path6013"
       d="m 47.967725,36.056999 c -0.56678,-2.965484 9.332835,2.152903 11.036822,2.994369 -0.0065,1.079068 0,2 -0.976819,2 -2.567538,-1.39298 -6.535255,-3.605143 -10.060003,-4.994369 z" />
    <path
       style="fill:url(#linearGradient5980-761);fill-opacity:1;fill-rule:evenodd;stroke:#464646;stroke-width:0.512018;stroke-linecap:butt;stroke-linejoin:round;stroke-dasharray:none;stroke-opacity:1"
       id="path5373"
       d="m 47.650132,35.5323 c -0.48841,-1 0,-2 0.97682,-2 3.99144,0.975417 7.324875,2.206232 10.745012,4 0.48841,1 0,2 -0.976819,2 -3.533943,-1.86442 -6.866711,-3.074813 -10.745013,-4 z" />
  </g>
</svg>
