<?xml version="1.0" encoding="UTF-8" standalone="no"?>
<svg
   version="1.1"
   width="32"
   height="32"
   id="svg3041"
   sodipodi:docname="distributor-logo-minios.svg"
   inkscape:version="1.4.2 (ebf0e94, 2025-05-08)"
   xmlns:inkscape="http://www.inkscape.org/namespaces/inkscape"
   xmlns:sodipodi="http://sodipodi.sourceforge.net/DTD/sodipodi-0.dtd"
   xmlns:xlink="http://www.w3.org/1999/xlink"
   xmlns="http://www.w3.org/2000/svg"
   xmlns:svg="http://www.w3.org/2000/svg"
   xmlns:rdf="http://www.w3.org/1999/02/22-rdf-syntax-ns#"
   xmlns:cc="http://creativecommons.org/ns#"
   xmlns:dc="http://purl.org/dc/elements/1.1/">
  <sodipodi:namedview
     pagecolor="#ffffff"
     bordercolor="#666666"
     borderopacity="1"
     objecttolerance="10"
     gridtolerance="10"
     guidetolerance="10"
     inkscape:pageopacity="0"
     inkscape:pageshadow="2"
     inkscape:window-width="1267"
     inkscape:window-height="741"
     id="namedview35"
     showgrid="false"
     inkscape:zoom="11.681993"
     inkscape:cx="9.8870116"
     inkscape:cy="13.225483"
     inkscape:window-x="0"
     inkscape:window-y="0"
     inkscape:window-maximized="0"
     inkscape:current-layer="svg3041"
     inkscape:showpageshadow="2"
     inkscape:pagecheckerboard="0"
     inkscape:deskcolor="#d1d1d1" />
  <defs
     id="defs3043">
    <linearGradient
       id="linearGradient26009">
      <stop
         id="stop26005"
         offset="0"
         style="stop-color:#54ede3;stop-opacity:1;" />
      <stop
         id="stop26007"
         offset="1"
         style="stop-color:#2676c6;stop-opacity:1;" />
    </linearGradient>
    <linearGradient
       id="linearGradient4011">
      <stop
         id="stop4013"
         style="stop-color:#ffffff;stop-opacity:1"
         offset="0" />
      <stop
         id="stop4015"
         style="stop-color:#ffffff;stop-opacity:0.23529412"
         offset="0.507761" />
      <stop
         id="stop4017"
         style="stop-color:#ffffff;stop-opacity:0.15686275"
         offset="0.83456558" />
      <stop
         id="stop4019"
         style="stop-color:#ffffff;stop-opacity:0.39215687"
         offset="1" />
    </linearGradient>
    <linearGradient
       x1="71.204407"
       y1="6.2375584"
       x2="71.204407"
       y2="44.340794"
       id="linearGradient3089"
       xlink:href="#linearGradient4011"
       gradientUnits="userSpaceOnUse"
       gradientTransform="matrix(0.77837848,0,0,0.77837847,-39.835823,-3.7375291)" />
    <linearGradient
       inkscape:collect="always"
       xlink:href="#linearGradient26009"
       id="linearGradient905"
       gradientUnits="userSpaceOnUse"
       x1="12.000114"
       y1="10.420464"
       x2="12.000001"
       y2="30.498219"
       gradientTransform="matrix(1.4732664,0,0,1.4732664,-1.679198,-13.465331)" />
    <radialGradient
       gradientTransform="matrix(0.18692846,0,0,0.05946743,-2.5352675,18.262507)"
       gradientUnits="userSpaceOnUse"
       xlink:href="#linearGradient3820-7-2-2"
       id="radialGradient4277"
       fy="186.17059"
       fx="99.157013"
       r="62.769119"
       cy="186.17059"
       cx="99.157013" />
    <linearGradient
       id="linearGradient3820-7-2-2">
      <stop
         offset="0"
         style="stop-color:#3d3d3d;stop-opacity:1"
         id="stop3822-2-6-36" />
      <stop
         offset="0.5"
         style="stop-color:#686868;stop-opacity:0.49803922"
         id="stop3864-8-7-6" />
      <stop
         offset="1"
         style="stop-color:#686868;stop-opacity:0"
         id="stop3824-1-2-4" />
    </linearGradient>
    <clipPath
       clipPathUnits="userSpaceOnUse"
       id="clipPath13-5-9-7">
      <path
         d="M 0,1080 H 1920 V 0 H 0 Z"
         transform="translate(-701.78022,-736.02652)"
         id="path13-5-9-0-7" />
    </clipPath>
    <clipPath
       clipPathUnits="userSpaceOnUse"
       id="clipPath13-5-9">
      <path
         d="M 0,1080 H 1920 V 0 H 0 Z"
         transform="translate(-701.78022,-736.02652)"
         id="path13-5-9-0" />
    </clipPath>
    <clipPath
       clipPathUnits="userSpaceOnUse"
       id="clipPath13-5-2">
      <path
         d="M 0,1080 H 1920 V 0 H 0 Z"
         transform="translate(-701.78022,-736.02652)"
         id="path13-5-9-4" />
    </clipPath>
    <clipPath
       clipPathUnits="userSpaceOnUse"
       id="clipPath13-5-9-7-1">
      <path
         d="M 0,1080 H 1920 V 0 H 0 Z"
         transform="translate(-701.78022,-736.02652)"
         id="path13-5-9-0-7-7" />
    </clipPath>
    <clipPath
       clipPathUnits="userSpaceOnUse"
       id="clipPath13-5-9-1">
      <path
         d="M 0,1080 H 1920 V 0 H 0 Z"
         transform="translate(-701.78022,-736.02652)"
         id="path13-5-9-0-1" />
    </clipPath>
    <clipPath
       clipPathUnits="userSpaceOnUse"
       id="clipPath13-5-2-5">
      <path
         d="M 0,1080 H 1920 V 0 H 0 Z"
         transform="translate(-701.78022,-736.02652)"
         id="path13-5-9-4-2" />
    </clipPath>
  </defs>
  <metadata
     id="metadata3046">
    <rdf:RDF>
      <cc:Work
         rdf:about="">
        <dc:format>image/svg+xml</dc:format>
        <dc:type
           rdf:resource="http://purl.org/dc/dcmitype/StillImage" />
      </cc:Work>
    </rdf:RDF>
  </metadata>
  <path
     d="m 27.733335,29.33359 a 11.733335,3.7327174 0 1 1 -23.4666695,0 11.733335,3.7327174 0 1 1 23.4666695,0 z"
     id="path3818-0-2"
     style="display:none;fill:url(#radialGradient4277);fill-opacity:1;stroke:none;stroke-width:1.06666" />
  <path
     d="m 16.000001,0.53333109 c -8.5339732,0 -15.46666961,6.93269351 -15.46666961,15.46666691 0,8.533974 6.93269641,15.466675 15.46666961,15.46667 8.533972,0 15.466676,-6.932696 15.466668,-15.46667 0,-8.5339734 -6.932696,-15.46666691 -15.466668,-15.46666691 z"
     id="path2555"
     style="display:inline;fill:url(#linearGradient905);fill-opacity:1;fill-rule:nonzero;stroke:none;stroke-width:1.06667;stroke-linecap:round;stroke-linejoin:round;stroke-miterlimit:4;stroke-dasharray:none;stroke-dashoffset:0;stroke-opacity:1" />
  <path
     d="M 16.000001,0.53332938 C 7.466028,0.53332938 0.53333139,7.4660242 0.53333139,16 c 0,8.533975 6.93269661,15.466673 15.46666961,15.466671 8.53397,0 15.466676,-6.932696 15.466668,-15.466671 0,-8.5339758 -6.932698,-15.46667062 -15.466668,-15.46667062 z"
     id="path2555-6"
     style="color:#000000;display:inline;overflow:visible;visibility:visible;fill:none;stroke:#003d7a;stroke-width:1.06666;stroke-linecap:round;stroke-linejoin:round;stroke-miterlimit:4;stroke-dasharray:none;stroke-dashoffset:0;stroke-opacity:0.497076;marker:none;enable-background:accumulate" />
  <path
     d="m 30.400002,15.999489 c 0,7.953159 -6.447575,14.400513 -14.399818,14.400513 -7.9529737,0 -14.4001855,-6.447428 -14.4001855,-14.400513 0,-7.952791 6.4472118,-14.3994906 14.4001855,-14.3994906 7.952244,0 14.399818,6.4466996 14.399818,14.3994906 z"
     id="path8655"
     style="color:#000000;display:inline;overflow:visible;visibility:visible;opacity:0.5;fill:none;stroke:url(#linearGradient3089);stroke-width:1.06667;stroke-linecap:round;stroke-linejoin:round;stroke-miterlimit:4;stroke-dasharray:none;stroke-dashoffset:0;stroke-opacity:1;marker:none;enable-background:accumulate" />
  <g
     id="g1"
     transform="matrix(0.73307974,0,0,0.72465761,-1.5410303,-1.4228209)"
     inkscape:label="g1">
    <path
       id="path12-2-2-1"
       d="M 0,0 V 97.439 C 49.745,89.109 88.983,49.787 97.216,0 Z m -19.786,-117.184 c -116.542,3.038 -133.697,164.342 -22.075,192.855 v -96.602 c 0,-11.553 9.377,-20.93 20.93,-20.93 H 75.323 C 65.206,-85.034 26.47,-117.184 -19.786,-117.184 M 138.087,0.6 C 127.92,86.087 46.216,149.834 -39.224,139.105 c -2.219,-0.46 -3.879,-2.428 -3.879,-4.772 v -15.447 c -66.574,-10.577 -117.463,-68.234 -117.463,-137.793 4.998,-171.804 245.69,-189.744 277.289,-22.354 h 17.024 c 2.456,0 4.507,2.26 4.87,4.604 1.234,11.768 1.079,25.232 -0.53,37.257"
       style="display:inline;opacity:0.7;fill:#2468ac;fill-opacity:1;fill-rule:nonzero;stroke:none;filter:url(#filter187116)"
       transform="matrix(0.10738275,0,0,-0.10613677,26.104408,23.247541)"
       clip-path="url(#clipPath13-5-9-1)"
       inkscape:label="path12-2-2-1" />
    <path
       id="path12-2-2-17"
       d="M 0,0 V 97.439 C 49.745,89.109 88.983,49.787 97.216,0 Z m -19.786,-117.184 c -116.542,3.038 -133.697,164.342 -22.075,192.855 v -96.602 c 0,-11.553 9.377,-20.93 20.93,-20.93 H 75.323 C 65.206,-85.034 26.47,-117.184 -19.786,-117.184 M 138.087,0.6 C 127.92,86.087 46.216,149.834 -39.224,139.105 c -2.219,-0.46 -3.879,-2.428 -3.879,-4.772 v -15.447 c -66.574,-10.577 -117.463,-68.234 -117.463,-137.793 4.998,-171.804 245.69,-189.744 277.289,-22.354 h 17.024 c 2.456,0 4.507,2.26 4.87,4.604 1.234,11.768 1.079,25.232 -0.53,37.257"
       style="display:inline;fill:#ffffff;fill-opacity:1;fill-rule:nonzero;stroke:none;stroke-width:3.69126;stroke-dasharray:none;stroke-opacity:1"
       transform="matrix(0.10738274,0,0,-0.10935441,26.104454,22.023243)"
       clip-path="url(#clipPath13-5-2-5)"
       sodipodi:nodetypes="ccccccssccccscccscc" />
  </g>
</svg>
