<?xml version="1.0" encoding="UTF-8" standalone="no"?>
<svg
   version="1.1"
   width="16"
   height="16"
   id="svg4505"
   sodipodi:docname="distributor-logo-xfce.svg"
   inkscape:version="1.4.2 (ebf0e94, 2025-05-08)"
   xmlns:inkscape="http://www.inkscape.org/namespaces/inkscape"
   xmlns:sodipodi="http://sodipodi.sourceforge.net/DTD/sodipodi-0.dtd"
   xmlns:xlink="http://www.w3.org/1999/xlink"
   xmlns="http://www.w3.org/2000/svg"
   xmlns:svg="http://www.w3.org/2000/svg"
   xmlns:rdf="http://www.w3.org/1999/02/22-rdf-syntax-ns#"
   xmlns:cc="http://creativecommons.org/ns#"
   xmlns:dc="http://purl.org/dc/elements/1.1/">
  <sodipodi:namedview
     id="namedview27"
     pagecolor="#ffffff"
     bordercolor="#666666"
     borderopacity="1.0"
     inkscape:pageshadow="2"
     inkscape:pageopacity="0.0"
     inkscape:pagecheckerboard="0"
     showgrid="false"
     inkscape:zoom="15.070213"
     inkscape:cx="10.28519"
     inkscape:cy="16.190879"
     inkscape:window-width="1280"
     inkscape:window-height="754"
     inkscape:window-x="-6"
     inkscape:window-y="-6"
     inkscape:window-maximized="1"
     inkscape:current-layer="svg4505"
     inkscape:showpageshadow="2"
     inkscape:deskcolor="#d1d1d1" />
  <defs
     id="defs4507">
    <linearGradient
       id="linearGradient4806-9">
      <stop
         id="stop4808-49"
         style="stop-color:#ffffff;stop-opacity:1"
         offset="0" />
      <stop
         id="stop4810-05"
         style="stop-color:#ffffff;stop-opacity:0.23529412"
         offset="0.42447853" />
      <stop
         id="stop4812-6"
         style="stop-color:#ffffff;stop-opacity:0.15686275"
         offset="0.82089913" />
      <stop
         id="stop4814-7"
         style="stop-color:#ffffff;stop-opacity:0.39215687"
         offset="1" />
    </linearGradient>
    <linearGradient
       id="linearGradient3820-7-2-2">
      <stop
         id="stop3822-2-6-36"
         style="stop-color:#3d3d3d;stop-opacity:1"
         offset="0" />
      <stop
         id="stop3864-8-7-6"
         style="stop-color:#686868;stop-opacity:0.49803922"
         offset="0.5" />
      <stop
         id="stop3824-1-2-4"
         style="stop-color:#686868;stop-opacity:0"
         offset="1" />
    </linearGradient>
    <linearGradient
       x1="71.204407"
       y1="15.369057"
       x2="71.204407"
       y2="40.495617"
       id="linearGradient3028"
       xlink:href="#linearGradient4806-9"
       gradientUnits="userSpaceOnUse"
       gradientTransform="matrix(0.57010515,0,0,0.57010543,-33.147974,-7.8870696)" />
    <radialGradient
       cx="99.157013"
       cy="186.17059"
       r="62.769119"
       fx="99.157013"
       fy="186.17059"
       id="radialGradient3043"
       xlink:href="#linearGradient3820-7-2-2"
       gradientUnits="userSpaceOnUse"
       gradientTransform="matrix(0.17524541,0,0,0.05575992,-1.37681,18.119145)" />
    <linearGradient
       inkscape:collect="always"
       xlink:href="#linearGradient1040"
       id="linearGradient1044"
       x1="32"
       y1="4.4437337"
       x2="32"
       y2="59.678059"
       gradientUnits="userSpaceOnUse"
       gradientTransform="matrix(0.25423729,0,0,0.25423729,-0.13559324,-0.13559262)" />
    <linearGradient
       inkscape:collect="always"
       id="linearGradient1040">
      <stop
         style="stop-color:#4ee9df;stop-opacity:1;"
         offset="0"
         id="stop1036" />
      <stop
         style="stop-color:#328be6;stop-opacity:1"
         offset="1"
         id="stop1038" />
    </linearGradient>
    <clipPath
       clipPathUnits="userSpaceOnUse"
       id="clipPath13-5-9-7">
      <path
         d="M 0,1080 H 1920 V 0 H 0 Z"
         transform="translate(-701.78022,-736.02652)"
         id="path13-5-9-0-7" />
    </clipPath>
    <clipPath
       clipPathUnits="userSpaceOnUse"
       id="clipPath13-5-9">
      <path
         d="M 0,1080 H 1920 V 0 H 0 Z"
         transform="translate(-701.78022,-736.02652)"
         id="path13-5-9-0" />
    </clipPath>
    <clipPath
       clipPathUnits="userSpaceOnUse"
       id="clipPath13-5-2">
      <path
         d="M 0,1080 H 1920 V 0 H 0 Z"
         transform="translate(-701.78022,-736.02652)"
         id="path13-5-9-4" />
    </clipPath>
    <clipPath
       clipPathUnits="userSpaceOnUse"
       id="clipPath13-5-9-1">
      <path
         d="M 0,1080 H 1920 V 0 H 0 Z"
         transform="translate(-701.78022,-736.02652)"
         id="path13-5-9-0-1" />
    </clipPath>
    <clipPath
       clipPathUnits="userSpaceOnUse"
       id="clipPath13-5-2-5">
      <path
         d="M 0,1080 H 1920 V 0 H 0 Z"
         transform="translate(-701.78022,-736.02652)"
         id="path13-5-9-4-2" />
    </clipPath>
  </defs>
  <metadata
     id="metadata4510">
    <rdf:RDF>
      <cc:Work
         rdf:about="">
        <dc:format>image/svg+xml</dc:format>
        <dc:type
           rdf:resource="http://purl.org/dc/dcmitype/StillImage" />
      </cc:Work>
    </rdf:RDF>
  </metadata>
  <path
     d="m 8.0000006,0.49999981 c -4.1382408,0 -7.5000005,3.36175839 -7.5000005,7.49999999 0,4.1382412 3.3617597,7.5000022 7.5000005,7.5000002 C 12.13824,15.5 15.500005,12.138241 15.5,7.9999998 15.5,3.8617582 12.13824,0.49999981 8.0000006,0.49999981 Z"
     id="path2555"
     style="color:#000000;display:inline;overflow:visible;visibility:visible;fill:url(#linearGradient1044);fill-opacity:1;fill-rule:nonzero;stroke:none;stroke-width:1;marker:none;enable-background:accumulate" />
  <path
     d="m 8,0.49999992 c -4.1382413,0 -7.5,3.36175808 -7.5,7.49999988 C 0.5,12.138241 3.8617587,15.500002 8,15.5 c 4.138241,0 7.500006,-3.361759 7.5,-7.5000002 C 15.5,3.861758 12.138241,0.49999992 8,0.49999992 Z"
     id="path2555-7-1-7"
     style="color:#000000;display:inline;overflow:visible;visibility:visible;opacity:0.5;fill:none;stroke:#003651;stroke-width:1;stroke-linecap:round;stroke-linejoin:round;stroke-miterlimit:4;stroke-dasharray:none;stroke-dashoffset:0;stroke-opacity:1;marker:none;enable-background:accumulate" />
  <path
     d="m 14.982759,8.0000002 c 0,3.8564708 -3.126295,6.9827588 -6.982759,6.9827588 -3.8564638,0 -6.9827586,-3.126288 -6.9827586,-6.9827588 0,-3.8564707 3.1262948,-6.9827589 6.9827586,-6.9827589 3.856464,0 6.982759,3.1262882 6.982759,6.9827589 z"
     id="path3421"
     style="color:#000000;display:inline;overflow:visible;visibility:visible;opacity:0.5;fill:none;stroke:url(#linearGradient3028);stroke-width:1;stroke-linecap:round;stroke-linejoin:round;stroke-miterlimit:4;stroke-dasharray:none;stroke-dashoffset:0;stroke-opacity:1;marker:none;enable-background:accumulate" />
  <g
     id="g1"
     transform="matrix(0.36629149,0,0,0.36208328,-0.74854256,-0.75726502)"
     inkscape:label="g1">
    <path
       id="path12-2-2-1"
       d="M 0,0 V 97.439 C 49.745,89.109 88.983,49.787 97.216,0 Z m -19.786,-117.184 c -116.542,3.038 -133.697,164.342 -22.075,192.855 v -96.602 c 0,-11.553 9.377,-20.93 20.93,-20.93 H 75.323 C 65.206,-85.034 26.47,-117.184 -19.786,-117.184 M 138.087,0.6 C 127.92,86.087 46.216,149.834 -39.224,139.105 c -2.219,-0.46 -3.879,-2.428 -3.879,-4.772 v -15.447 c -66.574,-10.577 -117.463,-68.234 -117.463,-137.793 4.998,-171.804 245.69,-189.744 277.289,-22.354 h 17.024 c 2.456,0 4.507,2.26 4.87,4.604 1.234,11.768 1.079,25.232 -0.53,37.257"
       style="display:inline;opacity:0.7;fill:#2468ac;fill-opacity:1;fill-rule:nonzero;stroke:none;filter:url(#filter187116)"
       transform="matrix(0.10738275,0,0,-0.10552183,26.104408,24.260845)"
       clip-path="url(#clipPath13-5-9-1)"
       inkscape:label="path12-2-2-1" />
    <path
       id="path12-2-2-17"
       d="M 0,0 V 97.439 C 49.745,89.109 88.983,49.787 97.216,0 Z m -19.786,-117.184 c -116.542,3.038 -133.697,164.342 -22.075,192.855 v -96.602 c 0,-11.553 9.377,-20.93 20.93,-20.93 H 75.323 C 65.206,-85.034 26.47,-117.184 -19.786,-117.184 M 138.087,0.6 C 127.92,86.087 46.216,149.834 -39.224,139.105 c -2.219,-0.46 -3.879,-2.428 -3.879,-4.772 v -15.447 c -66.574,-10.577 -117.463,-68.234 -117.463,-137.793 4.998,-171.804 245.69,-189.744 277.289,-22.354 h 17.024 c 2.456,0 4.507,2.26 4.87,4.604 1.234,11.768 1.079,25.232 -0.53,37.257"
       style="display:inline;fill:#ffffff;fill-opacity:1;fill-rule:nonzero;stroke:none;stroke-width:3.69126;stroke-dasharray:none;stroke-opacity:1"
       transform="matrix(0.10738274,0,0,-0.10935441,26.104454,22.023243)"
       clip-path="url(#clipPath13-5-2-5)"
       sodipodi:nodetypes="ccccccssccccscccscc" />
    <path
       style="display:none;fill:#24ac37;fill-opacity:0.736842;stroke:none;stroke-width:9.29547;stroke-opacity:1"
       id="path1"
       sodipodi:type="arc"
       sodipodi:cx="23.8841"
       sodipodi:cy="24.185776"
       sodipodi:rx="14.307826"
       sodipodi:ry="14.474114"
       sodipodi:start="4.6992544"
       sodipodi:end="4.6930982"
       sodipodi:open="true"
       sodipodi:arc-type="arc"
       d="M 23.696178,9.7129098 A 14.307826,14.474114 0 0 1 38.190386,23.973396 14.307826,14.474114 0 0 1 24.116058,38.657988 14.307826,14.474114 0 0 1 9.5785282,24.442703 14.307826,14.474114 0 0 1 23.608108,9.7143544" />
  </g>
</svg>
