<?xml version="1.0" encoding="UTF-8" standalone="no"?>
<svg
   version="1.1"
   width="24"
   height="24"
   id="svg3749"
   sodipodi:docname="minios24.svg"
   inkscape:version="1.4.2 (ebf0e94, 2025-05-08)"
   xmlns:inkscape="http://www.inkscape.org/namespaces/inkscape"
   xmlns:sodipodi="http://sodipodi.sourceforge.net/DTD/sodipodi-0.dtd"
   xmlns:xlink="http://www.w3.org/1999/xlink"
   xmlns="http://www.w3.org/2000/svg"
   xmlns:svg="http://www.w3.org/2000/svg"
   xmlns:rdf="http://www.w3.org/1999/02/22-rdf-syntax-ns#"
   xmlns:cc="http://creativecommons.org/ns#"
   xmlns:dc="http://purl.org/dc/elements/1.1/">
  <sodipodi:namedview
     id="namedview27"
     pagecolor="#ffffff"
     bordercolor="#666666"
     borderopacity="1.0"
     inkscape:pageshadow="2"
     inkscape:pageopacity="0.0"
     inkscape:pagecheckerboard="0"
     showgrid="false"
     inkscape:zoom="28.416667"
     inkscape:cx="11.507331"
     inkscape:cy="12.017595"
     inkscape:window-width="2560"
     inkscape:window-height="1369"
     inkscape:window-x="-8"
     inkscape:window-y="-8"
     inkscape:window-maximized="1"
     inkscape:current-layer="svg3749"
     inkscape:showpageshadow="2"
     inkscape:deskcolor="#d1d1d1" />
  <metadata
     id="metadata148432">
    <rdf:RDF>
      <cc:Work
         rdf:about="">
        <dc:format>image/svg+xml</dc:format>
        <dc:type
           rdf:resource="http://purl.org/dc/dcmitype/StillImage" />
      </cc:Work>
    </rdf:RDF>
  </metadata>
  <defs
     id="defs3751">
    <linearGradient
       id="linearGradient3820-7-2-2">
      <stop
         id="stop3822-2-6-36"
         style="stop-color:#3d3d3d;stop-opacity:1"
         offset="0" />
      <stop
         id="stop3864-8-7-6"
         style="stop-color:#686868;stop-opacity:0.49803922"
         offset="0.5" />
      <stop
         id="stop3824-1-2-4"
         style="stop-color:#686868;stop-opacity:0"
         offset="1" />
    </linearGradient>
    <linearGradient
       id="linearGradient4806-9">
      <stop
         id="stop4808-49"
         style="stop-color:#ffffff;stop-opacity:1"
         offset="0" />
      <stop
         id="stop4810-05"
         style="stop-color:#ffffff;stop-opacity:0.23529412"
         offset="0.42447853" />
      <stop
         id="stop4812-6"
         style="stop-color:#ffffff;stop-opacity:0.15686275"
         offset="0.82089913" />
      <stop
         id="stop4814-7"
         style="stop-color:#ffffff;stop-opacity:0.39215687"
         offset="1" />
    </linearGradient>
    <linearGradient
       x1="71.204407"
       y1="15.369057"
       x2="71.204407"
       y2="40.495617"
       id="linearGradient3097"
       xlink:href="#linearGradient4806-9"
       gradientUnits="userSpaceOnUse"
       gradientTransform="matrix(0.77562456,0,0,0.77562491,-43.981566,-9.6142608)" />
    <radialGradient
       cx="99.157013"
       cy="186.17059"
       r="62.769119"
       fx="99.157013"
       fy="186.17059"
       id="radialGradient3108"
       xlink:href="#linearGradient3820-7-2-2"
       gradientUnits="userSpaceOnUse"
       gradientTransform="matrix(0.11151981,0,0,0.03548359,0.942029,15.166729)" />
    <linearGradient
       inkscape:collect="always"
       xlink:href="#linearGradient1040"
       id="linearGradient1044"
       x1="32"
       y1="4.4437337"
       x2="32"
       y2="59.678059"
       gradientUnits="userSpaceOnUse"
       gradientTransform="matrix(0.35593221,0,0,0.35593221,0.6101694,0.61017055)" />
    <linearGradient
       inkscape:collect="always"
       id="linearGradient1040">
      <stop
         style="stop-color:#4ee9df;stop-opacity:1;"
         offset="0"
         id="stop1036" />
      <stop
         style="stop-color:#328be6;stop-opacity:1"
         offset="1"
         id="stop1038" />
    </linearGradient>
    <clipPath
       clipPathUnits="userSpaceOnUse"
       id="clipPath13-5-9-7">
      <path
         d="M 0,1080 H 1920 V 0 H 0 Z"
         transform="translate(-701.78022,-736.02652)"
         id="path13-5-9-0-7" />
    </clipPath>
    <clipPath
       clipPathUnits="userSpaceOnUse"
       id="clipPath13-5-9">
      <path
         d="M 0,1080 H 1920 V 0 H 0 Z"
         transform="translate(-701.78022,-736.02652)"
         id="path13-5-9-0" />
    </clipPath>
    <clipPath
       clipPathUnits="userSpaceOnUse"
       id="clipPath13-5-2">
      <path
         d="M 0,1080 H 1920 V 0 H 0 Z"
         transform="translate(-701.78022,-736.02652)"
         id="path13-5-9-4" />
    </clipPath>
  </defs>
  <path
     d="m 19,21.772727 a 7,2.2272727 0 0 1 -14,0 7,2.2272727 0 1 1 14,0 z"
     id="path3818-0-2"
     style="fill:url(#radialGradient3108);fill-opacity:1;stroke:none" />
  <path
     d="M 12.000001,1.4999999 C 6.2064636,1.4999999 1.5000001,6.2064616 1.5000001,12 c 0,5.793538 4.7064635,10.500002 10.5000009,10.5 C 17.793537,22.5 22.500006,17.793538 22.5,12 22.5,6.2064616 17.793537,1.4999999 12.000001,1.4999999 Z"
     id="path2555"
     style="color:#000000;display:inline;overflow:visible;visibility:visible;fill:url(#linearGradient1044);fill-opacity:1;fill-rule:nonzero;stroke:none;stroke-width:0.999998;marker:none;enable-background:accumulate" />
  <path
     d="M 12,1.5000001 C 6.206462,1.5000001 1.5,6.2064618 1.5,11.999999 1.5,17.793538 6.206462,22.500002 12,22.5 17.793538,22.5 22.500007,17.793538 22.5,11.999999 22.5,6.2064618 17.793538,1.5000001 12,1.5000001 z"
     id="path2555-7-1-7"
     style="opacity:0.50000000000000000;color:#000000;fill:#000000;stroke:#003651;stroke-width:0.99999994000000003;stroke-linecap:round;stroke-linejoin:round;stroke-miterlimit:4;stroke-opacity:1;stroke-dasharray:none;stroke-dashoffset:0;marker:none;visibility:visible;display:inline;overflow:visible;enable-background:accumulate;fill-opacity:0;fill-rule:nonzero" />
  <path
     d="m 21.500001,12 c 0,5.246706 -4.253305,9.5 -9.500001,9.5 -5.246695,0 -9.5,-4.253294 -9.5,-9.5 0,-5.2467042 4.253305,-9.5000003 9.5,-9.5000003 5.246696,0 9.500001,4.2532961 9.500001,9.5000003 z"
     id="path3421"
     style="color:#000000;fill:none;stroke:url(#linearGradient3097);stroke-width:1;stroke-linecap:round;stroke-linejoin:round;stroke-miterlimit:4;stroke-opacity:1;stroke-dasharray:none;stroke-dashoffset:0;marker:none;visibility:visible;display:inline;overflow:visible;enable-background:accumulate;opacity:0.5" />
  <g
     id="g1"
     transform="matrix(0.5136964,0,0,0.5136964,-0.28257517,-0.40509806)">
    <path
       id="path12-2-2-1-1"
       d="M 0,0 V 97.439 C 49.745,89.109 88.983,49.787 97.216,0 Z m -19.786,-117.184 c -116.542,3.038 -133.697,164.342 -22.075,192.855 v -96.602 c 0,-11.553 9.377,-20.93 20.93,-20.93 H 75.323 C 65.206,-85.034 26.47,-117.184 -19.786,-117.184 M 138.087,0.6 C 127.92,86.087 46.216,149.834 -39.224,139.105 c -2.219,-0.46 -3.879,-2.428 -3.879,-4.772 v -15.447 c -66.574,-10.577 -117.463,-68.234 -117.463,-137.793 4.998,-171.804 245.69,-189.744 277.289,-22.354 h 17.024 c 2.456,0 4.507,2.26 4.87,4.604 1.234,11.768 1.079,25.232 -0.53,37.257"
       style="display:inline;opacity:0.7;fill:#000000;fill-opacity:0.15;fill-rule:nonzero;stroke:none;filter:url(#filter187116)"
       transform="matrix(0.11064804,0,0,-0.11267964,26.259887,24.005176)"
       clip-path="url(#clipPath13-5-9-7)" />
    <path
       id="path12-2-2-1"
       d="M 0,0 V 97.439 C 49.745,89.109 88.983,49.787 97.216,0 Z m -19.786,-117.184 c -116.542,3.038 -133.697,164.342 -22.075,192.855 v -96.602 c 0,-11.553 9.377,-20.93 20.93,-20.93 H 75.323 C 65.206,-85.034 26.47,-117.184 -19.786,-117.184 M 138.087,0.6 C 127.92,86.087 46.216,149.834 -39.224,139.105 c -2.219,-0.46 -3.879,-2.428 -3.879,-4.772 v -15.447 c -66.574,-10.577 -117.463,-68.234 -117.463,-137.793 4.998,-171.804 245.69,-189.744 277.289,-22.354 h 17.024 c 2.456,0 4.507,2.26 4.87,4.604 1.234,11.768 1.079,25.232 -0.53,37.257"
       style="display:inline;opacity:0.7;fill:#000000;fill-opacity:0.2;fill-rule:nonzero;stroke:none;filter:url(#filter187116)"
       transform="matrix(0.10738275,0,0,-0.1093544,26.104408,22.84657)"
       clip-path="url(#clipPath13-5-9)" />
    <path
       id="path12-2-2-17"
       d="M 0,0 V 97.439 C 49.745,89.109 88.983,49.787 97.216,0 Z m -19.786,-117.184 c -116.542,3.038 -133.697,164.342 -22.075,192.855 v -96.602 c 0,-11.553 9.377,-20.93 20.93,-20.93 H 75.323 C 65.206,-85.034 26.47,-117.184 -19.786,-117.184 M 138.087,0.6 C 127.92,86.087 46.216,149.834 -39.224,139.105 c -2.219,-0.46 -3.879,-2.428 -3.879,-4.772 v -15.447 c -66.574,-10.577 -117.463,-68.234 -117.463,-137.793 4.998,-171.804 245.69,-189.744 277.289,-22.354 h 17.024 c 2.456,0 4.507,2.26 4.87,4.604 1.234,11.768 1.079,25.232 -0.53,37.257"
       style="display:inline;fill:#ffffff;fill-opacity:1;fill-rule:nonzero;stroke:none;stroke-width:3.69126;stroke-dasharray:none;stroke-opacity:1"
       transform="matrix(0.10738274,0,0,-0.10935441,26.104454,22.023243)"
       clip-path="url(#clipPath13-5-2)" />
  </g>
</svg>
