<?xml version="1.0" encoding="UTF-8" standalone="no"?>
<svg
   version="1.1"
   width="64"
   height="64"
   id="svg6649"
   sodipodi:docname="package-x-generic.svg"
   inkscape:version="1.4.2 (ebf0e94, 2025-05-08)"
   xmlns:inkscape="http://www.inkscape.org/namespaces/inkscape"
   xmlns:sodipodi="http://sodipodi.sourceforge.net/DTD/sodipodi-0.dtd"
   xmlns:xlink="http://www.w3.org/1999/xlink"
   xmlns="http://www.w3.org/2000/svg"
   xmlns:svg="http://www.w3.org/2000/svg"
   xmlns:rdf="http://www.w3.org/1999/02/22-rdf-syntax-ns#"
   xmlns:cc="http://creativecommons.org/ns#"
   xmlns:dc="http://purl.org/dc/elements/1.1/">
  <sodipodi:namedview
     id="namedview1"
     pagecolor="#ffffff"
     bordercolor="#000000"
     borderopacity="0.25"
     inkscape:showpageshadow="2"
     inkscape:pageopacity="0.0"
     inkscape:pagecheckerboard="0"
     inkscape:deskcolor="#d1d1d1"
     inkscape:zoom="8.5957668"
     inkscape:cx="-21.696726"
     inkscape:cy="39.961531"
     inkscape:window-width="2560"
     inkscape:window-height="1369"
     inkscape:window-x="-8"
     inkscape:window-y="-8"
     inkscape:window-maximized="1"
     inkscape:current-layer="svg6649" />
  <defs
     id="defs6651">
    <linearGradient
       xlink:href="#linearGradient121303"
       id="linearGradient121764"
       gradientUnits="userSpaceOnUse"
       gradientTransform="matrix(1.4130758,0,0,1.2040355,-1.3938465,9.3638579)"
       x1="25.086039"
       y1="-1.3623691"
       x2="25.086039"
       y2="18.299334" />
    <linearGradient
       id="linearGradient121303">
      <stop
         id="stop121295"
         style="stop-color:#ffffff;stop-opacity:1"
         offset="0" />
      <stop
         id="stop121297"
         style="stop-color:#ffffff;stop-opacity:0.23529412"
         offset="0.11419468" />
      <stop
         id="stop121299"
         style="stop-color:#ffffff;stop-opacity:0.15686275"
         offset="0.93896598" />
      <stop
         id="stop121301"
         style="stop-color:#ffffff;stop-opacity:0.39215687"
         offset="1" />
    </linearGradient>
    <linearGradient
       xlink:href="#linearGradient3924-2-2-5-8"
       id="linearGradient121760"
       gradientUnits="userSpaceOnUse"
       gradientTransform="matrix(1.4047623,0,0,1.1769631,-1.2143033,9.0624103)"
       x1="23.99999"
       y1="6.0445275"
       x2="23.99999"
       y2="41.763222" />
    <linearGradient
       id="linearGradient3924-2-2-5-8">
      <stop
         id="stop3926-9-4-9-6"
         style="stop-color:#ffffff;stop-opacity:1"
         offset="0" />
      <stop
         id="stop3928-9-8-6-5"
         style="stop-color:#ffffff;stop-opacity:0.23529412"
         offset="0.09302325" />
      <stop
         id="stop3930-3-5-1-7"
         style="stop-color:#ffffff;stop-opacity:0.15686275"
         offset="0.9069767" />
      <stop
         id="stop3932-8-0-4-8"
         style="stop-color:#ffffff;stop-opacity:0.39215687"
         offset="1" />
    </linearGradient>
    <linearGradient
       xlink:href="#d"
       id="linearGradient121758"
       gradientUnits="userSpaceOnUse"
       gradientTransform="matrix(1.7029792,0,0,1.5656793,-7.5355781,-5.9027129)"
       x1="23.452"
       y1="30.555"
       x2="43.007"
       y2="45.933998" />
    <linearGradient
       id="d">
      <stop
         offset="0"
         stop-color="#fff"
         stop-opacity="0"
         id="stop65" />
      <stop
         offset="1"
         stop-color="#fff"
         stop-opacity="0"
         id="stop67" />
    </linearGradient>
    <linearGradient
       xlink:href="#linearGradient106305"
       id="linearGradient121756"
       gradientUnits="userSpaceOnUse"
       gradientTransform="matrix(1.7132989,0,0,1.8548066,56.080214,-20.761569)"
       x1="-5.8870335"
       y1="19.341915"
       x2="-5.8870335"
       y2="43.375748" />
    <linearGradient
       id="linearGradient106305">
      <stop
         offset="0"
         stop-color="#dac197"
         id="stop106301"
         style="stop-color:#e7c591;stop-opacity:1" />
      <stop
         offset="1"
         stop-color="#b19974"
         id="stop106303"
         style="stop-color:#cfa25e;stop-opacity:1" />
    </linearGradient>
    <linearGradient
       xlink:href="#linearGradient106305"
       id="linearGradient1703"
       gradientUnits="userSpaceOnUse"
       gradientTransform="matrix(1.7132989,0,0,1.847847,56.100475,-20.262426)"
       x1="-5.8870335"
       y1="11.482978"
       x2="-5.8870335"
       y2="22.148865" />
    <radialGradient
       cx="5"
       cy="41.5"
       fx="5"
       fy="41.5"
       gradientTransform="matrix(1.0028871,0,0,1.6,-18.167138,-111.98289)"
       gradientUnits="userSpaceOnUse"
       xlink:href="#g"
       id="k-0-7-3-9-3"
       r="5" />
    <linearGradient
       id="g">
      <stop
         offset="0"
         id="stop13" />
      <stop
         offset="1"
         stop-opacity="0"
         id="stop15" />
    </linearGradient>
    <linearGradient
       xlink:href="#h"
       id="linearGradient121754"
       gradientUnits="userSpaceOnUse"
       gradientTransform="matrix(2.1304332,0,0,1.45455,-87.719018,-13.32711)"
       x1="17.554001"
       y1="46"
       x2="17.554001"
       y2="35" />
    <linearGradient
       id="h">
      <stop
         offset="0"
         stop-opacity="0"
         id="stop54" />
      <stop
         offset=".5"
         id="stop56" />
      <stop
         offset="1"
         stop-opacity="0"
         id="stop58" />
    </linearGradient>
    <radialGradient
       cx="5"
       cy="41.5"
       fx="5"
       fy="41.5"
       gradientTransform="matrix(1.0028871,0,0,1.6,57.139048,-111.98289)"
       gradientUnits="userSpaceOnUse"
       xlink:href="#g"
       id="i-6-9-7-8-9"
       r="5" />
    <linearGradient
       gradientUnits="userSpaceOnUse"
       xlink:href="#c-3"
       id="n"
       x1="26"
       x2="26"
       y1="22"
       y2="8"
       gradientTransform="matrix(1.4047619,0,0,1.4047619,-1.2142858,-6.2380952)" />
    <linearGradient
       id="c-3">
      <stop
         offset="0"
         stop-color="#fff"
         id="stop36-6" />
      <stop
         offset="0.42818305"
         stop-color="#fff"
         id="stop38-7" />
      <stop
         offset="0.50093317"
         stop-color="#fff"
         stop-opacity=".643"
         id="stop40-5" />
      <stop
         offset="1"
         stop-color="#fff"
         stop-opacity=".391"
         id="stop42-3" />
    </linearGradient>
  </defs>
  <metadata
     id="metadata6654">
    <rdf:RDF>
      <cc:Work
         rdf:about="">
        <dc:format>image/svg+xml</dc:format>
        <dc:type
           rdf:resource="http://purl.org/dc/dcmitype/StillImage" />
      </cc:Work>
    </rdf:RDF>
  </metadata>
  <g
     id="g1"
     transform="matrix(0.93220341,0,0,0.93220341,1.7033886,2.200364)">
    <g
       id="g1210"
       transform="matrix(0.99999996,0,0,1.0535714,70.154028,7.5465985)"
       style="stroke-width:1.36858">
      <rect
         fill="url(#i)"
         height="16"
         opacity="0.4"
         transform="scale(-1)"
         width="5"
         x="62.15403"
         y="-53.58289"
         id="rect77-9-90-2-7-8"
         style="fill:url(#i-6-9-7-8-9);stroke-width:1.36858" />
      <rect
         fill="url(#j)"
         height="16"
         opacity="0.4"
         width="49"
         x="-62.15403"
         y="37.58289"
         id="rect79-7-2-0-1-4"
         style="fill:url(#linearGradient121754);stroke-width:1.36858" />
      <rect
         fill="url(#k)"
         height="16"
         opacity="0.4"
         transform="scale(1,-1)"
         width="5"
         x="-13.154028"
         y="-53.58289"
         id="rect81-3-8-6-7-8"
         style="fill:url(#k-0-7-3-9-3);stroke-width:1.36858" />
    </g>
    <path
       id="rect5505-21-1-5-0-6-5-1-2-5-10"
       style="color:#000000;font-variation-settings:normal;display:inline;overflow:visible;visibility:visible;vector-effect:none;fill:url(#linearGradient1703);fill-opacity:1;fill-rule:nonzero;stroke:none;stroke-width:1.40476;stroke-linecap:butt;stroke-linejoin:miter;stroke-miterlimit:4;stroke-dasharray:none;stroke-dashoffset:0;stroke-opacity:0.3;-inkscape-stroke:none;marker:none;enable-background:accumulate;stop-color:#000000"
       d="m 15.068201,5.702381 c -3.311049,0 -4.631883,1.9617757 -5.9766224,4.998178 -1.0307483,2.321273 -2.2300287,4.723002 -3.1828604,6.997449 -0.5067594,0.881817 -0.8015557,1.903798 -0.8015557,2.998907 H 59.892881 c 0,-1.095109 -0.294796,-2.11709 -0.801554,-2.998907 C 58.112664,15.435079 56.96803,13.008817 55.908465,10.700559 54.522985,7.6826565 53.242891,5.702381 49.931842,5.702381 Z" />
    <path
       id="rect5505-21-1-5-0-6-5-1-2-3"
       style="color:#000000;font-variation-settings:normal;display:inline;overflow:visible;visibility:visible;vector-effect:none;fill:url(#linearGradient121756);fill-opacity:1;fill-rule:nonzero;stroke:none;stroke-width:1.40476;stroke-linecap:butt;stroke-linejoin:miter;stroke-miterlimit:4;stroke-dasharray:none;stroke-dashoffset:0;stroke-opacity:0.3;-inkscape-stroke:none;marker:none;enable-background:accumulate;stop-color:#000000"
       d="m 11.083766,14.833333 c -2.4902598,0 -5.9766232,2.186452 -5.9766232,7.525505 v 32.10882 c 0,0.25286 0.020425,0.500438 0.050599,0.744712 0.00702,0.05664 0.016829,0.112395 0.0253,0.168538 0.03009,0.197289 0.068131,0.391708 0.1167357,0.582052 0.012502,0.04912 0.023417,0.09836 0.036959,0.146981 0.1364445,0.483009 0.3283954,0.942452 0.5719825,1.367918 7.164e-4,0.0013 9.96e-4,0.0025 0.00197,0.0039 1.0313059,1.798459 2.9548028,3.006289 5.173057,3.006289 h 42.832472 c 2.218254,0 4.141751,-1.20783 5.173127,-3.006283 5.56e-4,-0.0013 9.96e-4,-0.0027 0.002,-0.0039 0.243588,-0.425466 0.435547,-0.884909 0.571984,-1.367918 0.01349,-0.04862 0.02461,-0.09786 0.03696,-0.146982 0.0486,-0.190344 0.08666,-0.384761 0.116735,-0.58205 0.008,-0.05615 0.01843,-0.111889 0.0253,-0.168539 0.03019,-0.24428 0.05052,-0.491858 0.05052,-0.744718 V 22.860539 c 0,-3.758405 -1.494156,-8.027204 -5.976624,-8.027204 z" />
    <path
       d="m 13.739209,13.84509 h 36.726356 c 2.144612,0 3.471422,0.74173 4.369908,2.780986 l 3.092902,8.556881 v 30.847757 c 0,1.946291 -1.087745,2.926934 -3.231361,2.926934 H 9.8942483 c -2.1436161,0 -3.0181956,-1.078607 -3.0181956,-3.024898 V 25.180957 L 9.8693461,16.441144 C 10.467009,14.861719 11.595595,13.84409 13.739209,13.84409 Z"
       display="block"
       fill="none"
       opacity="0.505"
       overflow="visible"
       stroke="url(#m)"
       stroke-width="1.04233"
       style="stroke:url(#linearGradient121758);marker:none"
       id="path85-1-8-5-7-0" />
    <rect
       style="opacity:0.3;fill:none;stroke:url(#linearGradient121760);stroke-width:1.40474;stroke-linecap:round;stroke-linejoin:round;stroke-miterlimit:4;stroke-dasharray:none;stroke-dashoffset:0;stroke-opacity:1"
       id="rect6741-5-0-2-3-4-2-4"
       y="15.535704"
       x="6.5118966"
       ry="4.9166665"
       height="43.547642"
       width="51.976189"
       rx="4.9166665" />
    <path
       id="rect5505-21-1-5-0-6-5-1-2-5-1-4"
       style="color:#000000;font-variation-settings:normal;display:inline;overflow:visible;visibility:visible;vector-effect:none;fill:none;fill-opacity:1;fill-rule:nonzero;stroke:#804b00;stroke-width:1.40476;stroke-linecap:butt;stroke-linejoin:miter;stroke-miterlimit:4;stroke-dasharray:none;stroke-dashoffset:0;stroke-opacity:0.5;-inkscape-stroke:none;marker:none;enable-background:accumulate;stop-color:#000000"
       d="m 15.068201,5.7023803 c -3.311049,0 -4.631883,1.9548447 -5.9766224,4.9805197 -1.0307483,2.313072 -2.2300287,4.706316 -3.1828604,6.972728 -0.5067594,0.878701 -0.8015557,1.897072 -0.8015557,2.988311 v 33.867534 c 0,3.311049 2.6655736,5.976624 5.9766225,5.976624 h 42.832473 c 3.311049,0 5.976623,-2.665575 5.976623,-5.976624 V 20.643939 c 0,-1.091239 -0.294796,-2.10961 -0.801554,-2.988311 C 58.112664,15.400693 56.96803,12.983003 55.908465,10.6829 54.522985,7.6756596 53.242891,5.7023803 49.931842,5.7023803 Z" />
    <path
       id="rect5505-21-1-5-0-6-5-1-2-5-1-7-7"
       style="color:#000000;font-variation-settings:normal;display:inline;overflow:visible;visibility:visible;opacity:0.15;vector-effect:none;fill:none;fill-opacity:1;fill-rule:nonzero;stroke:url(#linearGradient121764);stroke-width:1.40475;stroke-linecap:round;stroke-linejoin:round;stroke-miterlimit:4;stroke-dasharray:none;stroke-dashoffset:0;stroke-opacity:1;-inkscape-stroke:none;marker:none;enable-background:accumulate;stop-color:#000000"
       d="M 57.166351,16.490952 54.760224,11.463451 C 54.088624,10.000497 53.463022,8.8762647 52.735251,8.1763956 52.007471,7.4765267 51.201837,7.1071351 49.764229,7.1071351 H 15.237187 c -1.439502,0 -2.26001,0.368895 -2.990289,1.0653937 -0.730275,0.6964985 -1.35125,1.8126092 -1.999944,3.2773902 v 0.002 l -2.192817,5.146833" />
    <path
       d="m 29.690476,5 h 5.619048 v 19.666667 c -0.553476,0 -1.105548,-1.083072 -1.659024,-1.083072 -0.566119,0 -1.132238,1.083072 -1.699762,1.083072 -0.455143,0 -0.91169,-0.948215 -1.366833,-0.948215 -0.29781,0 -0.595619,0.948215 -0.893429,0.948215 z"
       fill="url(#n)"
       opacity="0.3"
       overflow="visible"
       style="fill:url(#n);stroke-width:1.40476;marker:none"
       id="path87" />
  </g>
</svg>
