<?xml version="1.0" encoding="UTF-8" standalone="no"?>
<svg
   version="1.1"
   width="48"
   height="48"
   id="svg4031"
   sodipodi:docname="minios48.svg"
   inkscape:version="1.4.2 (ebf0e94, 2025-05-08)"
   xmlns:inkscape="http://www.inkscape.org/namespaces/inkscape"
   xmlns:sodipodi="http://sodipodi.sourceforge.net/DTD/sodipodi-0.dtd"
   xmlns:xlink="http://www.w3.org/1999/xlink"
   xmlns="http://www.w3.org/2000/svg"
   xmlns:svg="http://www.w3.org/2000/svg"
   xmlns:rdf="http://www.w3.org/1999/02/22-rdf-syntax-ns#"
   xmlns:cc="http://creativecommons.org/ns#"
   xmlns:dc="http://purl.org/dc/elements/1.1/">
  <sodipodi:namedview
     id="namedview27"
     pagecolor="#ffffff"
     bordercolor="#666666"
     borderopacity="1.0"
     inkscape:pageshadow="2"
     inkscape:pageopacity="0.0"
     inkscape:pagecheckerboard="0"
     showgrid="false"
     inkscape:zoom="14.208333"
     inkscape:cx="22.909091"
     inkscape:cy="24.035191"
     inkscape:window-width="1317"
     inkscape:window-height="893"
     inkscape:window-x="461"
     inkscape:window-y="292"
     inkscape:window-maximized="0"
     inkscape:current-layer="svg4031"
     inkscape:showpageshadow="2"
     inkscape:deskcolor="#d1d1d1" />
  <defs
     id="defs4033">
    <linearGradient
       id="linearGradient4011">
      <stop
         id="stop4013"
         style="stop-color:#ffffff;stop-opacity:1"
         offset="0" />
      <stop
         id="stop4015"
         style="stop-color:#ffffff;stop-opacity:0.23529412"
         offset="0.507761" />
      <stop
         id="stop4017"
         style="stop-color:#ffffff;stop-opacity:0.15686275"
         offset="0.83456558" />
      <stop
         id="stop4019"
         style="stop-color:#ffffff;stop-opacity:0.39215687"
         offset="1" />
    </linearGradient>
    <linearGradient
       id="linearGradient3820-7-2-1">
      <stop
         id="stop3822-2-6-3"
         style="stop-color:#3d3d3d;stop-opacity:1"
         offset="0" />
      <stop
         id="stop3864-8-7-7"
         style="stop-color:#686868;stop-opacity:0.49803922"
         offset="0.5" />
      <stop
         id="stop3824-1-2-5"
         style="stop-color:#686868;stop-opacity:0"
         offset="1" />
    </linearGradient>
    <linearGradient
       x1="71.204407"
       y1="6.2375584"
       x2="71.204407"
       y2="44.340794"
       id="linearGradient3012"
       xlink:href="#linearGradient4011"
       gradientUnits="userSpaceOnUse"
       gradientTransform="translate(-47.733513,-1.3572406)" />
    <radialGradient
       cx="99.157013"
       cy="186.17059"
       r="62.769119"
       fx="99.157013"
       fy="186.17059"
       id="radialGradient3018"
       xlink:href="#linearGradient3820-7-2-1"
       gradientUnits="userSpaceOnUse"
       gradientTransform="matrix(0.27083381,0,0,0.08762273,-2.855072,25.187228)" />
    <linearGradient
       inkscape:collect="always"
       xlink:href="#linearGradient1040"
       id="linearGradient1044"
       x1="32"
       y1="4.4437337"
       x2="32"
       y2="59.678059"
       gradientUnits="userSpaceOnUse"
       gradientTransform="matrix(0.66101694,0,0,0.66101694,2.8474568,2.8474595)" />
    <linearGradient
       inkscape:collect="always"
       id="linearGradient1040">
      <stop
         style="stop-color:#4ee9df;stop-opacity:1;"
         offset="0"
         id="stop1036" />
      <stop
         style="stop-color:#328be6;stop-opacity:1"
         offset="1"
         id="stop1038" />
    </linearGradient>
    <clipPath
       clipPathUnits="userSpaceOnUse"
       id="clipPath13-5-9-7">
      <path
         d="M 0,1080 H 1920 V 0 H 0 Z"
         transform="translate(-701.78022,-736.02652)"
         id="path13-5-9-0-7" />
    </clipPath>
    <clipPath
       clipPathUnits="userSpaceOnUse"
       id="clipPath13-5-9">
      <path
         d="M 0,1080 H 1920 V 0 H 0 Z"
         transform="translate(-701.78022,-736.02652)"
         id="path13-5-9-0" />
    </clipPath>
    <clipPath
       clipPathUnits="userSpaceOnUse"
       id="clipPath13-5-2">
      <path
         d="M 0,1080 H 1920 V 0 H 0 Z"
         transform="translate(-701.78022,-736.02652)"
         id="path13-5-9-4" />
    </clipPath>
  </defs>
  <metadata
     id="metadata4036">
    <rdf:RDF>
      <cc:Work
         rdf:about="">
        <dc:format>image/svg+xml</dc:format>
        <dc:type
           rdf:resource="http://purl.org/dc/dcmitype/StillImage" />
      </cc:Work>
    </rdf:RDF>
  </metadata>
  <path
     d="m 40.999999,41.499999 a 17,5.4999999 0 1 1 -33.999999,0 17,5.4999999 0 1 1 33.999999,0 z"
     id="path3818-0-5"
     style="fill:url(#radialGradient3018);fill-opacity:1;stroke:none" />
  <path
     d="M 24.000001,4.5 C 13.240575,4.5 4.5,13.240571 4.5,23.999999 4.5,34.759427 13.240575,43.500003 24.000001,43.5 34.759425,43.5 43.50001,34.759427 43.5,23.999999 43.5,13.240571 34.759425,4.5 24.000001,4.5 Z"
     id="path2555"
     style="color:#000000;display:inline;overflow:visible;visibility:visible;fill:url(#linearGradient1044);fill-opacity:1;fill-rule:nonzero;stroke:none;stroke-width:1;marker:none;enable-background:accumulate" />
  <path
     d="M 42.5,23.999344 C 42.5,34.216942 34.216658,42.5 24.000234,42.5 13.782875,42.5 5.4999995,34.216848 5.4999995,23.999344 5.4999995,13.782218 13.782875,5.4999995 24.000234,5.4999995 34.216658,5.4999995 42.5,13.782218 42.5,23.999344 Z"
     id="path8655"
     style="color:#000000;display:inline;overflow:visible;visibility:visible;opacity:0.5;fill:none;stroke:url(#linearGradient3012);stroke-width:0.999999;stroke-linecap:round;stroke-linejoin:round;stroke-miterlimit:4;stroke-dasharray:none;stroke-dashoffset:0;stroke-opacity:1;marker:none;enable-background:accumulate" />
  <path
     d="M 24.000003,4.5 C 13.240575,4.5 4.5,13.240571 4.5,23.999999 4.5,34.759427 13.240575,43.500003 24.000003,43.5 34.759425,43.5 43.50001,34.759427 43.499999,23.999999 43.499999,13.240571 34.759425,4.5 24.000003,4.5 Z"
     id="path2555-6"
     style="color:#000000;display:inline;overflow:visible;visibility:visible;opacity:0.5;fill:#000000;fill-opacity:0;fill-rule:nonzero;stroke:#003651;stroke-width:1;stroke-linecap:round;stroke-linejoin:round;stroke-miterlimit:4;stroke-dasharray:none;stroke-dashoffset:0;stroke-opacity:1;marker:none;enable-background:accumulate" />
  <g
     id="g1"
     transform="matrix(0.97021528,0,0,0.97021528,0.88262233,0.30282415)">
    <path
       id="path12-2-2-1-1"
       d="M 0,0 V 97.439 C 49.745,89.109 88.983,49.787 97.216,0 Z m -19.786,-117.184 c -116.542,3.038 -133.697,164.342 -22.075,192.855 v -96.602 c 0,-11.553 9.377,-20.93 20.93,-20.93 H 75.323 C 65.206,-85.034 26.47,-117.184 -19.786,-117.184 M 138.087,0.6 C 127.92,86.087 46.216,149.834 -39.224,139.105 c -2.219,-0.46 -3.879,-2.428 -3.879,-4.772 v -15.447 c -66.574,-10.577 -117.463,-68.234 -117.463,-137.793 4.998,-171.804 245.69,-189.744 277.289,-22.354 h 17.024 c 2.456,0 4.507,2.26 4.87,4.604 1.234,11.768 1.079,25.232 -0.53,37.257"
       style="display:inline;opacity:0.7;fill:#000000;fill-opacity:0.15;fill-rule:nonzero;stroke:none;filter:url(#filter187116)"
       transform="matrix(0.11064804,0,0,-0.11267964,26.259887,24.005176)"
       clip-path="url(#clipPath13-5-9-7)" />
    <path
       id="path12-2-2-1"
       d="M 0,0 V 97.439 C 49.745,89.109 88.983,49.787 97.216,0 Z m -19.786,-117.184 c -116.542,3.038 -133.697,164.342 -22.075,192.855 v -96.602 c 0,-11.553 9.377,-20.93 20.93,-20.93 H 75.323 C 65.206,-85.034 26.47,-117.184 -19.786,-117.184 M 138.087,0.6 C 127.92,86.087 46.216,149.834 -39.224,139.105 c -2.219,-0.46 -3.879,-2.428 -3.879,-4.772 v -15.447 c -66.574,-10.577 -117.463,-68.234 -117.463,-137.793 4.998,-171.804 245.69,-189.744 277.289,-22.354 h 17.024 c 2.456,0 4.507,2.26 4.87,4.604 1.234,11.768 1.079,25.232 -0.53,37.257"
       style="display:inline;opacity:0.7;fill:#000000;fill-opacity:0.2;fill-rule:nonzero;stroke:none;filter:url(#filter187116)"
       transform="matrix(0.10738275,0,0,-0.1093544,26.104408,22.84657)"
       clip-path="url(#clipPath13-5-9)" />
    <path
       id="path12-2-2-17"
       d="M 0,0 V 97.439 C 49.745,89.109 88.983,49.787 97.216,0 Z m -19.786,-117.184 c -116.542,3.038 -133.697,164.342 -22.075,192.855 v -96.602 c 0,-11.553 9.377,-20.93 20.93,-20.93 H 75.323 C 65.206,-85.034 26.47,-117.184 -19.786,-117.184 M 138.087,0.6 C 127.92,86.087 46.216,149.834 -39.224,139.105 c -2.219,-0.46 -3.879,-2.428 -3.879,-4.772 v -15.447 c -66.574,-10.577 -117.463,-68.234 -117.463,-137.793 4.998,-171.804 245.69,-189.744 277.289,-22.354 h 17.024 c 2.456,0 4.507,2.26 4.87,4.604 1.234,11.768 1.079,25.232 -0.53,37.257"
       style="display:inline;fill:#ffffff;fill-opacity:1;fill-rule:nonzero;stroke:none;stroke-width:3.69126;stroke-dasharray:none;stroke-opacity:1"
       transform="matrix(0.10738274,0,0,-0.10935441,26.104454,22.023243)"
       clip-path="url(#clipPath13-5-2)" />
  </g>
</svg>
