<?xml version="1.0" encoding="UTF-8" standalone="no"?>
<svg
   version="1.1"
   style="display:block"
   viewBox="0 0 64 64"
   width="32"
   height="32"
   id="svg41"
   xmlns:xlink="http://www.w3.org/1999/xlink"
   xmlns="http://www.w3.org/2000/svg"
   xmlns:svg="http://www.w3.org/2000/svg">
  <defs
     id="defs10">
    <linearGradient
       id="linearGradient71">
      <stop
         id="stop70"
         style="stop-color:#1a1a1a;stop-opacity:1;"
         offset="0" />
      <stop
         id="stop71"
         style="stop-color:#1a1a1a;stop-opacity:0;"
         offset="1" />
    </linearGradient>
    <linearGradient
       id="linearGradient66">
      <stop
         style="stop-color:#fafafa;stop-opacity:1;"
         offset="0"
         id="stop67" />
      <stop
         style="stop-color:#fafafa;stop-opacity:1;"
         offset="0.5"
         id="stop69" />
      <stop
         style="stop-color:#d4d4d4;stop-opacity:1;"
         offset="1"
         id="stop68" />
    </linearGradient>
    <linearGradient
       id="linearGradient63">
      <stop
         style="stop-color:#fafafa;stop-opacity:1;"
         offset="0"
         id="stop64" />
      <stop
         style="stop-color:#fafafa;stop-opacity:1;"
         offset="0.5"
         id="stop66" />
      <stop
         style="stop-color:#d4d4d4;stop-opacity:1;"
         offset="1"
         id="stop65" />
    </linearGradient>
    <linearGradient
       id="linearGradient61">
      <stop
         style="stop-color:#fafafa;stop-opacity:1;"
         offset="0"
         id="stop61" />
      <stop
         style="stop-color:#fafafa;stop-opacity:1;"
         offset="0.5"
         id="stop63" />
      <stop
         style="stop-color:#d4d4d4;stop-opacity:1;"
         offset="1"
         id="stop62" />
    </linearGradient>
    <linearGradient
       id="linearGradient55">
      <stop
         style="stop-color:#f9c440;stop-opacity:1;"
         offset="0"
         id="stop56" />
      <stop
         style="stop-color:#f9c440;stop-opacity:1;"
         offset="0.5"
         id="stop58" />
      <stop
         style="stop-color:#f9c440;stop-opacity:1;"
         offset="1"
         id="stop57" />
    </linearGradient>
    <linearGradient
       id="linearGradient52">
      <stop
         style="stop-color:#333333;stop-opacity:0.7977528;"
         offset="0"
         id="stop53" />
      <stop
         style="stop-color:#000000;stop-opacity:1;"
         offset="0.5"
         id="stop55" />
      <stop
         style="stop-color:#333333;stop-opacity:0.80337077;"
         offset="1"
         id="stop54" />
    </linearGradient>
    <linearGradient
       id="linearGradient46">
      <stop
         style="stop-color:#1a1a1a;stop-opacity:1;"
         offset="0.18079096"
         id="stop47" />
      <stop
         style="stop-color:#273445;stop-opacity:1;"
         offset="0.78813559"
         id="stop48" />
    </linearGradient>
    <linearGradient
       id="linearGradient44">
      <stop
         style="stop-color:#273445;stop-opacity:1;"
         offset="0"
         id="stop45" />
      <stop
         style="stop-color:#0e141f;stop-opacity:0.8984375;"
         offset="1"
         id="stop46" />
    </linearGradient>
    <linearGradient
       id="linearGradient43">
      <stop
         style="stop-color:#273445;stop-opacity:1;"
         offset="0"
         id="stop43" />
      <stop
         style="stop-color:#0e141f;stop-opacity:0.90196079;"
         offset="1"
         id="stop44" />
    </linearGradient>
    <radialGradient
       xlink:href="#linearGradient43"
       id="radialGradient44"
       cx="866.11682"
       cy="622.21008"
       fx="866.11682"
       fy="622.21008"
       r="48.063271"
       gradientTransform="matrix(1,0,0,1.2678719,0,-166.67262)"
       gradientUnits="userSpaceOnUse" />
    <radialGradient
       xlink:href="#linearGradient44"
       id="radialGradient46"
       cx="1187.2159"
       cy="622.3175"
       fx="1187.2159"
       fy="622.3175"
       r="47.116821"
       gradientTransform="matrix(1,0,0,1.2931793,0,-182.45062)"
       gradientUnits="userSpaceOnUse" />
    <radialGradient
       xlink:href="#linearGradient46"
       id="radialGradient48"
       cx="1025.672"
       cy="1059.7036"
       fx="1025.672"
       fy="1059.7036"
       r="748.48352"
       gradientTransform="matrix(1,0,0,1.2150181,0,-227.85547)"
       gradientUnits="userSpaceOnUse" />
    <linearGradient
       xlink:href="#linearGradient52"
       id="linearGradient54"
       x1="798.76056"
       y1="829.77112"
       x2="1250.071"
       y2="829.77112"
       gradientUnits="userSpaceOnUse" />
    <linearGradient
       xlink:href="#linearGradient55"
       id="linearGradient57"
       x1="1044.6309"
       y1="1854.194"
       x2="1458.2455"
       y2="1854.194"
       gradientUnits="userSpaceOnUse" />
    <radialGradient
       r="18.25"
       fy="33.9375"
       fx="23"
       cy="33.9375"
       cx="23"
       gradientTransform="matrix(1,0,0,0.284247,0,24.29088)"
       gradientUnits="userSpaceOnUse"
       id="radialGradient5227"
       xlink:href="#linearGradient3414" />
    <linearGradient
       id="linearGradient3414">
      <stop
         id="stop3416"
         style="stop-color:#1a1a1a;stop-opacity:1;"
         offset="0" />
      <stop
         id="stop3418"
         style="stop-color:#1a1a1a;stop-opacity:0;"
         offset="1" />
    </linearGradient>
    <filter
       id="filter8668"
       x="-0.057319019"
       width="1.114638"
       y="-0.20165245"
       height="1.4033049">
      <feGaussianBlur
         stdDeviation="0.87172675"
         id="feGaussianBlur8670" />
    </filter>
    <radialGradient
       xlink:href="#linearGradient71"
       id="radialGradient8638"
       gradientUnits="userSpaceOnUse"
       gradientTransform="matrix(25.476515,0,0,11.080552,439.71178,-596.29091)"
       cx="23"
       cy="33.9375"
       fx="23"
       fy="33.9375"
       r="18.25" />
    <radialGradient
       xlink:href="#linearGradient61"
       id="radialGradient62"
       cx="1023.6175"
       cy="1312.9078"
       fx="1023.6175"
       fy="1312.9078"
       r="331.02249"
       gradientTransform="matrix(1,0,0,1.1960173,0,-257.35269)"
       gradientUnits="userSpaceOnUse" />
    <radialGradient
       xlink:href="#linearGradient63"
       id="radialGradient65"
       cx="849.26727"
       cy="613.53735"
       fx="849.26727"
       fy="613.53735"
       r="91.224419"
       gradientTransform="matrix(1,0,0,1.2010784,0,-123.36911)"
       gradientUnits="userSpaceOnUse" />
    <radialGradient
       xlink:href="#linearGradient66"
       id="radialGradient68"
       cx="1198.4038"
       cy="613.27069"
       fx="1198.4038"
       fy="613.27069"
       r="92.104042"
       gradientTransform="matrix(1,0,0,1.1899387,0,-116.48384)"
       gradientUnits="userSpaceOnUse" />
  </defs>
  <g
     id="g69"
     transform="matrix(0.0308548,0,0,0.0308548,0.40468465,-1.1906297)"
     style="stroke-width:1.01168;stroke-dasharray:none">
    <g
       id="g61"
       transform="matrix(1.1410952,0,0,0.37742356,-146.38945,1986.5889)"
       style="display:block;stroke-width:1.54159;stroke-dasharray:none">
      <ellipse
         transform="matrix(32.981464,0,0,52.606688,267.09842,-2005.5861)"
         id="path5189"
         style="display:inline;overflow:visible;visibility:visible;opacity:0.674699;fill:url(#radialGradient5227);fill-opacity:1;fill-rule:evenodd;stroke:none;stroke-width:0.0370096;stroke-linecap:butt;stroke-linejoin:miter;stroke-miterlimit:10;stroke-dasharray:none;stroke-dashoffset:0;stroke-opacity:1;marker:none;marker-start:none;marker-mid:none;marker-end:none;filter:url(#filter8668);enable-background:new"
         cx="23"
         cy="33.9375"
         rx="18.25"
         ry="5.1875" />
      <ellipse
         style="display:inline;overflow:visible;visibility:visible;opacity:0.885542;fill:url(#radialGradient8638);fill-opacity:1;fill-rule:evenodd;stroke:none;stroke-width:1.54159;stroke-linecap:butt;stroke-linejoin:miter;stroke-miterlimit:10;stroke-dasharray:none;stroke-dashoffset:0;stroke-opacity:1;marker:none;marker-start:none;marker-mid:none;marker-end:none;enable-background:new"
         id="path8636"
         cx="1025.672"
         cy="-220.24658"
         rx="464.94635"
         ry="202.21977" />
    </g>
    <g
       id="g60"
       transform="translate(-1.67208,-35.703554)"
       style="stroke-width:1.01168;stroke-dasharray:none">
      <path
         fill="#3d3d3c"
         d="m 617.797,915.95 c 14.993,-33.873 26.804,-66.94 32.549,-103.644 9.079,-58.017 4.467,-114.884 1.929,-173.13 -5.3,-121.65 2.232,-246.22 80.315,-345.878 37.054,-47.612 86.426,-84.181 142.771,-105.747 97.974,-37.682 219.499,-36.727 315.629,6.242 81.34,35.424 145.02,102.059 176.71,184.916 30.26,79.384 33.44,164.905 29.39,248.88 -1.89,39.273 -5.46,78.42 -3.91,117.782 2.37,60.309 13.53,115.426 37.12,170.959 -11.81,-4.186 -24.07,-9.513 -36.26,-12.316 l 0.81,1.002 c 7.64,9.246 16.73,17.449 25.15,26.01 10.89,11.097 21.35,22.607 31.36,34.503 54.16,64.871 96.85,146.961 106.9,231.671 1.65,13.88 1.79,27.62 1.83,41.57 8.64,10.11 30.43,70.37 37.08,87.29 39.65,101.86 78.08,204.2 115.27,306.99 14.9,40.93 28.93,82.23 44.2,123.01 -116.54,-49.26 -196.64,-46.34 -314.31,-3.61 -25.98,12.63 -54.82,19.77 -81.81,29.97 8.39,5.49 16.78,10.94 24.75,17.03 6.29,4.8 12.58,11.01 19.44,14.81 4.16,3.49 8.26,7.06 12.28,10.7 17.53,16.15 40.87,39.04 41.25,64.66 0.17,11.43 -3.63,23.64 -11.72,31.88 -22.02,22.45 -58.59,21.28 -87.22,16.98 -4.38,-0.66 -14.86,-3.45 -19.06,-2.14 -5.26,1.64 -13.75,9.52 -19.28,12.69 -22.11,12.72 -43.2,9.32 -67.04,9.04 l 0.81,0.28 c -17.16,1.26 -39,-1.93 -55.01,-8.44 -6.43,-2.61 -15.46,-8.31 -22.1,-9.07 -8.05,-0.92 -17.79,1.5 -25.84,2.55 -24.52,3.18 -53.06,3.3 -75.17,-9.36 -16.45,-9.43 -26.48,-25.46 -30.76,-43.77 -6.32,-27.1 13.33,-52.57 26.84,-73.91 l 0.95,-1.52 c -31.91,3.42 -65.96,0.91 -98.029,-0.11 13.243,20.83 27.619,44.44 25.639,70.07 -1.22,16.97 -9.259,32.71 -22.29,43.65 -21.161,17.71 -51.387,18.73 -77.556,16.23 -9.617,-0.93 -19.459,-3.23 -29.132,-2.82 -11.095,0.47 -24.179,9.19 -35.041,12.75 -8.004,2.63 -17.543,3.69 -25.953,4.01 -8.886,0.34 -17.919,-0.7 -26.828,-0.82 -5.408,-0.08 -10.482,1.41 -15.796,1.33 -11.844,-0.16 -27.683,-6.03 -38.311,-11.34 -6.236,-3.12 -14.856,-10.63 -21.542,-11.59 -6.299,-0.9 -15.036,2.52 -21.773,3 -15.327,1.08 -30.207,0.88 -45.502,-0.45 -15.997,-1.39 -33.714,-9.05 -43.978,-21.77 -7.351,-9.1 -10.494,-21.56 -8.861,-33.1 3.902,-27.57 34.474,-54.36 55.779,-69.95 5.568,-3.19 11.022,-8.24 16.226,-12.12 8.405,-6.27 17.086,-12.11 25.815,-17.91 -27.092,-11.17 -56.228,-18.74 -82.604,-31.46 -112.302,-42.81 -199.752,-45.52 -310.817,2.96 5.516,-18.09 12.379,-35.95 18.656,-53.79 12.719,-36.13 25.656,-72.17 38.81,-108.14 33.352,-93.41 68.596,-186.14 105.711,-278.12 6.056,-14.76 12.833,-29.31 18.795,-44.07 3.678,-9.1 6.638,-21.03 12.166,-29.07 l 1.434,0.58 c -0.217,-1.77 -0.415,-3.49 -0.505,-5.28 -4.816,-95.34 41.504,-190.76 100.725,-262.951 20.68,-25.211 43.929,-47.424 66.077,-71.236 -12.624,3.495 -24.685,8.67 -37.158,12.637 z"
         id="path17"
         style="display:inline;fill:url(#radialGradient48);fill-opacity:1;stroke:#a62100;stroke-width:64.8197;stroke-linejoin:round;stroke-dasharray:none;stroke-opacity:1;paint-order:stroke fill markers" />
      <path
         fill="rgb(247,119,38)"
         d="m 617.797,915.95 c 14.993,-33.873 26.804,-66.94 32.549,-103.644 9.079,-58.017 4.467,-114.884 1.929,-173.13 -5.3,-121.65 2.232,-246.22 80.315,-345.878 37.054,-47.612 86.426,-84.181 142.771,-105.747 97.974,-37.682 219.499,-36.727 315.629,6.242 81.34,35.424 145.02,102.059 176.71,184.916 30.26,79.384 33.44,164.905 29.39,248.88 -1.89,39.273 -5.46,78.42 -3.91,117.782 2.37,60.309 13.53,115.426 37.12,170.959 -11.81,-4.186 -24.07,-9.513 -36.26,-12.316 -25.53,-15.258 -57.73,-21.341 -76.11,-47.172 -20.22,-28.419 3.15,-85.189 12.15,-115.862 3.66,-12.488 6.55,-25.381 9,-38.165 10.69,-55.72 11.03,-118.036 -13.29,-170.339 -15.65,-33.665 -43.01,-63.446 -78.56,-76.11 -47.81,-17.033 -97.11,3.784 -133.26,35.558 -18.35,16.133 -35.13,35.956 -57.66,46.365 -55.3,25.552 -85.94,-17.739 -123.55,-49.409 -15.451,-13.011 -32.836,-24.058 -51.922,-30.887 -28.1,-10.055 -60.206,-11.19 -87.522,1.757 -31.756,15.051 -55.237,42.567 -69.566,74.223 -27.066,59.797 -24.172,129.215 -9.091,191.784 8.147,33.799 33.2,89.748 20.429,122.859 -10.536,27.315 -55.102,43.519 -80.133,54.697 -12.624,3.495 -24.685,8.67 -37.158,12.637 z"
         id="path18"
         style="fill:#ffa154;fill-opacity:1;stroke-width:1.01168;stroke-dasharray:none" />
      <path
         fill="rgb(61,61,60)"
         d="m 932.355,216.303 c 18.082,-0.718 36.306,-0.289 54.411,-0.295 26.024,-0.009 54.284,-2.139 79.644,4.504 18.08,4.736 33.61,14.427 43.06,30.886 11.48,20.002 13.51,47.082 7.48,69.121 -6.25,22.816 -19.82,35.222 -39.77,46.603 6.53,10.436 42.17,64.293 42.3,71.202 0.04,2.034 -1.37,4.508 -2.92,5.759 -5.42,4.363 -24.97,2.153 -32.31,2.029 -7.28,0.127 -16.62,1.278 -23.59,-0.697 -2.77,-0.786 -4.53,-2.014 -6.43,-4.117 -6.75,-7.472 -11.67,-17.652 -16.77,-26.302 l -25.39,-42.913 -25.928,0.171 c 0.056,10.003 2.61,65.054 -2.071,70.305 -1.956,2.194 -4.703,3.164 -7.554,3.419 -10.608,0.947 -41.653,2.597 -49.197,-4.204 -2.174,-9.799 -2.63,-213.165 -0.826,-219.184 0.979,-3.265 3.166,-4.551 5.861,-6.287 z"
         id="path19"
         style="fill:#273445;fill-opacity:1;stroke-width:1.01168;stroke-dasharray:none" />
      <path
         fill="rgb(247,119,38)"
         d="m 986.231,266.243 c 16.279,-0.164 49.719,-3.598 63.239,4.911 6.38,4.015 10.2,10.842 11.47,18.171 1.66,9.597 -1.03,18.508 -6.59,26.286 -2.53,2.044 -5.04,3.884 -8.2,4.833 -13.69,4.107 -44.13,1.645 -59.967,1.55 z"
         id="path20"
         style="fill:#ffa154;fill-opacity:1;stroke-width:1.01168;stroke-dasharray:none" />
      <path
         fill="rgb(247,119,38)"
         d="m 293.086,1755.39 c 5.516,-18.09 12.379,-35.95 18.656,-53.79 12.719,-36.13 25.656,-72.17 38.81,-108.14 33.352,-93.41 68.596,-186.14 105.711,-278.12 6.056,-14.76 12.833,-29.31 18.795,-44.07 3.678,-9.1 6.638,-21.03 12.166,-29.07 l 1.434,0.58 0.332,5.66 c -4.573,10.8 -2.057,47.19 -1.821,60.31 2.122,117.79 11.95,222.01 56.619,332.42 12.995,32.12 28.454,63.6 48.37,92.05 2.258,3.23 12.628,16.23 11.745,19.21 -112.302,-42.81 -199.752,-45.52 -310.817,2.96 z"
         id="path21"
         style="fill:#ffa154;fill-opacity:1;stroke-width:1.01168;stroke-dasharray:none" />
      <path
         fill="rgb(249,185,32)"
         d="m 1248.63,1780.03 c 7.51,-5.08 16.8,-8.58 24.81,-12.98 9.97,-5.46 19.36,-11.9 29.3,-17.35 19.82,10.21 38.51,21.61 57.78,32.72 8.39,5.49 16.78,10.94 24.75,17.03 6.29,4.8 12.58,11.01 19.44,14.81 4.16,3.49 8.26,7.06 12.28,10.7 17.53,16.15 40.87,39.04 41.25,64.66 0.17,11.43 -3.63,23.64 -11.72,31.88 -22.02,22.45 -58.59,21.28 -87.22,16.98 -4.38,-0.66 -14.86,-3.45 -19.06,-2.14 -5.26,1.64 -13.75,9.52 -19.28,12.69 -22.11,12.72 -43.2,9.32 -67.04,9.04 l 0.81,0.28 c -17.16,1.26 -39,-1.93 -55.01,-8.44 -6.43,-2.61 -15.46,-8.31 -22.1,-9.07 -8.05,-0.92 -17.79,1.5 -25.84,2.55 -24.52,3.18 -53.06,3.3 -75.17,-9.36 -16.45,-9.43 -26.48,-25.46 -30.76,-43.77 -6.32,-27.1 13.33,-52.57 26.84,-73.91 l 0.95,-1.52 c 11.16,-2.81 25.33,-2.11 36.95,-3 29.61,-3.96 59.1,-7.48 87.98,-15.45 16.64,-4.59 32.52,-11.57 49.07,-16.09 z"
         id="path22"
         style="fill:url(#linearGradient57);fill-opacity:1;stroke-width:1.01168;stroke-dasharray:none" />
      <path
         fill="rgb(230,150,0)"
         d="m 1110.59,1811.83 c 29.61,-3.96 59.1,-7.48 87.98,-15.45 16.64,-4.59 32.52,-11.57 49.07,-16.09 l 0.99,-0.26 c 31.48,5.75 62.89,9.09 90.45,27.33 -15.42,-0.45 -30.85,-3.12 -46.23,-3.09 -74.77,0.17 -136.9,24.97 -202.54,57.94 5.24,-17.19 13.51,-33.74 20.28,-50.38 z"
         id="path24"
         style="fill:#d48e15;fill-opacity:1;stroke-width:1.01168;stroke-dasharray:none" />
      <path
         fill="rgb(247,119,38)"
         d="m 1560.09,1238.77 c 8.64,10.11 30.43,70.37 37.08,87.29 39.65,101.86 78.08,204.2 115.27,306.99 14.9,40.93 28.93,82.23 44.2,123.01 -116.54,-49.26 -196.64,-46.34 -314.31,-3.61 0.98,-4.63 16.91,-23.9 20.66,-29.58 13.16,-19.92 25.13,-41.56 34.87,-63.37 50.6,-113.33 63.89,-230.1 64.17,-352.8 0.03,-13.1 2.08,-50.14 -2.02,-60.93 z"
         id="path25"
         style="fill:#ffa154;fill-opacity:1;stroke-width:1.01168;stroke-dasharray:none" />
      <path
         fill="rgb(249,185,32)"
         d="m 745.917,1750.59 c 10.653,6.42 21.274,12.8 32.277,18.61 7.131,3.76 14.594,6.93 21.588,10.93 18.584,4.11 36.516,12.37 55.13,17.1 27.292,6.95 54.608,9.59 82.248,14.22 6.8,0.45 34.223,0.89 38.451,3.27 13.243,20.83 27.619,44.44 25.639,70.07 -1.22,16.97 -9.259,32.71 -22.29,43.65 -21.161,17.71 -51.387,18.73 -77.556,16.23 -9.617,-0.93 -19.459,-3.23 -29.132,-2.82 -11.095,0.47 -24.179,9.19 -35.041,12.75 -8.004,2.63 -17.543,3.69 -25.953,4.01 -8.886,0.34 -17.919,-0.7 -26.828,-0.82 -5.408,-0.08 -10.482,1.41 -15.796,1.33 -11.844,-0.16 -27.683,-6.03 -38.311,-11.34 -6.236,-3.12 -14.856,-10.63 -21.542,-11.59 -6.299,-0.9 -15.036,2.52 -21.773,3 -15.327,1.08 -30.207,0.88 -45.502,-0.45 -15.997,-1.39 -33.714,-9.05 -43.978,-21.77 -7.351,-9.1 -10.494,-21.56 -8.861,-33.1 3.902,-27.57 34.474,-54.36 55.779,-69.95 5.568,-3.19 11.022,-8.24 16.226,-12.12 8.405,-6.27 17.086,-12.11 25.815,-17.91 20.088,-10.36 38.211,-24.97 59.41,-33.3 z"
         id="path26"
         style="fill:#f9c440;fill-opacity:1;stroke-width:1.01168;stroke-dasharray:none" />
      <path
         fill="rgb(230,150,0)"
         d="m 799.782,1780.13 c 18.584,4.11 36.516,12.37 55.13,17.1 27.292,6.95 54.608,9.59 82.248,14.22 6.264,16.56 14.243,32.87 19.11,49.9 -55.936,-31.97 -122.286,-54.72 -186.997,-57.12 -18.861,-0.7 -40.794,4.77 -58.383,2.98 -0.326,-0.03 -0.652,-0.08 -0.978,-0.12 27.414,-17.92 58.845,-20.59 89.87,-26.96 z"
         id="path28"
         style="fill:#d48e15;fill-opacity:1;stroke-width:1.01168;stroke-dasharray:none" />
      <path
         fill="rgb(203,85,18)"
         d="m 1560.01,1245.77 c 4.1,10.79 2.05,47.83 2.02,60.93 -0.28,122.7 -13.57,239.47 -64.17,352.8 -9.74,21.81 -21.71,43.45 -34.87,63.37 -3.75,5.68 -19.68,24.95 -20.66,29.58 -25.98,12.63 -54.82,19.77 -81.81,29.97 -19.27,-11.11 -37.96,-22.51 -57.78,-32.72 18.41,-12.77 35.94,-26.26 52.09,-41.83 87.7,-84.58 135.28,-211.26 137.36,-331.99 44.71,-40.74 58.29,-71.06 67.82,-130.11 z"
         id="path29"
         style="fill:#f37f3f;fill-opacity:1;stroke-width:1.01168;stroke-dasharray:none" />
      <path
         fill="rgb(203,85,18)"
         d="m 603.903,1752.43 c 0.883,-2.98 -9.487,-15.98 -11.745,-19.21 -19.916,-28.45 -35.375,-59.93 -48.37,-92.05 -44.669,-110.41 -54.497,-214.63 -56.619,-332.42 -0.236,-13.12 -2.752,-49.51 1.821,-60.31 7.343,53.26 24.945,92.63 66.88,127.13 1.57,28.3 4.142,56.19 9.486,84.05 18.827,98.17 66.614,194.18 141.703,261.25 12.242,10.8 25.226,20.73 38.858,29.72 -21.199,8.33 -39.322,22.94 -59.41,33.3 -27.092,-11.17 -56.228,-18.74 -82.604,-31.46 z"
         id="path30"
         style="fill:#f3823f;fill-opacity:1;stroke-width:1.01168;stroke-dasharray:none" />
      <path
         fill="#fef5e7"
         d="m 705.203,1207.14 c 8.769,-74.32 30.164,-146.6 63.263,-213.725 7.474,-14.833 36.54,-71.745 51.107,-75.93 3.29,-0.945 6.096,0.376 9.054,1.824 8.204,4.016 15.598,9.995 23.157,15.12 10.22,7.013 20.746,13.569 31.548,19.648 107.19,60.283 198.508,53.203 300.408,-11.292 8.46,-5.352 33.25,-24.946 41.61,-25.764 3.7,-0.363 8.56,3.874 10.92,6.311 8.55,8.839 14.84,21.082 21.13,31.606 37.8,63.712 64.12,133.562 77.75,206.382 2.96,15.03 6.84,31.32 6.91,46.68 -22.89,36.38 -54.28,68.6 -87.75,95.32 -26,20.75 -62.47,42.37 -80.69,70.18 -6.88,10.5 -10.73,22.76 -7.8,35.28 3.68,15.77 15.76,24.98 28.82,32.89 52.06,22.07 107.54,10.25 160,-4.23 -2.4,14.03 -5.68,27.9 -9.81,41.52 -6.59,22.49 -14.76,44.26 -25.79,64.99 -39.26,73.72 -106.02,125.3 -185.43,149.26 -91.55,27.62 -199.201,18.55 -283.58,-26.98 -75.44,-40.7 -122.686,-106.44 -146.817,-187.39 -4.842,-13.46 -7.511,-28.4 -10.618,-42.35 51.375,15.27 107.391,27.07 158.739,6 3.09,-1.77 6.206,-3.53 9.189,-5.48 10.519,-6.86 19.554,-17.45 21.867,-30.05 6.988,-38.06 -50.117,-75.05 -76.136,-95.04 -14.923,-11.47 -29.643,-23.03 -43.413,-35.88 -22.253,-20.77 -40.402,-43.91 -57.638,-68.9 z"
         id="path31"
         style="fill:url(#radialGradient62);stroke-width:1.01168;stroke-dasharray:none" />
      <path
         fill="rgb(220,213,207)"
         d="m 692.595,1436.49 c 51.375,15.27 107.391,27.07 158.739,6 -2.869,8.06 -11.296,12.34 -18.69,15.81 -26.178,12.28 -55.551,18.31 -84.347,19.65 -10.153,0.46 -37.445,-2.44 -45.084,0.89 -4.842,-13.46 -7.511,-28.4 -10.618,-42.35 z"
         id="path32"
         style="fill:#a3907c;fill-opacity:1;stroke-width:1.01168;stroke-dasharray:none" />
      <path
         fill="rgb(220,213,207)"
         d="m 1194.64,1441.67 c 52.06,22.07 107.54,10.25 160,-4.23 -2.4,14.03 -5.68,27.9 -9.81,41.52 -8.68,-3.35 -29.97,-0.55 -39.99,-1.02 -27.44,-1.31 -56.26,-5.8 -81.78,-16.06 -10.1,-4.06 -23.9,-9.64 -28.42,-20.21 z"
         id="path33"
         style="fill:#a3907c;fill-opacity:1;stroke-width:1.01168;stroke-dasharray:none" />
      <path
         fill="rgb(249,185,32)"
         d="m 1015.14,645.41 c 0.26,-0.034 0.53,-0.079 0.79,-0.102 23.4,-2.053 48.27,2.879 70.15,10.996 17.37,6.445 33.72,16.12 49.79,25.266 28.78,16.528 57.09,33.861 84.9,51.979 14.95,9.72 30.94,19.193 44.69,30.513 6.29,5.177 11.5,9.955 12.05,18.48 1.61,24.808 -26.5,59.827 -42.22,76.992 -51.08,55.777 -125.32,96.492 -201.47,99.699 -66.218,2.446 -128.32,-25.052 -180.257,-64.335 -29.887,-22.604 -79.091,-69.603 -83.404,-107.121 -0.797,-6.93 0.074,-11.045 4.647,-16.397 19.087,-22.339 149.062,-98.569 177.788,-110.491 20.38,-8.458 40.568,-13.542 62.546,-15.479 z"
         id="path34"
         style="fill:#f9c440;fill-opacity:1;stroke-width:1.01168;stroke-dasharray:none" />
      <path
         fill="rgb(61,61,60)"
         d="m 804.894,771.891 c 2.874,-0.011 6.003,-0.176 8.49,1.524 6.039,4.127 10.062,11.944 15.675,16.872 20.369,17.885 43.336,32.115 67.885,43.481 94.618,43.808 209.736,36.266 296.516,-22.423 8.49,-5.736 16.8,-11.886 24.42,-18.741 5.73,-5.156 14.97,-18.815 22.01,-20.641 2.28,-0.592 4.43,-0.573 6.42,0.86 2.17,1.569 3.24,4.184 3.62,6.757 0.95,6.478 -3.08,10.856 -6.7,15.648 -46.9,51.088 -130.96,86.687 -199.14,91.956 -82.217,6.353 -165.021,-27.603 -226.543,-80.999 -6.54,-5.676 -19.085,-15.726 -18.781,-25.274 0.134,-4.232 3.19,-6.527 6.128,-9.02 z"
         id="path35"
         style="fill:url(#linearGradient54);fill-opacity:1;stroke-width:1.01168;stroke-dasharray:none" />
      <path
         fill="#fef5e7"
         d="m 1185.64,504.306 c 17.17,-2.334 35.49,1.909 50.32,10.628 26.1,15.346 43.08,42.936 50.25,71.84 8.36,33.682 4.87,74.658 -13.52,104.585 -6.93,11.27 -21.17,28.338 -34.58,31.074 -8.5,1.732 -13.78,-1.968 -20.57,-6.335 -31.45,-20.71 -67.19,-38.557 -101.78,-53.424 -3.78,-8.531 -6.26,-17.979 -7.76,-27.176 -5.32,-32.826 1.83,-69.697 21.66,-96.755 13.86,-18.912 32.8,-30.864 55.98,-34.437 z"
         id="path36"
         style="fill:url(#radialGradient68);stroke-width:1.01168;stroke-dasharray:none" />
      <path
         fill="rgb(61,61,60)"
         d="m 1185.71,561.387 c 9.07,0.347 16.69,2.427 24.18,7.757 12.89,9.18 20.46,24.676 23.16,39.967 3.3,18.769 0.44,39.786 -11,55.422 -8.16,11.141 -18.33,16.446 -31.64,18.715 -10.78,-0.476 -19.7,-2.516 -28.36,-9.357 -12.45,-9.825 -19.32,-26.016 -21.29,-41.438 -2.39,-18.716 1.61,-39.311 13.5,-54.318 8.25,-10.423 18.51,-15.28 31.45,-16.748 z"
         id="path37"
         style="fill:url(#radialGradient46);fill-opacity:1;stroke-width:1.01168;stroke-dasharray:none" />
      <path
         fill="#fef5e7"
         d="m 1203.01,587.905 c 0.27,-0.029 0.54,-0.069 0.81,-0.087 3.91,-0.258 7.09,-0.08 10.1,2.789 2.09,1.986 3.18,4.55 3.2,7.425 0.04,4.976 -2.3,7.87 -5.71,11.189 -0.34,0.079 -0.67,0.173 -1.01,0.236 -3.14,0.573 -6.65,0.495 -9.18,-1.722 -2.57,-2.248 -3.62,-4.971 -3.62,-8.313 -0.01,-5.045 2.08,-7.96 5.41,-11.517 z"
         id="path38"
         style="stroke-width:1.01168;stroke-dasharray:none" />
      <path
         fill="#fef5e7"
         d="m 843.701,504.323 c 12.798,-1.029 25.135,0.068 37.11,4.905 23.378,9.444 39.784,29.733 49.392,52.514 13.482,32.182 13.723,68.384 0.671,100.743 -30.178,14.064 -58.963,29.462 -87.674,46.324 -7.376,4.217 -16.732,12.608 -25.05,14.064 -6.94,1.216 -13.903,-2.552 -19.279,-6.536 -22.734,-16.852 -35.13,-42.725 -39.182,-70.304 -5.308,-36.124 2.064,-76.351 24.397,-105.832 14.96,-19.748 35.034,-32.376 59.615,-35.878 z"
         id="path39"
         style="fill:url(#radialGradient65);stroke-width:1.01168;stroke-dasharray:none" />
      <path
         fill="rgb(61,61,60)"
         d="m 864.396,561.306 c 8.526,-0.345 16.952,1.944 24.132,6.555 12.949,8.287 20.712,22.833 23.817,37.562 4.054,19.232 1.612,41.036 -9.541,57.572 -8.149,12.084 -18.261,17.446 -32.197,20.153 -10.662,0.022 -20.182,-2.21 -28.931,-8.594 -12.928,-9.433 -20.529,-25.092 -22.817,-40.68 -2.705,-18.435 1.371,-38.956 12.714,-53.96 8.407,-11.12 19.264,-16.692 32.823,-18.608 z"
         id="path40"
         style="fill:url(#radialGradient44);fill-opacity:1;stroke-width:1.01168;stroke-dasharray:none" />
      <path
         fill="#fef5e7"
         d="m 883.198,588.059 c 3.896,-0.255 6.638,-0.526 9.993,1.809 2.5,1.767 4.06,4.575 4.238,7.632 0.286,5.063 -1.853,7.875 -5.135,11.453 -0.474,0.133 -0.943,0.287 -1.423,0.399 -3.369,0.78 -6.472,0.5 -9.297,-1.681 -2.44,-1.882 -3.534,-4.861 -3.632,-7.849 -0.173,-5.273 1.671,-8.115 5.256,-11.763 z"
         id="path41"
         style="stroke-width:1.01168;stroke-dasharray:none" />
    </g>
  </g>
</svg>
